SplineFontDB: 3.0
FontName: Neuton-Light
FullName: Neuton Light
FamilyName: Neuton
Weight: Light
Copyright: Copyright (c) 2010, 2011 Brian M Zick (http://21326.info/),\nwith Reserved Font Name "Neuton".\nCleanup by Wallace Smith and William Zick.\n\nThis Font Software is licensed under the SIL Open Font License, Version 1.1.\nThis license is available with a FAQ at: http://scripts.sil.org/OFL\n   WITHOUT WARRANTIES OR CONDITIONS OF ANY KIND, either express or implied.\n   See the License for the specific language governing permissions and\n   limitations under the License.
UComments: "2011-6-6: Created." 
Version: 1.4
ItalicAngle: 0
UnderlinePosition: -208
UnderlineWidth: 102
Ascent: 1638
Descent: 410
LayerCount: 2
Layer: 0 0 "Back"  1
Layer: 1 0 "Fore"  0
NeedsXUIDChange: 1
XUID: [1021 467 2011608612 1910391]
FSType: 0
OS2Version: 0
OS2_WeightWidthSlopeOnly: 0
OS2_UseTypoMetrics: 1
CreationTime: 1307389376
ModificationTime: 1307474809
PfmFamily: 17
TTFWeight: 200
TTFWidth: 5
LineGap: 184
VLineGap: 0
OS2TypoAscent: 0
OS2TypoAOffset: 1
OS2TypoDescent: 0
OS2TypoDOffset: 1
OS2TypoLinegap: 187
OS2WinAscent: 0
OS2WinAOffset: 1
OS2WinDescent: 0
OS2WinDOffset: 1
HheadAscent: 0
HheadAOffset: 1
HheadDescent: 0
HheadDOffset: 1
OS2Vendor: 'PfEd'
MarkAttachClasses: 1
DEI: 91125

StartChar: A
Encoding: 65 65 0
Width: 1324
VWidth: 0
Flags: W
HStem: 0 58<43 91.3423 407.32 469 805 861.344 1212.69 1257> 455 79<453 826> 1248 20G<635.273 734.854>
DStem2: 188 101 294 95 0.357284 0.933996<32.2681 415.311 499.1 499.1> 728 1268 646 1060 0.324201 -0.945988<170.181 726.127 808.641 1183.72>
LayerCount: 2
Fore
SplineSet
453 534 m 1
 826 534 l 1
 646 1060 l 1
 453 534 l 1
35 0 m 1
 43 58 l 1
 188 101 l 1
 626 1246 l 1
 728 1268 l 1
 1130 95 l 1
 1265 64 l 1
 1257 0 l 1
 795 0 l 1
 805 58 l 1
 974 101 l 1
 850 455 l 1
 425 455 l 1
 294 95 l 1
 479 63 l 1
 469 0 l 1
 35 0 l 1
EndSplineSet
Validated: 1
Colour: ffffff
EndChar

StartChar: AE
Encoding: 198 198 1
Width: 1686
VWidth: 0
Flags: W
HStem: 0 75<986 1500> 0 58<8 53.2887 374.829 435 661 728.907> 472 81<532 841> 596 73<986 1272> 1173 71<986 1472>
VStem: 841 145<96 472 553 596 669 1075> 1297 66<421 516.233> 1325 72<753.691 801> 1503 65<936 1045.6>
DStem2: 147 102 259 96 0.522106 0.852881<53.3586 492.56 585.66 1194.28>
LayerCount: 2
Fore
SplineSet
532 553 m 1x3c80
 842 553 l 1
 845 1075 l 1
 532 553 l 1x3c80
0 2 m 1
 8 60 l 1
 147 102 l 1
 791 1154 l 1
 567 1187 l 1
 576 1244 l 1
 1600 1244 l 1
 1568 926 l 1
 1503 936 l 1
 1472 1173 l 1
 986 1173 l 1
 986 669 l 1
 1285 669 l 1
 1325 801 l 1
 1397 808 l 1x7d80
 1363 421 l 1
 1297 409 l 1
 1272 596 l 1
 986 596 l 1
 986 75 l 1
 1500 75 l 1xbe80
 1586 326 l 1
 1646 313 l 1
 1616 0 l 1
 654 0 l 1
 661 58 l 1x7e80
 841 96 l 1
 841 472 l 1
 486 472 l 1
 259 96 l 1
 445 66 l 1
 435 2 l 1
 0 2 l 1
EndSplineSet
Validated: 1
Colour: ffffff
EndChar

StartChar: Aogonek
Encoding: 260 260 2
Width: 1324
VWidth: 0
Flags: W
HStem: -377 43<1282.45 1291.34> 0 58<43 91.3423 407.32 469 805 861.344 1223.88 1257> 455 79<453 826> 1248 20G<635.273 734.854>
VStem: 1058 123<-261.513 -80.9668>
DStem2: 188 101 294 95 0.357284 0.933996<32.2681 415.311 499.1 499.1> 728 1268 646 1060 0.324201 -0.945988<170.181 726.127 808.641 1183.72>
LayerCount: 2
Fore
SplineSet
453 534 m 1
 826 534 l 1
 646 1060 l 1
 453 534 l 1
35 0 m 1
 43 58 l 1
 188 101 l 1
 626 1246 l 1
 728 1268 l 1
 1130 95 l 1
 1265 64 l 1
 1257 0 l 1
 1242 -0 l 1
 1188 -79 1181 -117 1181 -147 c 0
 1181 -219 1224 -281 1314 -334 c 1
 1280 -377 l 1
 1136 -362 1058 -285 1058 -199 c 0
 1058 -148 1076 -95 1178 0 c 1
 795 0 l 1
 805 58 l 1
 974 101 l 1
 850 455 l 1
 425 455 l 1
 294 95 l 1
 479 63 l 1
 469 0 l 1
 35 0 l 1
EndSplineSet
Validated: 1
Colour: ffffff
EndChar

StartChar: B
Encoding: 66 66 3
Width: 1135
VWidth: 0
Flags: W
HStem: 0 75<407 797.097> 0 58<92 155.38> 618 67<407 740.668 777 793.886> 1155 56<98 183.287> 1192 65<408.134 681.763>
VStem: 260 147<96 618 685 1129> 838 145<813.281 1076> 936 151<204.419 498.278>
LayerCount: 2
Fore
SplineSet
407 685 m 1x2e
 691 685 l 1
 770 727 838 806 838 922 c 0
 838 1078 737 1192 507 1192 c 0
 482 1192 434 1191 407 1186 c 1
 407 685 l 1x2e
407 75 m 1xa5
 639 75 l 2
 855 75 936 213 936 347 c 0
 936 471 857 618 646 618 c 2
 407 618 l 1
 407 75 l 1xa5
82 0 m 1x65
 92 58 l 1
 260 96 l 1
 260 1129 l 1
 89 1155 l 1
 98 1211 l 1x75
 244 1232 388 1257 566 1257 c 0
 853 1257 983 1118 983 967 c 0x2e
 983 847 914 741 777 679 c 1
 777 672 l 1
 982 661 1087 513 1087 380 c 0
 1087 188 964 0 554 0 c 2xad
 82 0 l 1x65
EndSplineSet
Validated: 1
Colour: ffffff
EndChar

StartChar: C
Encoding: 67 67 4
Width: 1113
VWidth: 0
Flags: W
HStem: -25 109<533.817 875.727> 1195 75<516.214 837.778>
VStem: 108 163<381.12 852.822> 963 68<846 941.573>
LayerCount: 2
Fore
SplineSet
108 599 m 0
 108 894 291 1270 711 1270 c 0
 844 1270 966 1244 1062 1171 c 1
 1031 836 l 1
 963 846 l 1
 927 1086 l 1
 881 1146 803 1195 659 1195 c 0
 446 1195 271 978 271 651 c 0
 271 284 464 84 727 84 c 0
 871 84 1000 166 1084 252 c 1
 1113 195 l 1
 1042 100 870 -25 658 -25 c 0
 352 -25 108 207 108 599 c 0
EndSplineSet
Validated: 1
Colour: ffffff
EndChar

StartChar: Cdotaccent
Encoding: 266 266 5
Width: 1113
VWidth: 0
Flags: W
HStem: -25 109<533.817 875.727> 1195 75<516.214 837.778> 1373 208<604.654 748.027>
VStem: 108 163<381.12 852.822> 591 170<1383.95 1569.83> 963 68<846 941.573>
LayerCount: 2
Fore
SplineSet
591 1479 m 0
 591 1540 624 1581 675 1581 c 0
 726 1581 761 1541 761 1479 c 0
 761 1415 729 1373 675 1373 c 0
 622 1373 591 1417 591 1479 c 0
108 599 m 0
 108 894 291 1270 711 1270 c 0
 844 1270 966 1244 1062 1171 c 1
 1031 836 l 1
 963 846 l 1
 927 1086 l 1
 881 1146 803 1195 659 1195 c 0
 446 1195 271 978 271 651 c 0
 271 284 464 84 727 84 c 0
 871 84 1000 166 1084 252 c 1
 1113 195 l 1
 1042 100 870 -25 658 -25 c 0
 352 -25 108 207 108 599 c 0
EndSplineSet
Validated: 1
Colour: ffffff
EndChar

StartChar: D
Encoding: 68 68 6
Width: 1344
VWidth: 0
Flags: W
HStem: 0 79<409 802.97> 0 58<92 149.011> 1154 56<100 185.39> 1181 78<410.57 784.509>
VStem: 263 146<101 1128> 1127 163<411.303 847.949>
LayerCount: 2
Fore
SplineSet
409 79 m 1x9c
 571 79 l 2
 926 79 1127 299 1127 599 c 0
 1127 934 936 1181 557 1181 c 0
 516 1181 450 1181 409 1176 c 1
 409 79 l 1x9c
81 0 m 1x4c
 92 58 l 1
 263 101 l 1
 263 1128 l 1
 90 1154 l 1
 100 1210 l 1x6c
 297 1241 447 1259 593 1259 c 0
 1128 1259 1290 962 1290 654 c 0
 1290 312 1056 0 544 0 c 2x9c
 81 0 l 1x4c
EndSplineSet
Validated: 1
Colour: ffffff
EndChar

StartChar: Dcroat
Encoding: 272 272 7
Width: 1353
VWidth: 0
Flags: W
HStem: 0 79<413 823.375> 0 58<97 153.677> 1155 56<104 189.838> 1182 78<414.889 789.967>
VStem: 267 146<101 587 672 1129> 1137 164<422.732 849.414>
DStem2: 97 650 86 574 0.997476 0.0710068<0 165.097 316.765 575.124>
LayerCount: 2
Fore
SplineSet
413 79 m 1x9c
 609 79 l 2
 951 79 1137 305 1137 599 c 0
 1137 934 942 1182 561 1182 c 0
 520 1182 454 1181 413 1176 c 1
 413 672 l 1
 686 692 l 1
 676 616 l 1
 413 597 l 1
 413 79 l 1x9c
86 574 m 1
 97 650 l 1
 267 662 l 1
 267 1129 l 1
 95 1155 l 1
 104 1211 l 1x6c
 301 1242 452 1260 598 1260 c 0
 1133 1260 1301 965 1301 657 c 0
 1301 323 1060 0 557 0 c 2x9c
 86 0 l 1
 97 58 l 1x4c
 267 101 l 1
 267 587 l 1
 86 574 l 1
EndSplineSet
Validated: 1
Colour: ffffff
EndChar

StartChar: E
Encoding: 69 69 8
Width: 1107
VWidth: 0
Flags: W
HStem: 0 75<413 942> 0 58<96 159.757> 594 74<413 716> 1173 71<93 103.219 413 916>
VStem: 265 148<96 594 668 1151> 741 66<419 514.66> 768 72<750.766 797> 946 67<934 1048.21>
LayerCount: 2
Fore
SplineSet
84 1185 m 1x7d
 93 1244 l 1
 1044 1244 l 1
 1013 925 l 1
 946 934 l 1
 916 1173 l 1
 413 1173 l 1
 413 668 l 1
 728 668 l 1
 768 797 l 1
 840 808 l 1x7b
 807 419 l 1
 741 408 l 1
 716 594 l 1
 413 594 l 1
 413 75 l 1
 942 75 l 1xbd
 1028 324 l 1
 1090 313 l 1
 1060 0 l 1
 90 0 l 1
 96 58 l 1
 265 96 l 1
 265 1151 l 1
 84 1185 l 1x7d
EndSplineSet
Validated: 1
Colour: ffffff
EndChar

StartChar: Ecircumflex
Encoding: 202 202 9
Width: 1107
VWidth: 0
Flags: W
HStem: 0 75<413 942> 0 58<96 159.757> 594 74<413 716> 1173 71<93 103.219 413 916>
VStem: 265 148<96 594 668 1151> 741 66<419 514.66> 768 72<750.766 797> 946 67<934 1048.21>
LayerCount: 2
Fore
SplineSet
392 1402 m 1x39
 560 1582 l 1
 615 1596 l 1
 793 1410 l 1
 753 1373 l 1
 580 1495 l 1
 571 1495 l 1
 422 1372 l 1
 392 1402 l 1x39
84 1185 m 1
 93 1244 l 1
 1044 1244 l 1
 1013 925 l 1
 946 934 l 1
 916 1173 l 1
 413 1173 l 1
 413 668 l 1
 728 668 l 1
 768 797 l 1
 840 808 l 1x7b
 807 419 l 1
 741 408 l 1
 716 594 l 1
 413 594 l 1
 413 75 l 1
 942 75 l 1xbd
 1028 324 l 1
 1090 313 l 1
 1060 0 l 1
 90 0 l 1
 96 58 l 1x7d
 265 96 l 1
 265 1151 l 1
 84 1185 l 1
EndSplineSet
Validated: 1
Colour: ffffff
EndChar

StartChar: Eng
Encoding: 330 330 10
Width: 1383
VWidth: 0
Flags: W
HStem: -383 21G<847.941 893.333> 0 63<79 126.246 467.377 521> 1187 57<73 124.012 891 956.762 1258.59 1330>
VStem: 246 101<96 1047> 1067 97<225 1154>
DStem2: 400 1244 347 1047 0.554132 -0.832429<134.62 1217.85>
LayerCount: 2
Fore
SplineSet
63 1188 m 1
 73 1244 l 1
 400 1244 l 1
 1067 225 l 1
 1067 1154 l 1
 882 1187 l 1
 891 1244 l 1
 1341 1244 l 1
 1330 1187 l 1
 1164 1156 l 1
 1164 151 l 2
 1164 -116 1047 -266 905 -356 c 1
 860 -383 l 1
 819 -315 l 1
 909 -249 994 -153 1022 33 c 1
 347 1047 l 1
 347 90 l 1
 531 63 l 1
 521 0 l 1
 73 0 l 1
 79 58 l 1
 246 96 l 1
 246 1147 l 1
 63 1188 l 1
EndSplineSet
Validated: 1
Colour: ffffff
EndChar

StartChar: Eth
Encoding: 208 208 11
Width: 1348
VWidth: 0
Flags: W
HStem: 0 79<409 819.235> 0 58<92 149.011> 1155 56<100 185.39> 1182 78<410.57 785.419>
VStem: 263 146<101 587 672 1129> 1132 165<422.732 849.414>
DStem2: 92 650 82 574 0.997467 0.0711267<0 166.086 317.762 575.115>
LayerCount: 2
Fore
SplineSet
409 79 m 1x9c
 605 79 l 2
 947 79 1132 305 1132 599 c 0
 1132 934 938 1182 557 1182 c 0
 516 1182 450 1181 409 1176 c 1
 409 672 l 1
 681 692 l 1
 671 616 l 1
 409 597 l 1
 409 79 l 1x9c
82 574 m 1
 92 650 l 1
 263 662 l 1
 263 1129 l 1
 90 1155 l 1
 100 1211 l 1x6c
 297 1242 447 1260 593 1260 c 0
 1128 1260 1297 965 1297 657 c 0
 1297 323 1056 0 553 0 c 2x9c
 81 0 l 1
 92 58 l 1x4c
 263 101 l 1
 263 587 l 1
 82 574 l 1
EndSplineSet
Validated: 1
Colour: ffffff
EndChar

StartChar: Euro
Encoding: 8364 8364 12
Width: 1117
VWidth: 0
Flags: W
HStem: -25 88<541.106 846.067> 493 83<-20 142 318 788> 672 82<-12 143 313 835> 1190 80<528.615 840.734>
VStem: 141 167<354.17 493 576 672 754 871.708> 938 65<846 938.99> 954 66<322.46 417>
LayerCount: 2
Fore
SplineSet
-17 672 m 1xfa
 -12 754 l 1
 153 754 l 1
 200 1029 386 1270 717 1270 c 0
 850 1270 939 1244 1035 1171 c 1
 1003 836 l 1
 938 846 l 1xfc
 901 1086 l 1
 858 1149 808 1190 687 1190 c 0
 468 1190 340 1021 313 754 c 1
 852 754 l 1
 835 672 l 1
 308 672 l 1
 308 662 308 651 308 641 c 0
 308 619 309 597 310 576 c 1
 805 576 l 1
 788 493 l 1
 318 493 l 1
 356 226 499 63 715 63 c 0
 778 63 860 94 917 173 c 1
 954 417 l 1
 1020 426 l 1
 1051 107 l 1
 929 16 828 -25 664 -25 c 0
 385 -25 187 174 148 493 c 1
 -26 493 l 1
 -20 576 l 1
 142 576 l 1
 142 587 141 599 141 610 c 0
 141 631 142 651 143 672 c 1
 -17 672 l 1xfa
EndSplineSet
Validated: 1
Colour: ffffff
EndChar

StartChar: F
Encoding: 70 70 13
Width: 1123
VWidth: 0
Flags: W
HStem: 0 58<91 154.757 558.08 637> 579 73<409 710> 1173 71<89 100.007 409 906>
VStem: 260 149<96 579 652 1151> 734 69<402 503.299> 761 71<736.544 782> 934 68<933 1047.37>
LayerCount: 2
Fore
SplineSet
81 1185 m 1xfa
 89 1244 l 1
 1039 1244 l 1
 1002 923 l 1
 934 933 l 1
 906 1173 l 1
 409 1173 l 1
 409 652 l 1
 720 652 l 1
 761 782 l 1
 832 792 l 1xf6
 803 402 l 1
 734 391 l 1
 710 579 l 1
 409 579 l 1
 408 96 l 1
 649 68 l 1
 637 0 l 1
 86 0 l 1
 91 58 l 1
 260 96 l 1
 260 1151 l 1
 81 1185 l 1xfa
EndSplineSet
Validated: 1
Colour: ffffff
EndChar

StartChar: G
Encoding: 71 71 14
Width: 1357
VWidth: 0
Flags: W
HStem: -26 87<568.435 957.796> 495 61<756 823.197 1216.38 1264> 1182 80<528.073 895.995>
VStem: 108 164<386.351 833.533> 984 151<95.1719 463> 1044 66<852 944.967>
LayerCount: 2
Fore
SplineSet
108 591 m 0xf8
 108 958 378 1262 735 1262 c 0
 890 1262 1040 1228 1138 1162 c 1
 1110 841 l 1
 1044 852 l 1xf4
 1011 1066 l 1
 965 1119 851 1182 693 1182 c 0
 454 1182 272 985 272 640 c 0
 272 347 425 61 768 61 c 0
 854 61 932 84 984 119 c 1
 985 463 l 1
 746 495 l 1
 756 556 l 1
 1274 556 l 1
 1264 499 l 1
 1135 467 l 1
 1135 79 l 1
 1002 0 859 -26 659 -26 c 0
 320 -26 108 228 108 591 c 0xf8
EndSplineSet
Validated: 1
Colour: ffffff
EndChar

StartChar: Gdotaccent
Encoding: 288 288 15
Width: 1357
VWidth: 0
Flags: W
HStem: -26 87<568.435 957.796> 495 61<756 823.197 1216.38 1264> 1182 80<528.073 895.995> 1373 208<641.654 785.027>
VStem: 108 164<386.351 833.533> 628 170<1383.95 1569.83> 984 151<95.1719 463> 1044 66<852 944.967>
LayerCount: 2
Fore
SplineSet
628 1479 m 0xfc
 628 1540 661 1581 712 1581 c 0
 763 1581 798 1541 798 1479 c 0
 798 1415 766 1373 712 1373 c 0
 659 1373 628 1417 628 1479 c 0xfc
108 591 m 0
 108 958 378 1262 735 1262 c 0
 890 1262 1040 1228 1138 1162 c 1
 1110 841 l 1
 1044 852 l 1xfd
 1011 1066 l 1
 965 1119 851 1182 693 1182 c 0
 454 1182 272 985 272 640 c 0
 272 347 425 61 768 61 c 0
 854 61 932 84 984 119 c 1
 985 463 l 1
 746 495 l 1
 756 556 l 1
 1274 556 l 1
 1264 499 l 1
 1135 467 l 1
 1135 79 l 1xfe
 1002 0 859 -26 659 -26 c 0
 320 -26 108 228 108 591 c 0
EndSplineSet
Validated: 1
Colour: ffffff
EndChar

StartChar: Germandbls
Encoding: 7838 7838 16
Width: 1284
VWidth: 0
Flags: W
HStem: -25 82<722.368 1022.18> 0 57<79 140.387> 1191 70<548.928 772.228>
VStem: 246 146<96 1009.29> 531 72<285.435 377> 548 133<820.968 1041.64> 1082 102<990.524 1044.01> 1099 146<147.712 372.444>
LayerCount: 2
Fore
SplineSet
72 0 m 1x75
 79 57 l 1
 246 96 l 1
 246 758 l 2
 246 1112 427 1261 725 1261 c 0
 913 1261 1184 1198 1184 1048 c 0
 1184 983 1148 954 1082 932 c 1
 1054 1038 996 1153 871 1153 c 0
 786 1153 681 1074 681 946 c 0x76
 681 645 1245 647 1245 312 c 0
 1245 105 1076 -25 840 -25 c 0
 697 -25 570 33 510 118 c 1
 531 388 l 1
 603 377 l 1
 634 179 l 1
 674 107 775 57 878 57 c 0xb9
 992 57 1099 112 1099 256 c 0
 1099 524 548 528 548 874 c 0
 548 1013 632 1151 773 1184 c 1
 775 1188 l 1
 755 1190 707 1191 687 1191 c 0
 490 1191 392 1035 392 780 c 2
 392 0 l 1
 72 0 l 1x75
EndSplineSet
Validated: 1
Colour: ffffff
EndChar

StartChar: H
Encoding: 72 72 17
Width: 1446
VWidth: 0
Flags: W
HStem: 0 63<97 144.529 535.685 588 922 968.68 1356.07 1411> 591 81<414 1087> 1187 57<90 162.065 504.846 583 913 983.5 1326.77 1404>
VStem: 265 149<96 591 672 1154> 1087 150<96 592 672 1154>
LayerCount: 2
Fore
SplineSet
83 1187 m 1
 90 1244 l 1
 591 1244 l 1
 583 1187 l 1
 414 1156 l 1
 414 672 l 1
 1087 672 l 1
 1087 1154 l 1
 904 1187 l 1
 913 1244 l 1
 1413 1244 l 1
 1404 1187 l 1
 1237 1156 l 1
 1237 90 l 1
 1419 63 l 1
 1411 0 l 1
 912 0 l 1
 922 58 l 1
 1087 96 l 1
 1087 592 l 1
 414 591 l 1
 414 90 l 1
 600 63 l 1
 588 0 l 1
 91 0 l 1
 97 58 l 1
 265 96 l 1
 265 1154 l 1
 83 1187 l 1
EndSplineSet
Validated: 1
Colour: ffffff
EndChar

StartChar: Hbar
Encoding: 294 294 18
Width: 1450
VWidth: 0
Flags: W
HStem: 0 63<111 158.529 549.685 602 936 982.68 1370.07 1425> 591 81<428 1101> 908 94<132 279 428 1101 1251 1371> 1187 57<104 176.065 518.846 597 927 997.5 1340.77 1418>
VStem: 279 149<96 591 672 908 1002 1154> 1101 150<96 592 672 908 1002 1154>
LayerCount: 2
Fore
SplineSet
123 908 m 1
 132 1002 l 1
 279 1002 l 1
 279 1154 l 1
 97 1187 l 1
 104 1244 l 1
 605 1244 l 1
 597 1187 l 1
 428 1156 l 1
 428 990 l 1
 1101 990 l 1
 1101 1154 l 1
 918 1187 l 1
 927 1244 l 1
 1427 1244 l 1
 1418 1187 l 1
 1251 1156 l 1
 1251 1002 l 1
 1377 1002 l 1
 1371 908 l 1
 1251 908 l 1
 1251 90 l 1
 1433 63 l 1
 1425 0 l 1
 926 0 l 1
 936 58 l 1
 1101 96 l 1
 1101 592 l 1
 428 591 l 1
 428 90 l 1
 614 63 l 1
 602 0 l 1
 105 0 l 1
 111 58 l 1
 279 96 l 1
 279 908 l 1
 123 908 l 1
1101 920 m 1
 428 920 l 1
 428 672 l 1
 1101 672 l 1
 1101 920 l 1
EndSplineSet
Validated: 1
Colour: ffffff
EndChar

StartChar: I
Encoding: 73 73 19
Width: 674
VWidth: 0
Flags: W
HStem: 0 63<101 146.831 536.34 591> 1187 57<94 162.893 506.458 586>
VStem: 263 151<96 1154>
LayerCount: 2
Fore
SplineSet
86 1187 m 1
 94 1244 l 1
 595 1244 l 1
 586 1187 l 1
 414 1156 l 1
 414 90 l 1
 601 63 l 1
 591 0 l 1
 94 0 l 1
 101 58 l 1
 263 96 l 1
 263 1154 l 1
 86 1187 l 1
EndSplineSet
Validated: 1
Colour: ffffff
EndChar

StartChar: J
Encoding: 74 74 20
Width: 614
VWidth: 0
Flags: W
HStem: 1187 57<90 161.065 505.383 584>
VStem: 264 148<23.4082 1154>
LayerCount: 2
Fore
SplineSet
19 -259 m 1
 180 -114 264 23 264 209 c 2
 264 1154 l 1
 82 1187 l 1
 90 1244 l 1
 593 1244 l 1
 584 1187 l 1
 414 1156 l 1
 412 372 l 2
 410 -28 326 -144 57 -325 c 1
 19 -259 l 1
EndSplineSet
Validated: 1
Colour: ffffff
EndChar

StartChar: K
Encoding: 75 75 21
Width: 1225
VWidth: 0
Flags: W
HStem: -21 21G<1032 1127.5> 0 63<100 140.292 547.443 592> 1187 57<93 151.285 515.958 586 734 793.707 1109.42 1177>
VStem: 264 151<101 1149>
DStem2: 601 649 456 604 0.61195 -0.790896<0 683.438> 604 790 601 649 0.632735 0.774369<-111.084 462.407>
LayerCount: 2
Fore
SplineSet
454 623 m 1xb0
 489 660 555 730 604 790 c 2
 893 1151 l 1
 728 1187 l 1
 734 1244 l 1
 1184 1244 l 1
 1177 1187 l 1
 1012 1152 l 1
 601 649 l 1
 846 358 l 2
 993 184 1067 97 1191 68 c 1
 1237 58 l 1
 1226 2 l 1
 1180 -14 1148 -21 1107 -21 c 0
 957 -21 849 97 733 246 c 2
 456 604 l 1
 454 623 l 1xb0
83 1187 m 1
 93 1244 l 1
 593 1244 l 1
 586 1187 l 1
 415 1152 l 1
 415 95 l 1
 602 63 l 1
 592 0 l 1
 92 0 l 1x70
 100 58 l 1
 264 101 l 1
 264 1149 l 1
 83 1187 l 1
EndSplineSet
Validated: 1
Colour: ffffff
EndChar

StartChar: L
Encoding: 76 76 22
Width: 1088
VWidth: 0
Flags: W
HStem: 0 75<418 905> 0 58<102 165.003> 1186 58<98 156.907 519.212 593>
VStem: 269 149<96 1148>
LayerCount: 2
Fore
SplineSet
94 0 m 1x70
 102 58 l 1x70
 269 96 l 1
 269 1148 l 1
 89 1186 l 1
 98 1244 l 1
 600 1244 l 1
 593 1186 l 1
 418 1152 l 1
 418 75 l 1
 905 75 l 1xb0
 1010 341 l 1
 1074 331 l 1
 1040 0 l 1
 94 0 l 1x70
EndSplineSet
Validated: 1
Colour: ffffff
EndChar

StartChar: Lslash
Encoding: 321 321 23
Width: 1088
VWidth: 0
Flags: W
HStem: 0 75<418 905> 0 58<102 165.003> 855 20G<565.66 597.684> 1186 58<98 156.907 519.212 593>
VStem: 269 149<96 591 769 1148>
DStem2: 109 590 99 491 0.861346 0.508018<0 138.323 357.091 509.97>
LayerCount: 2
Fore
SplineSet
99 491 m 1x78
 109 590 l 1
 269 683 l 1
 269 1148 l 1
 89 1186 l 1
 98 1244 l 1
 600 1244 l 1
 593 1186 l 1
 418 1152 l 1
 418 769 l 1
 600 875 l 1
 589 780 l 1
 418 679 l 1
 418 75 l 1
 905 75 l 1xb8
 1010 341 l 1
 1074 331 l 1
 1040 0 l 1
 94 0 l 1
 102 58 l 1
 269 96 l 1
 269 591 l 1
 99 491 l 1x78
EndSplineSet
Validated: 1
Colour: ffffff
EndChar

StartChar: M
Encoding: 77 77 24
Width: 1681
VWidth: 0
Flags: W
HStem: 0 54<59 122.38 426.016 498 1172 1235.76 1587.91 1663> 1188 56<129 191.293 1532.9 1605>
DStem2: 227 92 325 86 0.0725187 0.997367<1.12263 976.71> 564 1053 396 1059 0.346474 -0.93806<-63.836 835.815> 851 268 861 55 0.379261 0.92529<0 922.032>
LayerCount: 2
Fore
SplineSet
51 0 m 1
 59 54 l 1
 227 92 l 1
 304 1151 l 1
 120 1188 l 1
 129 1244 l 1
 489 1244 l 1
 564 1053 l 1
 851 268 l 1
 1185 1092 l 1
 1252 1244 l 1
 1612 1244 l 1
 1605 1188 l 1
 1434 1154 l 1
 1488 86 l 1
 1669 60 l 1
 1663 0 l 1
 1164 0 l 1
 1172 54 l 1
 1341 92 l 1
 1284 1087 l 1
 861 55 l 1
 772 41 l 1
 396 1059 l 1
 325 86 l 1
 508 60 l 1
 498 0 l 1
 51 0 l 1
EndSplineSet
Validated: 1
Colour: ffffff
EndChar

StartChar: N
Encoding: 78 78 25
Width: 1402
VWidth: 0
Flags: W
HStem: -24 21G<1046.69 1159.05> 0 63<79 126.246 467.377 521> 1187 57<73 124.012 891 956.762 1258.59 1330>
VStem: 246 101<96 1047> 1067 97<225 1154>
DStem2: 400 1244 347 1047 0.554162 -0.832409<134.614 1217.85>
LayerCount: 2
Fore
SplineSet
63 1188 m 1
 73 1244 l 1
 400 1244 l 1
 1067 225 l 1
 1067 1154 l 1
 882 1187 l 1
 891 1244 l 1
 1341 1244 l 1
 1330 1187 l 1
 1164 1156 l 1
 1164 -3 l 1
 1060 -24 l 1
 347 1047 l 1
 347 90 l 1
 531 63 l 1
 521 0 l 1
 73 0 l 1
 79 58 l 1
 246 96 l 1
 246 1147 l 1
 63 1188 l 1
EndSplineSet
Validated: 1
Colour: ffffff
EndChar

StartChar: O
Encoding: 79 79 26
Width: 1331
VWidth: 0
Flags: W
HStem: -27 85<540.046 886.004> 1197 77<514.474 839.086>
VStem: 111 167<384.992 882.59> 1113 166<369.762 864.183>
LayerCount: 2
Fore
SplineSet
278 678 m 0
 278 346 417 58 708 58 c 0
 1005 58 1113 331 1113 574 c 0
 1113 906 968 1197 681 1197 c 0
 384 1197 278 939 278 678 c 0
111 620 m 0
 111 1005 349 1274 730 1274 c 0
 1082 1274 1279 984 1279 624 c 0
 1279 299 1071 -27 660 -27 c 0
 329 -27 111 263 111 620 c 0
EndSplineSet
Validated: 1
Colour: ffffff
EndChar

StartChar: OE
Encoding: 338 338 27
Width: 1679
VWidth: 0
Flags: W
HStem: -27 82<484.661 901.616> 0 75<945 1452> 594 74<945 1225> 1173 72<945 1426> 1197 77<449.402 763.688>
VStem: 64 165<380.826 898.353> 795 150<75.2071 594 668 1164.52> 1250 67<419 514.66> 1278 73<750.766 797> 1456 66<934 1048.21>
LayerCount: 2
Fore
SplineSet
229 678 m 0xae40
 229 363 360 55 633 55 c 0
 693 55 746 67 795 93 c 1
 795 1139 l 1
 740 1178 679 1197 610 1197 c 0
 355 1197 229 976 229 678 c 0xae40
64 620 m 0
 64 1007 278 1274 657 1274 c 0xaf40
 722 1274 786 1265 839 1245 c 1
 1553 1244 l 1
 1522 925 l 1
 1456 934 l 1
 1426 1173 l 1
 945 1173 l 1
 945 668 l 1
 1238 668 l 1
 1278 797 l 1
 1351 808 l 1x36c0
 1317 419 l 1
 1250 408 l 1
 1225 594 l 1
 945 594 l 1
 945 75 l 1
 1452 75 l 1
 1537 324 l 1
 1600 313 l 1
 1569 0 l 1
 792 0 l 1x7740
 726 -16 656 -27 588 -27 c 0
 260 -27 64 258 64 620 c 0
EndSplineSet
Validated: 1
Colour: ffffff
EndChar

StartChar: Oslash
Encoding: 216 216 28
Width: 1336
VWidth: 0
Flags: W
HStem: -27 85<540.021 892.381> -5 21G<176 306.118> 1197 77<520.466 851.166>
VStem: 118 165<382.164 882.59> 1119 165<369.762 868.734>
DStem2: 176 8 292 -5 0.604258 0.796788<59.7357 163.718 322.492 1294.45 1458.22 1537.42>
LayerCount: 2
Fore
SplineSet
118 620 m 0x78
 118 1005 355 1274 736 1274 c 0
 865 1274 972 1236 1057 1170 c 1
 1105 1233 l 1
 1226 1220 l 1
 1128 1102 l 1
 1230 984 1284 815 1284 624 c 0
 1284 299 1077 -27 666 -27 c 0xb8
 544 -27 438 12 352 80 c 1
 292 -5 l 1
 176 8 l 1
 280 148 l 1
 177 266 118 434 118 620 c 0x78
1022 991 m 1
 422 199 l 1
 493 111 590 58 715 58 c 0
 1012 58 1119 331 1119 574 c 0
 1119 731 1086 879 1022 991 c 1
984 1048 m 1
 913 1140 814 1197 687 1197 c 0
 390 1197 283 939 283 678 c 0
 283 518 317 367 384 255 c 1
 984 1048 l 1
EndSplineSet
Validated: 1
Colour: ffffff
EndChar

StartChar: P
Encoding: 80 80 29
Width: 1120
VWidth: 0
Flags: W
HStem: 0 58<93 154.494 548.418 631> 488 67<484 693.374> 1155 56<98 181.53> 1192 64<407.897 680.783>
VStem: 256 151<96 1129> 866 166<720.719 1037.25>
LayerCount: 2
Fore
SplineSet
85 0 m 1xdc
 93 58 l 1
 256 96 l 1
 256 1129 l 1
 90 1155 l 1
 98 1211 l 1xec
 227 1231 368 1256 539 1256 c 0
 801 1256 1032 1166 1032 893 c 0
 1032 652 805 488 558 488 c 0
 532 488 507 489 484 491 c 1
 469 553 l 1
 522 555 l 2
 763 564 866 687 866 865 c 0
 866 1036 758 1192 513 1192 c 0
 472 1192 407 1186 407 1186 c 1
 407 94 l 1
 642 65 l 1
 631 0 l 1
 85 0 l 1xdc
EndSplineSet
Validated: 1
Colour: ffffff
EndChar

StartChar: Q
Encoding: 81 81 30
Width: 1344
VWidth: 0
Flags: W
HStem: -355 61<1103.31 1245.74> 1193 81<507.608 847.538>
VStem: 111 157<407.289 875.225> 1129 157<383.531 850.027>
LayerCount: 2
Fore
SplineSet
268 670 m 0
 268 368 429 60 760 47 c 1
 1011 103 1129 333 1129 568 c 0
 1129 906 959 1193 684 1193 c 0
 418 1193 268 981 268 670 c 0
111 614 m 0
 111 999 358 1274 737 1274 c 0
 1087 1274 1286 985 1286 629 c 0
 1286 346 1119 61 816 -9 c 1
 902 -199 1012 -263 1252 -294 c 1
 1251 -309 1247 -343 1242 -355 c 1
 1194 -378 1134 -385 1078 -385 c 0
 899 -385 759 -233 733 -21 c 1
 716 -24 682 -27 661 -27 c 0
 340 -27 111 257 111 614 c 0
EndSplineSet
Validated: 1
Colour: ffffff
EndChar

StartChar: R
Encoding: 82 82 31
Width: 1195
VWidth: 0
Flags: W
HStem: -19 21G<1048.5 1135.5> 0 58<114 175.117 547.547 613> 554 74<423 617> 1153 56<120 201.53> 1189 65<426.039 699.307>
VStem: 276 147<96 554 628 1127> 853 158<795.806 1067.72>
LayerCount: 2
Fore
SplineSet
423 628 m 1x2e
 636 628 l 1
 750 669 853 771 853 910 c 0
 853 1082 737 1189 544 1189 c 0
 482 1189 423 1184 423 1184 c 1
 423 628 l 1x2e
105 0 m 1x66
 114 58 l 1
 276 96 l 1
 276 1127 l 1
 110 1153 l 1
 120 1209 l 1x76
 268 1233 412 1254 560 1254 c 0
 818 1254 1011 1166 1011 952 c 0
 1011 820 929 690 730 605 c 1
 730 604 l 1
 916 336 l 2
 1049 145 1098 94 1193 64 c 2
 1234 51 l 1
 1223 -2 l 1
 1180 -17 1154 -19 1117 -19 c 0xae
 980 -19 887 94 798 245 c 2
 617 554 l 1
 423 554 l 1
 423 96 l 1
 623 64 l 1
 613 0 l 1
 105 0 l 1x66
EndSplineSet
Validated: 1
Colour: ffffff
EndChar

StartChar: S
Encoding: 83 83 32
Width: 881
VWidth: 0
Flags: W
HStem: -25 82<298.182 592.553> 869 21G<664 738.824> 1200 70<330.215 564>
VStem: 102 75<295.812 384> 116 136<875.977 1101.54> 664 73<878 998.202> 690 147<169.455 395.67>
LayerCount: 2
Fore
SplineSet
80 119 m 1xea
 102 395 l 1
 177 384 l 1
 210 181 l 1
 251 109 348 57 451 57 c 0
 566 57 690 126 690 274 c 0xf2
 690 554 116 577 116 938 c 0
 116 1151 298 1270 477 1270 c 0
 585 1270 691 1235 764 1165 c 1
 764 1161 737 869 737 869 c 1
 664 878 l 1xec
 638 1096 l 1
 611 1147 528 1200 447 1200 c 0
 341 1200 252 1132 252 1001 c 0
 252 699 837 680 837 331 c 0
 837 122 651 -25 413 -25 c 0
 269 -25 144 40 80 119 c 1xea
EndSplineSet
Validated: 1
Colour: ffffff
EndChar

StartChar: T
Encoding: 84 84 33
Width: 1134
VWidth: 0
Flags: W
HStem: 0 63<333 381.66 781.49 824> 1173 71<180 505 655 993>
VStem: 64 71<923 995.149> 505 150<96 1173> 1020 73<920 1050.25>
LayerCount: 2
Fore
SplineSet
55 1244 m 1
 1127 1244 l 1
 1093 909 l 1
 1020 920 l 1
 993 1173 l 1
 655 1173 l 1
 655 94 l 1
 836 63 l 1
 824 0 l 1
 327 0 l 1
 333 58 l 1
 505 96 l 1
 505 1173 l 1
 180 1173 l 1
 135 912 l 1
 64 923 l 1
 55 1244 l 1
EndSplineSet
Validated: 1
Colour: ffffff
EndChar

StartChar: Tbar
Encoding: 358 358 34
Width: 1134
VWidth: 0
Flags: W
HStem: 0 63<340 388.66 788.49 831> 596 93<190 512 662 986> 1173 71<187 512 662 1000>
VStem: 71 71<923 995.149> 512 150<96 596 689 1173> 1027 73<920 1050.25>
LayerCount: 2
Fore
SplineSet
181 596 m 1
 190 689 l 1
 512 689 l 1
 512 1173 l 1
 187 1173 l 1
 142 912 l 1
 71 923 l 1
 62 1244 l 1
 1134 1244 l 1
 1100 909 l 1
 1027 920 l 1
 1000 1173 l 1
 662 1173 l 1
 662 689 l 1
 992 689 l 1
 986 596 l 1
 662 596 l 1
 662 94 l 1
 843 63 l 1
 831 0 l 1
 334 0 l 1
 340 58 l 1
 512 96 l 1
 512 596 l 1
 181 596 l 1
EndSplineSet
Validated: 1
Colour: ffffff
EndChar

StartChar: Thorn
Encoding: 222 222 35
Width: 889
VWidth: 0
Flags: W
HStem: -0 64<94 131.826 586.535 633> 254 69<482.223 692.751> 953 71<409 683.901> 1187 57<89 158.328 501.996 582>
VStem: 259 150<96 949.991 1021 1154> 868 165<483.543 798.601>
LayerCount: 2
Fore
SplineSet
81 1187 m 1
 89 1244 l 1
 590 1244 l 1
 582 1187 l 1
 409 1156 l 1
 409 1021 l 1
 450 1023 499 1024 540 1024 c 0
 805 1024 1033 933 1033 660 c 0
 1033 416 816 254 569 254 c 0
 542 254 514 256 485 259 c 1
 481 271 471 302 471 322 c 1
 480 322 516 323 524 323 c 0
 765 329 868 454 868 632 c 0
 868 803 756 953 516 953 c 0
 475 953 409 946 409 946 c 1
 409 94 l 1
 644 64 l 1
 633 -0 l 1
 87 -0 l 1
 94 57 l 1
 259 96 l 1
 259 1154 l 1
 81 1187 l 1
EndSplineSet
Validated: 1
Colour: ffffff
EndChar

StartChar: U
Encoding: 85 85 36
Width: 1371
VWidth: 0
Flags: W
HStem: -27 100<560.343 931.753> 1187 57<70 140.5 482.846 561 920 991.934 1285.23 1362>
VStem: 244 148<256.016 1154> 1095 96<241.363 1154>
LayerCount: 2
Fore
SplineSet
61 1187 m 1
 70 1244 l 1
 568 1244 l 1
 561 1187 l 1
 392 1156 l 1
 392 503 l 2
 392 188 540 73 752 73 c 0
 966 73 1095 202 1095 466 c 2
 1096 1154 l 1
 912 1187 l 1
 920 1244 l 1
 1371 1244 l 1
 1362 1187 l 1
 1196 1156 l 1
 1191 503 l 2
 1188 160 1053 -27 711 -27 c 0
 480 -27 244 61 244 465 c 2
 244 1154 l 1
 61 1187 l 1
EndSplineSet
Validated: 1
Colour: ffffff
EndChar

StartChar: Uacute
Encoding: 218 218 37
Width: 1371
VWidth: 0
Flags: W
HStem: -27 100<560.343 931.753> 1187 57<70 140.5 482.846 561 920 991.934 1285.23 1362>
VStem: 244 148<256.016 1154> 1095 96<241.363 1154>
LayerCount: 2
Fore
SplineSet
672 1402 m 1
 800 1732 l 1
 903 1693 l 1
 721 1372 l 1
 672 1402 l 1
61 1187 m 1
 70 1244 l 1
 568 1244 l 1
 561 1187 l 1
 392 1156 l 1
 392 503 l 2
 392 188 540 73 752 73 c 0
 966 73 1095 202 1095 466 c 2
 1096 1154 l 1
 912 1187 l 1
 920 1244 l 1
 1371 1244 l 1
 1362 1187 l 1
 1196 1156 l 1
 1191 503 l 2
 1188 160 1053 -27 711 -27 c 0
 480 -27 244 61 244 465 c 2
 244 1154 l 1
 61 1187 l 1
EndSplineSet
Validated: 1
Colour: ffffff
EndChar

StartChar: Ugrave
Encoding: 217 217 38
Width: 1371
VWidth: 0
Flags: W
HStem: -27 100<560.343 931.753> 1187 57<70 140.5 482.846 561 920 991.934 1285.23 1362>
VStem: 244 148<256.016 1154> 1095 96<241.363 1154>
LayerCount: 2
Fore
SplineSet
535 1701 m 1
 639 1738 l 1
 772 1403 l 1
 721 1372 l 1
 535 1701 l 1
61 1187 m 1
 70 1244 l 1
 568 1244 l 1
 561 1187 l 1
 392 1156 l 1
 392 503 l 2
 392 188 540 73 752 73 c 0
 966 73 1095 202 1095 466 c 2
 1096 1154 l 1
 912 1187 l 1
 920 1244 l 1
 1371 1244 l 1
 1362 1187 l 1
 1196 1156 l 1
 1191 503 l 2
 1188 160 1053 -27 711 -27 c 0
 480 -27 244 61 244 465 c 2
 244 1154 l 1
 61 1187 l 1
EndSplineSet
Validated: 1
Colour: ffffff
EndChar

StartChar: Umacron
Encoding: 362 362 39
Width: 1371
VWidth: 0
Flags: W
HStem: -27 100<560.343 931.753> 1187 57<70 140.5 482.846 561 920 991.934 1285.23 1362> 1373 76<505 936>
VStem: 244 148<256.016 1154> 1095 96<241.363 1154>
LayerCount: 2
Fore
SplineSet
494 1373 m 1
 505 1449 l 1
 946 1449 l 1
 936 1373 l 1
 494 1373 l 1
61 1187 m 1
 70 1244 l 1
 568 1244 l 1
 561 1187 l 1
 392 1156 l 1
 392 503 l 2
 392 188 540 73 752 73 c 0
 966 73 1095 202 1095 466 c 2
 1096 1154 l 1
 912 1187 l 1
 920 1244 l 1
 1371 1244 l 1
 1362 1187 l 1
 1196 1156 l 1
 1191 503 l 2
 1188 160 1053 -27 711 -27 c 0
 480 -27 244 61 244 465 c 2
 244 1154 l 1
 61 1187 l 1
EndSplineSet
Validated: 1
Colour: ffffff
EndChar

StartChar: V
Encoding: 86 86 40
Width: 1258
VWidth: 0
Flags: W
HStem: -25 21G<593.931 698.143> 1188 56<45 96.5387 444.288 520 850 917.671 1208.76 1267>
DStem2: 351 1156 185 1152 0.333239 -0.942842<0 1005.67> 681 206 703 -4 0.350415 0.936594<0 1007.96>
LayerCount: 2
Fore
SplineSet
38 1188 m 1
 45 1244 l 1
 527 1244 l 1
 520 1188 l 1
 351 1156 l 1
 681 206 l 1
 1029 1152 l 1
 844 1188 l 1
 850 1244 l 1
 1272 1244 l 1
 1267 1188 l 1
 1137 1156 l 1
 703 -4 l 1
 601 -25 l 1
 185 1152 l 1
 38 1188 l 1
EndSplineSet
Validated: 1
Colour: ffffff
EndChar

StartChar: W
Encoding: 87 87 41
Width: 1873
VWidth: 0
Flags: W
HStem: -24 20G<499.376 622 1171.68 1280.81> 1188 56<51 89.1719 432.007 496 1377 1430.35 1742.46 1786>
DStem2: 330 1156 174 1153 0.270722 -0.962658<0 967.705> 594 225 622 -4 0.285092 0.9585<0 805.7> 995 1214 912 971 0.257119 -0.96638<213.489 1016.41> 1261 233 1286 -4 0.311794 0.95015<0 963.281>
LayerCount: 2
Fore
SplineSet
43 1188 m 1
 51 1244 l 1
 505 1244 l 1
 496 1190 l 1
 330 1156 l 1
 594 225 l 1
 884 1199 l 1
 995 1214 l 1
 1261 233 l 1
 1553 1151 l 1
 1369 1189 l 1
 1377 1244 l 1
 1794 1244 l 1
 1786 1188 l 1
 1666 1154 l 1
 1286 -4 l 1
 1177 -25 l 1
 912 971 l 1
 622 -4 l 1
 505 -24 l 1
 174 1153 l 1
 43 1188 l 1
EndSplineSet
Validated: 1
Colour: ffffff
EndChar

StartChar: X
Encoding: 88 88 42
Width: 1195
VWidth: 0
Flags: W
HStem: 0 56<7 39.676 366.037 401 727 771.483 1147.65 1183> 1189 55<31 79.1152 429.556 490 775 838.102 1112.79 1173>
DStem2: 133 92 247 89 0.598802 0.800897<65.8607 634.475 801.983 1332.79> 334 1152 160 1154 0.565212 -0.824946<0 513.948 635.659 1189.79>
LayerCount: 2
Fore
SplineSet
-2 0 m 1
 7 56 l 1
 133 92 l 1
 524 620 l 1
 160 1154 l 1
 23 1189 l 1
 31 1244 l 1
 497 1244 l 1
 490 1189 l 1
 334 1152 l 1
 623 727 l 1
 937 1155 l 1
 766 1187 l 1
 775 1244 l 1
 1177 1244 l 1
 1173 1188 l 1
 1047 1159 l 1
 679 654 l 1
 1057 84 l 1
 1193 58 l 1
 1183 0 l 1
 718 0 l 1
 727 51 l 1
 889 90 l 1
 580 550 l 1
 247 89 l 1
 413 62 l 1
 401 0 l 1
 -2 0 l 1
EndSplineSet
Validated: 1
Colour: ffffff
EndChar

StartChar: Y
Encoding: 89 89 43
Width: 1113
VWidth: 0
Flags: W
HStem: 0 63<322 367.831 748.65 797> 1188 56<0 46.3529 381.976 455 697 764.273 1051.1 1108>
VStem: 484 150<96 497>
DStem2: 292 1156 130 1152 0.475461 -0.879737<0 625.471> 588 605 634 509 0.472637 0.881257<0 617.695>
LayerCount: 2
Fore
SplineSet
-9 1188 m 1
 -0 1244 l 1
 463 1244 l 1
 455 1188 l 1
 292 1156 l 1
 588 605 l 1
 875 1152 l 1
 691 1188 l 1
 697 1244 l 1
 1114 1244 l 1
 1108 1188 l 1
 981 1156 l 1
 634 509 l 1
 634 91 l 1
 806 63 l 1
 797 0 l 1
 314 0 l 1
 322 58 l 1
 484 96 l 1
 484 497 l 1
 130 1152 l 1
 -9 1188 l 1
EndSplineSet
Validated: 1
Colour: ffffff
EndChar

StartChar: Yacute
Encoding: 221 221 44
Width: 1113
VWidth: 0
Flags: W
HStem: 0 63<322 367.831 748.65 797> 1188 56<0 46.3529 381.976 455 697 764.273 1051.1 1108>
VStem: 484 150<96 497>
DStem2: 292 1156 130 1152 0.475461 -0.879737<0 625.471> 588 605 634 509 0.472637 0.881257<0 617.695>
LayerCount: 2
Fore
SplineSet
529 1402 m 1
 657 1732 l 1
 760 1693 l 1
 578 1372 l 1
 529 1402 l 1
-9 1188 m 1
 0 1244 l 1
 463 1244 l 1
 455 1188 l 1
 292 1156 l 1
 588 605 l 1
 875 1152 l 1
 691 1188 l 1
 697 1244 l 1
 1114 1244 l 1
 1108 1188 l 1
 981 1156 l 1
 634 509 l 1
 634 91 l 1
 806 63 l 1
 797 0 l 1
 314 0 l 1
 322 58 l 1
 484 96 l 1
 484 497 l 1
 130 1152 l 1
 -9 1188 l 1
EndSplineSet
Validated: 1
Colour: ffffff
EndChar

StartChar: Ycircumflex
Encoding: 374 374 45
Width: 1113
VWidth: 0
Flags: W
HStem: 0 63<322 367.831 748.65 797> 1188 56<0 46.3529 381.976 455 697 764.273 1051.1 1108>
VStem: 484 150<96 497>
DStem2: 292 1156 130 1152 0.475461 -0.879737<0 625.471> 588 605 634 509 0.472637 0.881257<0 617.695>
LayerCount: 2
Fore
SplineSet
364 1402 m 1
 532 1582 l 1
 587 1596 l 1
 765 1410 l 1
 725 1373 l 1
 552 1495 l 1
 543 1495 l 1
 394 1372 l 1
 364 1402 l 1
-9 1188 m 1
 0 1244 l 1
 463 1244 l 1
 455 1188 l 1
 292 1156 l 1
 588 605 l 1
 875 1152 l 1
 691 1188 l 1
 697 1244 l 1
 1114 1244 l 1
 1108 1188 l 1
 981 1156 l 1
 634 509 l 1
 634 91 l 1
 806 63 l 1
 797 0 l 1
 314 0 l 1
 322 58 l 1
 484 96 l 1
 484 497 l 1
 130 1152 l 1
 -9 1188 l 1
EndSplineSet
Validated: 1
Colour: ffffff
EndChar

StartChar: Ydieresis
Encoding: 376 376 46
Width: 1113
VWidth: 0
Flags: W
HStem: 0 63<322 367.831 748.65 797> 1188 56<0 46.3529 381.976 455 697 764.273 1051.1 1108> 1373 159<366.481 494.645 634.481 763.259>
VStem: 360 141<1377.97 1526.86> 484 150<96 497> 628 142<1378.64 1526.86>
DStem2: 292 1156 130 1152 0.475461 -0.879737<0 625.471> 588 605 634 509 0.472637 0.881257<0 617.695>
LayerCount: 2
Fore
SplineSet
628 1455 m 0xe4
 628 1504 657 1532 697 1532 c 0
 738 1532 770 1504 770 1455 c 0
 770 1404 740 1373 697 1373 c 0
 655 1373 628 1405 628 1455 c 0xe4
360 1455 m 0xf0
 360 1504 389 1532 429 1532 c 0
 470 1532 501 1504 501 1455 c 0
 501 1404 473 1373 430 1373 c 0
 388 1373 360 1405 360 1455 c 0xf0
-9 1188 m 1
 0 1244 l 1
 463 1244 l 1
 455 1188 l 1
 292 1156 l 1
 588 605 l 1
 875 1152 l 1
 691 1188 l 1
 697 1244 l 1
 1114 1244 l 1
 1108 1188 l 1
 981 1156 l 1
 634 509 l 1
 634 91 l 1
 806 63 l 1
 797 0 l 1
 314 0 l 1
 322 58 l 1
 484 96 l 1
 484 497 l 1xe8
 130 1152 l 1
 -9 1188 l 1
EndSplineSet
Validated: 1
Colour: ffffff
EndChar

StartChar: Z
Encoding: 90 90 47
Width: 1051
VWidth: 0
Flags: W
HStem: 0 79<219 837> 1170 74<232 819>
VStem: 90 64<918 952.073>
DStem2: 45 71 219 79 0.577752 0.816212<107.059 1344.2>
LayerCount: 2
Fore
SplineSet
45 71 m 1
 819 1170 l 1
 232 1170 l 1
 154 903 l 1
 90 918 l 1
 99 1244 l 1
 1002 1244 l 1
 1004 1188 l 1
 219 79 l 1
 837 79 l 1
 952 347 l 1
 1021 336 l 1
 973 0 l 1
 52 0 l 1
 45 71 l 1
EndSplineSet
Validated: 1
Colour: ffffff
EndChar

StartChar: a
Encoding: 97 97 48
Width: 847
VWidth: 0
Flags: W
HStem: -25 96<264.074 458.73> 2 60<781 830> 430 51<439.732 554> 816 73<288.287 481.225>
VStem: 93 137<104.121 308.921> 127 110<637.42 770.537> 554 127<136.073 430 476.149 745.933>
LayerCount: 2
Fore
SplineSet
230 207 m 0xba
 230 141 275 71 356 71 c 0
 439 71 514 128 554 186 c 1
 554 430 l 1
 345 394 230 334 230 207 c 0xba
93 169 m 0
 93 324 225 451 554 481 c 1
 554 529 l 2
 554 701 517 816 371 816 c 0
 268 816 252 723 237 601 c 1
 189 601 127 613 127 685 c 0
 127 791 306 889 443 889 c 0
 610 889 681 792 681 581 c 2
 681 230 l 2
 681 138 691 88 781 73 c 1
 839 62 l 1
 830 2 l 1x76
 796 -6 761 -18 711 -18 c 0
 613 -18 571 50 571 116 c 2
 571 131 l 1
 563 131 l 1
 539 74 447 -25 295 -25 c 0
 189 -25 93 46 93 169 c 0
EndSplineSet
Validated: 1
Colour: ffffff
EndChar

StartChar: acute
Encoding: 180 180 49
Width: 567
VWidth: 0
Flags: W
HStem: 1346 360
VStem: 199 231
LayerCount: 2
Fore
SplineSet
199 1376 m 1
 327 1706 l 1
 430 1667 l 1
 248 1346 l 1
 199 1376 l 1
EndSplineSet
Validated: 1
Colour: ffffff
EndChar

StartChar: ae
Encoding: 230 230 50
Width: 1248
VWidth: 0
Flags: W
HStem: -26 88<257.956 457.265 828.138 1093.56> 809 77<283.183 494.437 781.979 975.681>
VStem: 92 136<90.2573 301.677> 130 108<643.483 768.188> 554 124<224.987 416 492 692.805> 1038 141<527.856 751.866>
DStem2: 554 476 554 416 0.993807 0.111122<-222.628 -6.66731 125.01 478.045>
LayerCount: 2
Fore
SplineSet
678 492 m 1xcc
 1028 529 l 1
 1034 548 1038 595 1038 611 c 0
 1038 729 974 809 878 809 c 0
 773 809 683 693 678 492 c 1xcc
228 200 m 0xec
 228 119 274 62 355 62 c 0
 446 62 554 144 554 255 c 2
 554 416 l 1
 329 382 228 327 228 200 c 0xec
92 163 m 0
 92 318 207 425 554 476 c 1
 554 539 l 2
 554 711 518 813 375 813 c 0
 272 813 253 731 238 609 c 1
 190 609 130 621 130 693 c 0xdc
 130 799 304 888 443 888 c 0
 548 888 623 844 651 748 c 1
 727 846 832 886 928 886 c 0
 1074 886 1179 789 1179 578 c 0
 1179 547 1170 483 1161 448 c 1
 678 428 l 1
 682 240 766 70 964 70 c 0
 1047 70 1110 95 1185 146 c 1
 1204 104 l 1
 1136 25 1028 -30 895 -30 c 0
 792 -30 631 44 592 172 c 1
 562 74 443 -26 293 -26 c 0
 187 -26 92 40 92 163 c 0
EndSplineSet
Validated: 1
Colour: ffffff
EndChar

StartChar: agrave
Encoding: 224 224 51
Width: 847
VWidth: 0
Flags: W
HStem: -25 96<264.074 458.73> 2 60<781 830> 430 51<439.732 554> 816 73<288.287 481.225>
VStem: 93 137<104.121 308.921> 127 110<637.42 770.537> 554 127<136.073 430 476.149 745.933>
LayerCount: 2
Fore
SplineSet
258 1319 m 1x32
 362 1356 l 1
 495 1021 l 1
 444 990 l 1
 258 1319 l 1x32
230 207 m 0xba
 230 141 275 71 356 71 c 0
 439 71 514 128 554 186 c 1
 554 430 l 1
 345 394 230 334 230 207 c 0xba
93 169 m 0
 93 324 225 451 554 481 c 1
 554 529 l 2
 554 701 517 816 371 816 c 0
 268 816 252 723 237 601 c 1
 189 601 127 613 127 685 c 0
 127 791 306 889 443 889 c 0
 610 889 681 792 681 581 c 2
 681 230 l 2
 681 138 691 88 781 73 c 1
 839 62 l 1
 830 2 l 1x76
 796 -6 761 -18 711 -18 c 0
 613 -18 571 50 571 116 c 2
 571 131 l 1
 563 131 l 1
 539 74 447 -25 295 -25 c 0
 189 -25 93 46 93 169 c 0
EndSplineSet
Validated: 1
Colour: ffffff
EndChar

StartChar: ampersand
Encoding: 38 38 52
Width: 1282
VWidth: 0
Flags: W
HStem: -20 106<295.004 555.716> 757 55<813 867.831 1158.74 1230> 1200 72<391.942 576.615>
VStem: 56 150<178.798 443.519> 211 120<888.616 1126.14> 645 135<880.747 1140.53>
DStem2: 483 752 353 687 0.665675 -0.746242<-268.548 -38.0319 80.6404 448.362 577.5 925.827> 781 417 842 356 0.515367 0.85697<0 353.974>
LayerCount: 2
Fore
SplineSet
331 1025 m 0
 331 930 413 824 483 752 c 1
 576 819 645 884 645 994 c 0
 645 1106 586 1200 483 1200 c 0
 389 1200 331 1115 331 1025 c 0
206 337 m 0
 206 201 287 86 424 86 c 0
 547 86 641 181 703 286 c 1
 405 626 l 1
 395 627 l 1
 296 555 206 465 206 337 c 0
56 278 m 0
 56 450 183 577 353 687 c 1
 286 757 211 865 211 975 c 0
 211 1131 347 1272 507 1272 c 0
 674 1272 780 1184 780 1016 c 0
 780 894 680 795 538 700 c 1
 538 693 l 1
 781 417 l 1
 964 720 l 1
 807 757 l 1
 813 812 l 1
 1238 812 l 1
 1230 757 l 1
 1061 723 l 1
 842 356 l 1
 994 176 1111 88 1186 64 c 2
 1225 52 l 1
 1215 -2 l 1
 1175 -16 1149 -20 1109 -20 c 0
 1005 -20 913 60 857 122 c 2
 762 227 l 1
 673 97 565 -20 372 -20 c 0
 180 -20 56 105 56 278 c 0
EndSplineSet
Validated: 1
Colour: ffffff
EndChar

StartChar: asciicircum
Encoding: 94 94 53
Width: 733
VWidth: 0
Flags: W
HStem: 792 459
VStem: 49 639
LayerCount: 2
Fore
SplineSet
49 826 m 1
 338 1238 l 1
 394 1251 l 1
 688 824 l 1
 640 792 l 1
 363 1098 l 1
 353 1098 l 1
 91 797 l 1
 49 826 l 1
EndSplineSet
Validated: 1
Colour: ffffff
EndChar

StartChar: asciitilde
Encoding: 126 126 54
Width: 947
VWidth: 0
Flags: W
HStem: 404 220
VStem: 83 47<413.035 437.744> 814 55<587.094 623>
DStem2: 298 613 248 493 0.984534 -0.175193<-97.1906 477.84>
LayerCount: 2
Fore
SplineSet
83 417 m 1
 83 417 144 644 298 613 c 1
 697 542 l 1
 766 527 814 624 814 624 c 1
 869 623 l 1
 869 623 804 390 647 422 c 1
 248 493 l 1
 182 508 130 404 130 404 c 1
 83 417 l 1
EndSplineSet
Validated: 33
Colour: ffffff
EndChar

StartChar: asterisk
Encoding: 42 42 55
Width: 593
VWidth: 0
Flags: W
HStem: 990 116<705.74 742.337>
VStem: 351 123<1153.29 1281.28>
LayerCount: 2
Fore
SplineSet
351 1291 m 1
 474 1280 l 1
 449 981 l 1
 739 1106 l 1
 766 990 l 1
 475 923 l 1
 687 686 l 1
 582 623 l 1
 426 882 l 1
 265 604 l 1
 172 685 l 1
 370 912 l 1
 60 978 l 1
 108 1092 l 1
 384 974 l 1
 351 1291 l 1
EndSplineSet
Validated: 1
Colour: ffffff
EndChar

StartChar: at
Encoding: 64 64 56
Width: 1362
VWidth: 0
Flags: W
HStem: -227 78<509.646 921.141> 60 100<537.785 670.952 801.5 1003.23> 714 76<629.95 816.98> 972 73<568.515 929.769>
VStem: 88 122<130.424 582.433> 389 123<176.447 537.685> 762 123<152.345 187> 1196 108<366.751 735.635>
DStem2: 764 248 898 385 0.117854 0.993031<-17.8361 460.264>
LayerCount: 2
Fore
SplineSet
512 369 m 0
 512 218 545 160 596 160 c 0
 649 160 729 208 764 248 c 1
 818 703 l 1
 795 709 747 714 716 714 c 0
 596 714 512 550 512 369 c 0
88 329 m 0
 88 708 365 1045 789 1045 c 0
 1070 1045 1304 856 1304 582 c 0
 1304 311 1107 69 833 69 c 0
 770 69 759 123 762 187 c 1
 753 187 l 1
 713 127 629 60 553 60 c 0
 454 60 389 154 389 325 c 0
 389 610 601 790 770 790 c 0
 823 790 864 786 922 773 c 1
 925 772 l 1
 940 752 l 1
 898 385 l 2
 893 335 885 249 885 214 c 0
 885 165 890 152 910 152 c 0
 1062 152 1196 314 1196 545 c 0
 1196 811 988 972 752 972 c 0
 432 972 210 693 210 355 c 0
 210 52 402 -149 729 -149 c 0
 879 -149 1041 -71 1088 -31 c 1
 1117 -82 l 1
 1029 -140 910 -227 692 -227 c 0
 387 -227 88 -55 88 329 c 0
EndSplineSet
Validated: 33
Colour: ffffff
EndChar

StartChar: b
Encoding: 98 98 57
Width: 961
VWidth: 0
Flags: W
HStem: -24 86<328.317 627.367> 785 101<429.396 649.302> 1191 54<27 70.224> 1245 20G<27 300>
VStem: 171 129<95.789 709.99 733 1149> 763 142<247.114 650.678>
LayerCount: 2
Fore
SplineSet
300 126 m 1xcc
 341 85 421 62 508 62 c 0
 633 62 763 182 763 406 c 0
 763 615 700 785 520 785 c 0
 455 785 379 752 300 668 c 1
 300 126 l 1xcc
18 1191 m 1xec
 27 1245 l 1xec
 285 1265 l 1xdc
 300 1249 l 1
 300 837 l 1
 286 733 l 1
 298 733 l 1
 377 822 474 886 587 886 c 0
 780 886 905 718 905 466 c 0
 905 149 680 -24 420 -24 c 0
 330 -24 247 0 171 49 c 1
 171 1149 l 1
 18 1191 l 1xec
EndSplineSet
Validated: 1
Colour: ffffff
EndChar

StartChar: backslash
Encoding: 92 92 58
Width: 611
VWidth: 0
Flags: W
HStem: 1239 20G<37.7495 140>
VStem: 32 570
DStem2: 140 1254 32 1259 0.276287 -0.961075<0 1652.01>
LayerCount: 2
Fore
SplineSet
32 1259 m 1
 140 1254 l 1
 602 -367 l 1
 498 -362 l 1
 32 1259 l 1
EndSplineSet
Validated: 1
Colour: ffffff
EndChar

StartChar: bar
Encoding: 124 124 59
Width: 448
VWidth: 0
Flags: W
HStem: -380 21G<191 287> 1241 20G<191 287>
VStem: 191 96<-367 1248>
LayerCount: 2
Fore
SplineSet
191 -367 m 1
 191 1261 l 1
 287 1248 l 1
 287 -380 l 1
 191 -367 l 1
EndSplineSet
Validated: 1
Colour: ffffff
EndChar

StartChar: braceright
Encoding: 125 125 60
Width: 607
VWidth: 0
Flags: W
HStem: -378 75<40 127> 402 74<510 559> 1182 74<45 139>
VStem: 32 527
LayerCount: 2
Fore
SplineSet
32 -378 m 1
 40 -303 l 1
 127 -297 l 1
 333 -286 92 369 406 438 c 1
 406 443 l 1
 92 520 336 1160 139 1175 c 2
 45 1182 l 1
 37 1256 l 1
 139 1256 l 2
 548 1256 213 527 510 484 c 1
 559 476 l 1
 559 402 l 1
 507 395 l 2
 214 355 550 -378 135 -378 c 2
 32 -378 l 1
EndSplineSet
Validated: 1
Colour: ffffff
EndChar

StartChar: bracketright
Encoding: 93 93 61
Width: 476
VWidth: 0
Flags: W
HStem: -375 69<32 193.882> 1185 71<34 186.427>
VStem: 261 131<-286 1164>
LayerCount: 2
Fore
SplineSet
24 -306 m 1
 261 -286 l 1
 261 1164 l 1
 26 1185 l 1
 34 1256 l 1
 391 1256 l 1
 392 -375 l 1
 32 -375 l 1
 24 -306 l 1
EndSplineSet
Validated: 1
Colour: ffffff
EndChar

StartChar: breve
Encoding: 728 728 62
Width: 596
VWidth: 0
Flags: W
HStem: 1374 93<188.574 399.826>
VStem: 105 30<1557.84 1566.38>
LayerCount: 2
Fore
SplineSet
105 1553 m 1
 135 1581 l 1
 159 1534 213 1467 295 1467 c 0
 379 1467 426 1533 454 1583 c 1
 488 1558 l 1
 458 1470 404 1374 295 1374 c 0
 177 1374 127 1466 105 1553 c 1
EndSplineSet
Validated: 1
Colour: ffffff
EndChar

StartChar: brokenbar
Encoding: 166 166 63
Width: 449
VWidth: 0
Flags: W
HStem: -380 21G<193 288> 1237 20G<193 287>
VStem: 193 95<-370 411 537 1248>
LayerCount: 2
Fore
SplineSet
193 537 m 1
 193 1257 l 1
 287 1248 l 1
 285 529 l 1
 193 537 l 1
193 -370 m 1
 193 419 l 1
 288 411 l 1
 288 -380 l 1
 193 -370 l 1
EndSplineSet
Validated: 1
Colour: ffffff
EndChar

StartChar: c
Encoding: 99 99 64
Width: 779
VWidth: 0
Flags: W
HStem: -30 99<382.378 648.727> 810 78<336.789 542.606>
VStem: 91 140<246.581 637.119> 627 95<672.488 722.306>
LayerCount: 2
Fore
SplineSet
91 405 m 0
 91 702 274 888 491 888 c 0
 659 888 722 805 722 726 c 0
 722 673 693 638 627 627 c 1
 590 729 539 810 443 810 c 0
 324 810 231 692 231 480 c 0
 231 247 339 69 523 69 c 0
 622 69 694 109 742 148 c 1
 763 102 l 1
 712 33 586 -30 457 -30 c 0
 226 -30 91 165 91 405 c 0
EndSplineSet
Validated: 1
Colour: ffffff
EndChar

StartChar: caron
Encoding: 711 711 65
Width: 620
VWidth: 0
Flags: W
HStem: 1357 228
VStem: 108 408
DStem2: 176 1585 108 1530 0.719055 -0.694953<0 221.304> 343 1429 343 1371 0.688959 0.724801<0 201.837>
LayerCount: 2
Fore
SplineSet
108 1530 m 1
 176 1585 l 1
 333 1429 l 1
 343 1429 l 1
 475 1582 l 1
 516 1553 l 1
 343 1371 l 1
 287 1357 l 1
 108 1530 l 1
EndSplineSet
Validated: 1
Colour: ffffff
EndChar

StartChar: cdotaccent
Encoding: 267 267 66
Width: 779
VWidth: 0
Flags: W
HStem: -30 99<382.378 648.727> 810 78<336.789 542.606> 983 208<419.654 563.027>
VStem: 91 140<246.581 637.119> 406 170<993.953 1179.83> 627 95<672.488 722.306>
LayerCount: 2
Fore
SplineSet
406 1089 m 0
 406 1150 439 1191 490 1191 c 0
 541 1191 576 1151 576 1089 c 0
 576 1025 544 983 490 983 c 0
 437 983 406 1027 406 1089 c 0
91 405 m 0
 91 702 274 888 491 888 c 0
 659 888 722 805 722 726 c 0
 722 673 693 638 627 627 c 1
 590 729 539 810 443 810 c 0
 324 810 231 692 231 480 c 0
 231 247 339 69 523 69 c 0
 622 69 694 109 742 148 c 1
 763 102 l 1
 712 33 586 -30 457 -30 c 0
 226 -30 91 165 91 405 c 0
EndSplineSet
Validated: 1
Colour: ffffff
EndChar

StartChar: cedilla
Encoding: 184 184 67
Width: 361
VWidth: 0
Flags: W
HStem: -390 51<87.5024 123.969>
VStem: 179 113<-308.064 -163.321>
LayerCount: 2
Fore
SplineSet
76 -339 m 1
 134 -319 179 -278 179 -248 c 0
 179 -198 135 -163 99 -128 c 1
 190 3 l 1
 257 3 l 1
 203 -76 l 1
 240 -109 292 -160 292 -227 c 0
 292 -306 209 -355 92 -390 c 1
 76 -339 l 1
EndSplineSet
Validated: 1
Colour: ffffff
EndChar

StartChar: cent
Encoding: 162 162 68
Width: 803
VWidth: 0
Flags: HW
HStem: -48 20G<407.075 416> 0 69<412 481> 843 41<407 476.863> 920 232<405.172 502>
VStem: 87 140<251.896 649.465> 386 128<-251.904 -232.335 1093.11 1135.49> 409 76<-100.147 -29 920 1004.29> 622 95<705.488 755.306>
LayerCount: 2
Fore
SplineSet
375 1135 m 1xf9
 502 1152 l 1
 480 920 l 1
 454 919 429 915 404 909 c 1
 375 1135 l 1xf9
404 909 m 1
 225 863 87 670 87 412 c 0
 87 188 210 -21 414 -45 c 1
 412 0 l 1
 481 0 l 1
 485 -29 l 1xfb
 602 -20 711 39 758 102 c 1
 737 148 l 1
 689 109 617 69 518 69 c 0
 334 69 227 253 227 486 c 0
 227 698 320 843 439 843 c 0
 535 843 585 762 622 660 c 1
 688 671 717 706 717 759 c 0
 717 838 655 920 487 920 c 0
 485 920 482 920 480 920 c 1
 477 884 l 1
 407 884 l 1
 404 909 l 1
485 -29 m 1
 514 -250 l 1
 386 -267 l 1xfd
 409 -28 l 1
 423 -30 438 -30 453 -30 c 0
 464 -30 474 -30 485 -29 c 1
EndSplineSet
Colour: ffffff
EndChar

StartChar: circumflex
Encoding: 710 710 69
Width: 615
VWidth: 0
Flags: W
HStem: 1359 223
VStem: 105 401
LayerCount: 2
Fore
SplineSet
105 1388 m 1
 273 1568 l 1
 328 1582 l 1
 506 1396 l 1
 466 1359 l 1
 293 1481 l 1
 284 1481 l 1
 135 1358 l 1
 105 1388 l 1
EndSplineSet
Validated: 1
Colour: ffffff
EndChar

StartChar: colon
Encoding: 58 58 70
Width: 410
VWidth: 0
Flags: W
HStem: 315 1<200.61 216.957>
VStem: 120 2<408.668 440.861> 296 2<408.714 440.476>
LayerCount: 2
Fore
SplineSet
209 527 m 2
 210 527 l 2
 261 527 298 486 298 424 c 0
 298 359 264 315 210 315 c 0
 190 315 174 321 160 332 c 1
 174 322 190 316 209 316 c 0
 263 316 296 361 296 426 c 0
 296 488 259 526 209 527 c 2
209 527 m 2
 208 527 l 2
 156 527 120 487 120 426 c 0
 120 385 135 351 160 332 c 1
 136 351 122 384 122 425 c 0
 122 487 158 526 209 527 c 2
EndSplineSet
Validated: 5
Colour: ffffff
EndChar

StartChar: comma
Encoding: 44 44 71
Width: 397
VWidth: 0
Flags: W
HStem: -298 58<67.5509 114.036> 74 144<103.416 207.966>
VStem: 234 118<-143.342 48.8825>
LayerCount: 2
Fore
SplineSet
54 -240 m 1
 191 -195 234 -123 234 -50 c 0
 234 21 186 74 122 74 c 0
 113 74 102 73 93 71 c 1
 88 86 85 96 85 112 c 0
 85 180 139 218 193 218 c 0
 266 218 352 154 352 9 c 0
 352 -85 308 -230 72 -298 c 1
 54 -240 l 1
EndSplineSet
Validated: 1
Colour: ffffff
EndChar

StartChar: commaaccent
Encoding: 806 806 72
Width: 573
VWidth: 0
Flags: W
HStem: -390 45<15.5842 59.091> -160 75<58.8223 94.8574>
VStem: 114 93<-313.873 -177.127>
LayerCount: 2
Fore
SplineSet
4 -345 m 1
 79 -327 114 -289 114 -244 c 0
 114 -195 60 -163 21 -160 c 1
 25 -124 58 -85 105 -85 c 0
 153 -85 207 -120 207 -204 c 0
 207 -262 166 -359 21 -390 c 1
 4 -345 l 1
EndSplineSet
Validated: 1
Colour: ffffff
EndChar

StartChar: copyright
Encoding: 169 169 73
Width: 1378
VWidth: 0
Flags: W
HStem: -21 83<486.898 888.405> 264 83<613.804 851.283> 965 65<582.398 754.116> 1222 79<504.342 886.821>
VStem: 72 95<399.012 877.307> 377 117<484.146 838.471> 825 79<847.697 895.392> 1224 94<403.412 874.429>
LayerCount: 2
Fore
SplineSet
167 644 m 0
 167 308 382 62 686 62 c 0
 990 62 1224 302 1224 626 c 0
 1224 965 1015 1222 688 1222 c 0
 388 1222 167 967 167 644 c 0
72 633 m 0
 72 1023 349 1301 687 1301 c 0
 1074 1301 1318 1025 1318 636 c 0
 1318 262 1052 -21 677 -21 c 0
 311 -21 72 251 72 633 c 0
377 627 m 0
 377 875 530 1030 711 1030 c 0
 851 1030 904 961 904 895 c 0
 904 851 880 822 825 813 c 1
 794 898 751 965 671 965 c 0
 572 965 494 867 494 690 c 0
 494 495 584 347 738 347 c 0
 821 347 881 380 921 413 c 1
 938 374 l 1
 895 316 791 264 683 264 c 0
 490 264 377 427 377 627 c 0
EndSplineSet
Validated: 1
Colour: ffffff
EndChar

StartChar: currency
Encoding: 164 164 74
Width: 769
VWidth: 0
Flags: W
HStem: 218 83<275.903 502.971> 685 85<275.214 503.169>
VStem: 127 90<357.942 630.058> 564 89<359.698 624.394>
LayerCount: 2
Fore
SplineSet
217 495 m 0
 217 379 285 301 387 301 c 0
 492 301 564 377 564 488 c 0
 564 607 493 685 386 685 c 0
 284 685 217 608 217 495 c 0
83 723 m 1
 151 789 l 1
 229 701 l 1
 272 737 341 770 390 770 c 0
 444 770 517 740 557 710 c 1
 634 790 l 1
 693 720 l 1
 609 646 l 1
 630 609 653 539 653 492 c 0
 653 441 629 371 602 334 c 1
 695 248 l 1
 626 184 l 1
 547 274 l 1
 501 246 430 218 383 218 c 0
 343 218 281 243 240 268 c 1
 163 179 l 1
 96 247 l 1
 180 325 l 1
 153 366 127 437 127 490 c 0
 127 536 150 602 174 638 c 1
 83 723 l 1
EndSplineSet
Validated: 1
Colour: ffffff
EndChar

StartChar: d
Encoding: 100 100 75
Width: 997
VWidth: 0
Flags: W
HStem: -21 98<344.87 582.548> 810 79<358.455 605.779> 1194 53<553 594.676> 1249 20G<576.455 826>
VStem: 92 138<214.816 608.83> 710 116<90.602 131 158.142 723.451 841 1151>
LayerCount: 2
Fore
SplineSet
230 452 m 0
 230 217 319 77 474 77 c 0
 558 77 657 135 700 193 c 1
 700 685 l 1
 644 766 550 810 469 810 c 0
 325 810 230 674 230 452 c 0
92 393 m 0
 92 692 306 889 518 889 c 0
 584 889 669 866 702 841 c 1
 710 841 l 1
 696 972 l 1
 696 1151 l 1
 544 1194 l 1
 553 1247 l 1
 811 1269 l 1
 826 1252 l 1
 826 222 l 2
 826 91 874 81 925 70 c 2
 978 58 l 1
 969 -2 l 1
 929 -14 902 -22 848 -22 c 0
 752 -22 710 42 710 124 c 2
 710 131 l 1
 700 131 l 1
 644 54 550 -21 411 -21 c 0
 233 -21 92 122 92 393 c 0
EndSplineSet
Validated: 1
Colour: ffffff
EndChar

StartChar: dagger
Encoding: 8224 8224 76
Width: 847
VWidth: 0
Flags: W
HStem: 723 96<86 383 477 777> 1236 20G<375.36 488>
VStem: 368 125<-351 614.536> 383 94<-249.536 728 811 1244>
LayerCount: 2
Fore
SplineSet
77 723 m 1xd0
 86 819 l 1
 383 811 l 1
 375 1256 l 1
 488 1244 l 1
 477 811 l 1
 783 819 l 1
 777 718 l 1
 477 728 l 1xd0
 493 -363 l 1
 368 -351 l 1xe0
 383 730 l 1
 77 723 l 1xd0
EndSplineSet
Validated: 1
Colour: ffffff
EndChar

StartChar: daggerdbl
Encoding: 8225 8225 77
Width: 864
VWidth: 0
Flags: W
HStem: 75 103<105 385 480 786> 723 95<93 388 483 781> 1236 20G<380.36 494>
VStem: 385 95<-353 85 166 182.741 707.907 728 811 1244> 392 83<166 728>
LayerCount: 2
Fore
SplineSet
85 723 m 1xe8
 93 818 l 1
 388 811 l 1
 380 1256 l 1
 494 1244 l 1
 483 811 l 1
 788 818 l 1
 781 717 l 1
 483 728 l 1
 475 429 l 1xe8
 480 165 l 1
 792 171 l 1
 786 75 l 1
 480 85 l 1
 488 -363 l 1
 375 -353 l 1
 385 85 l 1
 98 75 l 1
 105 178 l 1
 385 166 l 1xf0
 392 499 l 1
 388 730 l 1
 85 723 l 1xe8
EndSplineSet
Validated: 1
Colour: ffffff
EndChar

StartChar: dcroat
Encoding: 273 273 78
Width: 997
VWidth: 0
Flags: W
HStem: -21 98<344.87 582.548> 810 79<358.455 605.779> 999 64<481 696 826 940> 1194 53<553 594.676> 1249 20G<576.455 826>
VStem: 92 138<214.816 608.83> 696 130<90.6021 131 145.353 738.703 841 999 1063 1151>
LayerCount: 2
Fore
SplineSet
471 999 m 1
 481 1063 l 1
 696 1063 l 1
 696 1151 l 1
 544 1194 l 1
 553 1247 l 1
 811 1269 l 1
 826 1252 l 1
 826 1063 l 1
 950 1063 l 1
 940 999 l 1
 826 999 l 1
 826 222 l 2
 826 91 874 81 925 70 c 2
 978 58 l 1
 969 -2 l 1
 929 -14 902 -22 848 -22 c 0
 752 -22 710 42 710 124 c 2
 710 131 l 1
 700 131 l 1
 644 54 550 -21 411 -21 c 0
 233 -21 92 122 92 393 c 0
 92 692 306 889 518 889 c 0
 584 889 669 866 702 841 c 1
 710 841 l 1
 696 972 l 1
 696 999 l 1
 471 999 l 1
230 452 m 0
 230 217 319 77 474 77 c 0
 558 77 657 135 700 193 c 1
 700 685 l 1
 644 766 550 810 469 810 c 0
 325 810 230 674 230 452 c 0
EndSplineSet
Validated: 1
Colour: ffffff
EndChar

StartChar: degree
Encoding: 176 176 79
Width: 411
VWidth: 0
Flags: W
HStem: 949 47<150.188 269.755> 1238 46<145.729 260.755>
VStem: 44 66<1027.09 1212.8> 302 66<1021.28 1207.03>
LayerCount: 2
Fore
SplineSet
110 1121 m 0
 110 1060 144 996 212 996 c 0
 270 996 302 1041 302 1114 c 0
 302 1177 268 1238 201 1238 c 0
 138 1238 110 1177 110 1121 c 0
44 1114 m 0
 44 1206 119 1284 213 1284 c 0
 309 1284 368 1218 368 1124 c 0
 368 1034 301 949 199 949 c 0
 107 949 44 1012 44 1114 c 0
EndSplineSet
Validated: 1
Colour: ffffff
EndChar

StartChar: dieresis
Encoding: 168 168 80
Width: 365
VWidth: 0
Flags: W
HStem: 99 159<-198.519 -70.3553 69.4814 198.259>
VStem: -205 141<103.967 252.859> 63 142<104.641 252.859>
LayerCount: 2
Fore
SplineSet
63 181 m 0
 63 230 92 258 132 258 c 0
 173 258 205 230 205 181 c 0
 205 130 175 99 132 99 c 0
 90 99 63 131 63 181 c 0
-205 181 m 0
 -205 230 -176 258 -136 258 c 0
 -95 258 -64 230 -64 181 c 0
 -64 130 -92 99 -135 99 c 0
 -177 99 -205 131 -205 181 c 0
EndSplineSet
Validated: 1
Colour: ffffff
EndChar

StartChar: dieresiscomb
Encoding: 776 776 81
Width: 54
VWidth: 0
Flags: W
HStem: 1384 159<130.481 258.645 398.481 527.259>
VStem: 124 141<1388.97 1537.86> 392 142<1389.64 1537.86>
LayerCount: 2
Fore
SplineSet
392 1466 m 0
 392 1515 421 1543 461 1543 c 0
 502 1543 534 1515 534 1466 c 0
 534 1415 504 1384 461 1384 c 0
 419 1384 392 1416 392 1466 c 0
124 1466 m 0
 124 1515 153 1543 193 1543 c 0
 234 1543 265 1515 265 1466 c 0
 265 1415 237 1384 194 1384 c 0
 152 1384 124 1416 124 1466 c 0
EndSplineSet
Validated: 1
Colour: ffffff
EndChar

StartChar: divide
Encoding: 247 247 82
Width: 958
VWidth: 0
Flags: W
HStem: 112 218<399.617 549.888> 465 85<81 882> 676 218<399.617 549.888>
VStem: 383 184<126.444 316.197 690.444 880.47>
LayerCount: 2
Fore
SplineSet
383 790 m 0
 383 854 419 894 473 894 c 0
 527 894 567 854 567 790 c 0
 567 723 530 676 474 676 c 0
 418 676 383 724 383 790 c 0
383 226 m 0
 383 290 419 330 473 330 c 0
 527 330 567 289 567 225 c 0
 567 158 530 112 474 112 c 0
 418 112 383 160 383 226 c 0
68 465 m 1
 81 550 l 1
 893 550 l 1
 882 465 l 1
 68 465 l 1
EndSplineSet
Validated: 1
Colour: ffffff
EndChar

StartChar: dollar
Encoding: 36 36 83
Width: 860
VWidth: 0
Flags: W
HStem: 869 21G<664 738.824>
VStem: 102 75<295.812 384> 116 136<870.362 1102.03> 382 145<-165.483 -25 1283.77 1396.62> 422 62<59 527 756 1197> 664 73<878 998.202> 690 147<166.474 395.246>
LayerCount: 2
Fore
SplineSet
80 119 m 1x92
 102 395 l 1
 177 384 l 1xd2
 210 181 l 1
 247 116 330 67 422 58 c 1
 422 564 l 1
 272 653 116 750 116 938 c 0
 116 1120 248 1233 398 1262 c 1
 387 1395 l 1
 524 1411 l 1
 511 1269 l 1
 607 1262 699 1228 764 1165 c 1
 764 1161 737 869 737 869 c 1
 664 878 l 1xac
 638 1096 l 1
 615 1140 551 1185 482 1197 c 1
 482 721 l 1
 646 623 837 531 837 331 c 0
 837 153 702 21 516 -15 c 1
 527 -164 l 1
 382 -179 l 1
 392 -25 l 1
 257 -19 141 44 80 119 c 1x92
426 756 m 1
 426 1199 l 1
 330 1191 252 1123 252 1001 c 0xa0
 252 892 328 820 426 756 c 1
484 527 m 1x8a
 484 59 l 1
 589 71 690 140 690 274 c 0
 690 387 596 458 484 527 c 1x8a
EndSplineSet
Validated: 1
Colour: ffffff
EndChar

StartChar: dotaccent
Encoding: 729 729 84
Width: 365
VWidth: 0
Flags: W
HStem: 98 208<-71.3458 72.0273>
VStem: -85 170<108.953 294.831>
LayerCount: 2
Fore
SplineSet
-85 204 m 0
 -85 265 -52 306 -1 306 c 0
 50 306 85 266 85 204 c 0
 85 140 53 98 -1 98 c 0
 -54 98 -85 142 -85 204 c 0
EndSplineSet
Validated: 1
Colour: ffffff
EndChar

StartChar: dotaccentcomb
Encoding: 775 775 85
Width: 26
VWidth: 0
Flags: W
HStem: 1346 208<142.654 286.027>
VStem: 129 170<1356.95 1542.83>
LayerCount: 2
Fore
SplineSet
129 1452 m 0
 129 1513 162 1554 213 1554 c 0
 264 1554 299 1514 299 1452 c 0
 299 1388 267 1346 213 1346 c 0
 160 1346 129 1390 129 1452 c 0
EndSplineSet
Validated: 1
Colour: ffffff
EndChar

StartChar: dotbelowcomb
Encoding: 803 803 86
Width: 226
VWidth: 0
Flags: W
HStem: -380 207<34.6542 178.711>
VStem: 21 171<-369.047 -184.139>
LayerCount: 2
Fore
SplineSet
21 -274 m 0
 21 -213 54 -173 105 -173 c 0
 156 -173 192 -212 192 -274 c 0
 192 -338 159 -380 105 -380 c 0
 52 -380 21 -336 21 -274 c 0
EndSplineSet
Validated: 1
Colour: ffffff
EndChar

StartChar: dotlessi
Encoding: 305 305 87
Width: 555
VWidth: 0
Flags: W
HStem: 0 55<92 159.648 462.32 523> 814 51<99 142.883> 867 20G<122.545 374>
VStem: 243 131<87 772>
LayerCount: 2
Fore
SplineSet
80 0 m 1
 92 55 l 1
 243 87 l 1
 243 772 l 1
 91 814 l 1
 99 865 l 1
 358 887 l 1
 374 871 l 1
 374 87 l 1
 534 57 l 1
 523 0 l 1
 80 0 l 1
EndSplineSet
Validated: 1
Colour: ffffff
EndChar

StartChar: e
Encoding: 101 101 88
Width: 812
VWidth: 0
Flags: W
HStem: -30 108<374.813 646.319> 445 62<237 455.78> 809 77<335.827 534.233>
VStem: 94 141<243.457 445 507 639.406> 595 141<530.116 755.093>
LayerCount: 2
Fore
SplineSet
237 507 m 1
 588 530 l 1
 594 547 595 589 595 610 c 0
 595 730 535 809 437 809 c 0
 332 809 242 709 237 507 c 1
94 420 m 0
 94 720 293 886 486 886 c 0
 632 886 736 793 736 582 c 0
 736 551 728 486 719 451 c 1
 235 445 l 1
 239 257 324 78 522 78 c 2
 527 78 l 2
 607 78 670 98 743 148 c 1
 762 104 l 1
 694 25 586 -30 453 -30 c 0
 264 -30 94 117 94 420 c 0
EndSplineSet
Validated: 1
Colour: ffffff
EndChar

StartChar: eacute
Encoding: 233 233 89
Width: 812
VWidth: 0
Flags: W
HStem: -30 108<374.813 646.319> 445 62<237 455.78> 809 77<335.827 534.233>
VStem: 94 141<243.457 445 507 639.406> 595 141<530.116 755.093>
LayerCount: 2
Fore
SplineSet
421 1020 m 1
 549 1350 l 1
 652 1311 l 1
 470 990 l 1
 421 1020 l 1
237 507 m 1
 588 530 l 1
 594 547 595 589 595 610 c 0
 595 730 535 809 437 809 c 0
 332 809 242 709 237 507 c 1
94 420 m 0
 94 720 293 886 486 886 c 0
 632 886 736 793 736 582 c 0
 736 551 728 486 719 451 c 1
 235 445 l 1
 239 257 324 78 522 78 c 2
 527 78 l 2
 607 78 670 98 743 148 c 1
 762 104 l 1
 694 25 586 -30 453 -30 c 0
 264 -30 94 117 94 420 c 0
EndSplineSet
Validated: 1
Colour: ffffff
EndChar

StartChar: egrave
Encoding: 232 232 90
Width: 812
VWidth: 0
Flags: W
HStem: -30 108<374.813 646.319> 445 62<237 455.78> 809 77<335.827 534.233>
VStem: 94 141<243.457 445 507 639.406> 595 141<530.116 755.093>
LayerCount: 2
Fore
SplineSet
284 1319 m 1
 388 1356 l 1
 521 1021 l 1
 470 990 l 1
 284 1319 l 1
237 507 m 1
 588 530 l 1
 594 547 595 589 595 610 c 0
 595 730 535 809 437 809 c 0
 332 809 242 709 237 507 c 1
94 420 m 0
 94 720 293 886 486 886 c 0
 632 886 736 793 736 582 c 0
 736 551 728 486 719 451 c 1
 235 445 l 1
 239 257 324 78 522 78 c 2
 527 78 l 2
 607 78 670 98 743 148 c 1
 762 104 l 1
 694 25 586 -30 453 -30 c 0
 264 -30 94 117 94 420 c 0
EndSplineSet
Validated: 1
Colour: ffffff
EndChar

StartChar: eight
Encoding: 56 56 91
Width: 938
VWidth: 0
Flags: W
HStem: -27 74<389.218 637.172> 1141 61<373.954 569.081>
VStem: 127 140<160.491 424.618> 173 120<830.635 1052.37> 674 124<769.225 1045.91> 710 130<134.893 352.976>
LayerCount: 2
Fore
SplineSet
293 955 m 0xd8
 293 854 366 772 547 656 c 1
 618 703 674 771 674 890 c 0
 674 1031 582 1141 476 1141 c 0
 361 1141 293 1058 293 955 c 0xd8
267 312 m 0xe4
 267 140 402 47 509 47 c 0
 631 47 710 116 710 233 c 0
 710 346 600 437 410 557 c 1
 333 500 267 437 267 312 c 0xe4
127 281 m 0
 127 394 201 498 357 590 c 1
 357 597 l 1
 245 673 173 765 173 897 c 0
 173 1061 309 1202 502 1202 c 0
 692 1202 798 1078 798 927 c 0xd8
 798 791 708 679 604 625 c 1
 601 619 l 1
 756 514 840 430 840 291 c 0
 840 107 682 -27 455 -27 c 0
 271 -27 127 99 127 281 c 0
EndSplineSet
Validated: 1
Colour: ffffff
EndChar

StartChar: eight.osf
Encoding: 65536 -1 92
Width: 815
VWidth: 0
Flags: W
HStem: -27 76<315.362 555.603> 1141 61<297.5 486.546>
VStem: 67 128<163.014 427.031> 113 112<832.056 1058.19> 589 113<768.175 1047.66> 633 123<144.411 369.01>
LayerCount: 2
Fore
SplineSet
225 967 m 0xd8
 225 858 292 769 471 655 c 1
 525 702 589 776 589 899 c 0
 589 1023 504 1141 398 1141 c 0
 301 1141 225 1070 225 967 c 0xd8
195 312 m 0xe4
 195 162 316 49 422 49 c 0
 553 49 633 125 633 248 c 0
 633 359 540 440 337 568 c 1
 267 521 195 430 195 312 c 0xe4
67 281 m 0
 67 394 144 503 289 597 c 1
 289 604 l 1
 188 670 113 775 113 901 c 0
 113 1065 240 1202 424 1202 c 0
 605 1202 702 1086 702 935 c 0xd8
 702 799 632 704 526 628 c 1
 525 622 l 1
 680 524 756 421 756 295 c 0
 756 111 585 -27 376 -27 c 0
 192 -27 67 99 67 281 c 0
EndSplineSet
Validated: 1
Colour: ffffff
EndChar

StartChar: emdash
Encoding: 8212 8212 93
Width: 1301
VWidth: 0
Flags: W
HStem: 420 83<100 1206>
LayerCount: 2
Fore
SplineSet
86 420 m 1
 100 503 l 1
 1220 509 l 1
 1206 426 l 1
 86 420 l 1
EndSplineSet
Validated: 1
Colour: ffffff
EndChar

StartChar: emptyset
Encoding: 8709 8709 94
Width: 1012
VWidth: 0
Flags: W
HStem: -37 89<342.603 681.992> -4 21G<74.6 106.788> 836 94<338.512 671.494>
VStem: 48 115<238.178 635.797> 845 116<231.407 654.165>
DStem2: 212 230 248 177 0.744242 0.66791<0 725.026>
LayerCount: 2
Fore
SplineSet
48 444 m 0x78
 48 698 274 930 507 930 c 0
 639 930 747 882 825 803 c 1
 912 898 l 1
 979 799 l 1
 885 727 l 1
 934 647 961 549 961 443 c 0
 961 186 784 -37 507 -37 c 0xb8
 379 -37 264 10 181 95 c 1
 88 -4 l 1
 21 96 l 1
 121 171 l 1
 75 246 48 338 48 444 c 0x78
794 667 m 1
 248 177 l 1
 315 94 412 52 508 52 c 0
 703 52 845 177 845 444 c 0
 845 533 826 608 794 667 c 1
758 719 m 1
 694 797 603 836 506 836 c 0
 311 836 163 687 163 443 c 0
 163 358 181 287 212 230 c 1
 758 719 l 1
EndSplineSet
Validated: 1
Colour: ffffff
EndChar

StartChar: endash
Encoding: 8211 8211 95
Width: 792
VWidth: 0
Flags: W
HStem: 420 83<99 697>
VStem: 86 624
LayerCount: 2
Fore
SplineSet
86 420 m 1
 99 503 l 1
 710 509 l 1
 697 426 l 1
 86 420 l 1
EndSplineSet
Validated: 1
Colour: ffffff
EndChar

StartChar: eng
Encoding: 331 331 96
Width: 982
VWidth: 0
Flags: W
HStem: -383 21G<593.941 638.593> 0 52<87 151.512 454.44 506> 781 109<510.473 721.449> 794 52<92 141.976>
VStem: 240 130<86 709.208> 779 130<-92.84 721.931>
LayerCount: 2
Fore
SplineSet
79 0 m 1xec
 87 52 l 1
 240 86 l 1
 240 755 l 1
 85 794 l 1
 92 846 l 1xdc
 357 876 l 1
 369 862 l 1
 359 730 l 1
 367 730 l 1
 424 801 545 890 678 890 c 0
 815 890 909 798 909 600 c 2
 909 150 l 1
 907 -114 792 -267 650 -356 c 1
 606 -383 l 1
 565 -315 l 1
 673 -234 779 -106 779 165 c 2
 778 568 l 2
 778 722 700 781 608 781 c 0
 513 781 448 748 370 670 c 1
 370 86 l 1
 516 58 l 1
 506 0 l 1
 79 0 l 1xec
EndSplineSet
Validated: 1
Colour: ffffff
EndChar

StartChar: equal
Encoding: 61 61 97
Width: 800
VWidth: 0
Flags: W
HStem: 330 85<98 702> 569 86<101 705>
VStem: 90 626
LayerCount: 2
Fore
SplineSet
90 569 m 1
 101 655 l 1
 716 655 l 1
 705 569 l 1
 90 569 l 1
87 330 m 1
 98 415 l 1
 713 415 l 1
 702 330 l 1
 87 330 l 1
EndSplineSet
Validated: 1
Colour: ffffff
EndChar

StartChar: eth
Encoding: 240 240 98
Width: 931
VWidth: 0
Flags: W
HStem: -27 77<392.601 615.058> 875 74<356.498 554.844> 1177 20G<672.455 764.188>
VStem: 107 139<230.536 701.936> 721 137<213.137 667.855>
DStem2: 320 1103 309 1040 0.979216 0.202822<0 190.821 329.863 434.981>
LayerCount: 2
Fore
SplineSet
246 499 m 1
 248 207 361 50 506 50 c 0
 661 50 721 210 721 425 c 0
 721 700 582 873 456 875 c 1
 451 875 l 1
 303 873 246 702 246 499 c 1
107 451 m 0
 107 746 256 949 469 949 c 0
 548 949 637 896 667 820 c 1
 674 821 l 1
 649 915 595 1007 541 1086 c 1
 309 1040 l 1
 320 1103 l 1
 507 1141 l 1
 452 1214 396 1271 361 1303 c 1
 453 1303 l 1
 498 1275 555 1227 611 1164 c 1
 767 1197 l 1
 758 1133 l 1
 655 1112 l 1
 766 965 858 751 858 465 c 0
 858 157 698 -27 483 -27 c 0
 223 -27 107 208 107 451 c 0
EndSplineSet
Validated: 1
Colour: ffffff
EndChar

StartChar: exclam
Encoding: 33 33 99
Width: 447
VWidth: 0
Flags: W
HStem: -35 219<163.793 311.741>
VStem: 146 183<-20.3742 168.205> 162 159<764.301 1285.12> 202 68<372 758.067>
LayerCount: 2
Fore
SplineSet
162 1251 m 2xa0
 162 1254 l 1
 171 1282 226 1293 262 1293 c 0
 289 1293 321 1285 321 1254 c 0xa0
 321 1085 297 686 270 363 c 1
 267 358 l 1
 202 372 l 1
 202 376 l 1x90
 182 695 162 1142 162 1251 c 2xa0
146 79 m 0xc0
 146 140 186 184 236 184 c 0
 287 184 329 139 329 78 c 0
 329 14 294 -35 236 -35 c 0
 180 -35 146 17 146 79 c 0xc0
EndSplineSet
Validated: 1
Colour: ffffff
EndChar

StartChar: exclamdown
Encoding: 161 161 100
Width: 434
VWidth: 0
Flags: W
HStem: 692 218<143.921 291.846>
VStem: 127 183<706.501 894.688> 135 160<-408.625 109.621> 186 67<125.548 515>
LayerCount: 2
Fore
SplineSet
127 797 m 0xc0
 127 861 161 910 219 910 c 0
 275 910 310 858 310 796 c 0
 310 735 269 692 219 692 c 0
 168 692 127 736 127 797 c 0xc0
135 -377 m 0xa0
 135 -208 159 201 186 524 c 1
 189 529 l 1
 253 515 l 1
 253 512 l 1x90
 273 193 295 -266 295 -375 c 2
 295 -377 l 1
 286 -405 230 -417 194 -417 c 0
 167 -417 135 -408 135 -377 c 0xa0
EndSplineSet
Validated: 1
Colour: ffffff
EndChar

StartChar: f
Encoding: 102 102 101
Width: 651
VWidth: 0
Flags: W
HStem: 0 51<82 142.53 525.834 607> 791 70<368 613> 791 54<97 186.926> 1220 85<444.033 617.348>
VStem: 234 134<91 791 867 1052.74>
LayerCount: 2
Fore
SplineSet
70 0 m 1xd8
 82 51 l 1
 234 87 l 1
 234 791 l 1
 85 791 l 1
 97 845 l 1xb8
 235 867 l 1
 264 1170 440 1305 582 1305 c 0
 688 1305 760 1260 760 1192 c 0
 760 1148 724 1112 691 1099 c 1
 653 1153 589 1220 514 1220 c 0
 437 1220 371 1149 369 981 c 2
 368 861 l 1
 626 861 l 1
 613 791 l 1
 368 791 l 1
 368 91 l 1
 614 61 l 1
 607 0 l 1
 70 0 l 1xd8
EndSplineSet
Validated: 1
Colour: ffffff
EndChar

StartChar: f.alt2
Encoding: 65537 -1 102
Width: 627
VWidth: 0
Flags: W
HStem: 0 51<82 142.53 525.834 607> 791 70<368 613> 791 54<97 186.926> 1214 90<400.725 554.451>
VStem: 234 134<91 791 867 1087.25>
LayerCount: 2
Fore
SplineSet
70 0 m 1xd8
 82 51 l 1
 234 87 l 1
 234 791 l 1
 85 791 l 1
 97 845 l 1xb8
 235 867 l 1
 252 1179 406 1304 507 1304 c 0
 585 1304 640 1282 640 1220 c 0
 640 1181 615 1151 583 1136 c 1
 553 1179 508 1214 458 1214 c 0
 405 1214 371 1149 369 981 c 2
 368 861 l 1
 626 861 l 1
 613 791 l 1
 368 791 l 1
 368 91 l 1
 614 61 l 1
 607 0 l 1
 70 0 l 1xd8
EndSplineSet
Validated: 1
Colour: ffffff
EndChar

StartChar: five
Encoding: 53 53 103
Width: 959
VWidth: 0
Flags: W
HStem: -16 74<258.615 525.408> 1049 149<490.598 708>
VStem: 103 67<225.128 355> 629 147<198.144 455.205>
DStem2: 165 639 279 771 0.211285 0.977424<153.107 417.511>
LayerCount: 2
Fore
SplineSet
75 88 m 1
 103 369 l 1
 170 355 l 1
 188 155 l 1
 242 89 315 58 396 58 c 0
 540 58 629 158 629 308 c 0
 629 510 447 621 165 639 c 1
 280 1171 l 1
 729 1198 l 1
 708 1049 l 1
 323 1032 l 1
 279 771 l 1
 634 748 776 577 776 368 c 0
 776 163 598 -16 353 -16 c 0
 248 -16 154 12 75 88 c 1
EndSplineSet
Validated: 1
Colour: ffffff
EndChar

StartChar: five.osf
Encoding: 65538 -1 104
Width: 850
VWidth: 0
Flags: W
HStem: -297 76<156.708 403.118> -46 20G<19 62.5>
VStem: 525 151<-46.5922 233.968>
DStem2: 98 413 208 537 0.183125 0.98309<142.047 404.358> 193 923 250 796 0.996374 0.0850836<45.9877 413.784>
LayerCount: 2
Fore
SplineSet
-54 -147 m 0
 -54 -87 -8 -33 46 -26 c 1
 79 -117 150 -221 269 -221 c 0
 398 -221 525 -132 525 72 c 0
 525 271 371 388 98 413 c 1
 193 923 l 1
 638 961 l 1
 617 821 l 1
 250 796 l 1
 208 537 l 1
 494 501 676 362 676 133 c 0
 676 -91 486 -297 223 -297 c 0
 64 -297 -54 -233 -54 -147 c 0
EndSplineSet
Validated: 1
Colour: ffffff
EndChar

StartChar: four
Encoding: 52 52 105
Width: 972
VWidth: 0
Flags: W
HStem: 0 64<305 363.451 840.551 890> 361 101<186 548 695 934> 1171 20G<639.098 704>
VStem: 552 143<95 357 462 948>
DStem2: 38 415 186 462 0.622355 0.782735<128.897 734.599>
LayerCount: 2
Fore
SplineSet
186 462 m 1
 548 462 l 1
 548 948 l 1
 186 462 l 1
38 415 m 1
 655 1191 l 1
 704 1176 l 1
 698 1057 695 865 695 683 c 2
 695 462 l 1
 950 462 l 1
 934 357 l 1
 695 357 l 1
 695 89 l 1
 901 64 l 1
 890 0 l 1
 298 0 l 1
 305 57 l 1
 552 95 l 1
 552 361 l 1
 57 361 l 1
 38 415 l 1
EndSplineSet
Validated: 1
Colour: ffffff
EndChar

StartChar: four.osf
Encoding: 65539 -1 106
Width: 944
VWidth: 0
Flags: W
HStem: 108 97<195 556 698 936>
VStem: 558 140<-269 105 205 714>
DStem2: 49 159 195 205 0.596703 0.802462<124.032 747.895>
LayerCount: 2
Fore
SplineSet
195 205 m 1
 556 205 l 1
 556 714 l 1
 195 205 l 1
49 159 m 1
 658 978 l 1
 707 963 l 1
 701 844 697 636 697 454 c 2
 697 205 l 1
 952 205 l 1
 936 105 l 1
 698 105 l 1
 698 -269 l 1
 558 -300 l 1
 558 108 l 1
 67 108 l 1
 49 159 l 1
EndSplineSet
Validated: 1
Colour: ffffff
EndChar

StartChar: fraction
Encoding: 8260 8260 107
Width: 1738
VWidth: 0
Flags: W
HStem: 1191 20G<883.604 1025>
LayerCount: 2
Fore
SplineSet
164 -26 m 1
 540 588 l 1
 895 1211 l 1
 1025 1207 l 1
 1025 1192 l 1
 657 591 l 1
 310 -40 l 1
 164 -26 l 1
EndSplineSet
Validated: 1
Colour: ffffff
EndChar

StartChar: g
Encoding: 103 103 108
Width: 865
VWidth: 0
Flags: W
HStem: -387 88<258.632 602.362> 17 115<258.828 689.184> 291 68<344.124 528.162> 825 60<327.168 500.782>
VStem: 50 136<-231.092 -59.8559> 124 125<150.878 241.315 453.092 728.655> 593 130<442.41 740.233> 713 128<-189.656 -14.4974>
LayerCount: 2
Fore
SplineSet
252 599 m 0xf2
 252 471 336 359 435 359 c 0
 524 359 593 424 593 565 c 0
 593 696 526 825 420 825 c 0
 302 825 252 730 252 599 c 0xf2
186 -116 m 0xf9
 186 -251 298 -299 462 -299 c 0
 591 -299 713 -240 713 -107 c 0
 713 -18 676 17 492 17 c 2
 280 17 l 1
 280 17 186 -15 186 -116 c 0xf9
50 -165 m 0
 50 -62 159 -4 220 28 c 1
 220 35 l 1
 166 60 124 105 124 162 c 0
 124 212 204 283 276 322 c 1
 276 327 l 1
 225 346 125 442 125 578 c 0
 125 744 273 885 444 885 c 0
 520 885 584 858 635 822 c 1
 650 822 854 838 854 838 c 1
 870 820 l 1
 835 725 l 1
 823 723 l 1
 682 764 l 1
 679 753 l 1
 694 727 723 649 723 588 c 0
 723 416 555 291 408 291 c 0
 368 291 327 302 315 306 c 1
 285 277 249 245 249 210 c 0xf6
 249 158 300 132 419 132 c 2
 573 132 l 2
 734 132 843 110 841 -58 c 0
 839 -231 628 -387 396 -387 c 0
 200 -387 50 -313 50 -165 c 0
EndSplineSet
Validated: 33
Colour: ffffff
EndChar

StartChar: gdotaccent
Encoding: 289 289 109
Width: 865
VWidth: 0
Flags: W
HStem: -387 88<258.632 602.362> 17 115<258.828 689.184> 291 68<344.124 528.162> 825 60<327.168 500.782> 988 208<360.654 504.027>
VStem: 50 136<-231.092 -59.8559> 124 125<150.878 241.315 453.092 728.655> 347 170<998.953 1184.83> 593 130<442.41 740.233> 713 128<-189.656 -14.4974>
LayerCount: 2
Fore
SplineSet
347 1094 m 0xf9
 347 1155 380 1196 431 1196 c 0
 482 1196 517 1156 517 1094 c 0
 517 1030 485 988 431 988 c 0
 378 988 347 1032 347 1094 c 0xf9
252 599 m 0
 252 471 336 359 435 359 c 0
 524 359 593 424 593 565 c 0xf980
 593 696 526 825 420 825 c 0
 302 825 252 730 252 599 c 0
186 -116 m 0xfd40
 186 -251 298 -299 462 -299 c 0
 591 -299 713 -240 713 -107 c 0
 713 -18 676 17 492 17 c 2
 280 17 l 1
 280 17 186 -15 186 -116 c 0xfd40
50 -165 m 0
 50 -62 159 -4 220 28 c 1
 220 35 l 1
 166 60 124 105 124 162 c 0
 124 212 204 283 276 322 c 1
 276 327 l 1
 225 346 125 442 125 578 c 0
 125 744 273 885 444 885 c 0
 520 885 584 858 635 822 c 1
 650 822 854 838 854 838 c 1
 870 820 l 1
 835 725 l 1
 823 723 l 1
 682 764 l 1
 679 753 l 1
 694 727 723 649 723 588 c 0
 723 416 555 291 408 291 c 0
 368 291 327 302 315 306 c 1
 285 277 249 245 249 210 c 0xfb80
 249 158 300 132 419 132 c 2
 573 132 l 2
 734 132 843 110 841 -58 c 0
 839 -231 628 -387 396 -387 c 0
 200 -387 50 -313 50 -165 c 0
EndSplineSet
Validated: 33
Colour: ffffff
EndChar

StartChar: germandbls
Encoding: 223 223 110
Width: 1130
VWidth: 0
Flags: W
HStem: -33 74<708.574 928.984> 0 52<82 142.132> 804 49<97 179.432> 1219 85<440.023 662.029>
VStem: 233 135<88 804 877 1068.39> 507 106<138.303 213.997> 550 103<587.155 762.292> 744 126<921.643 1140.06> 966 117<84.5641 240.84>
LayerCount: 2
Fore
SplineSet
70 0 m 1x7b80
 82 52 l 1
 233 88 l 1
 233 804 l 1
 86 804 l 1
 97 853 l 1
 235 877 l 1
 248 1106 377 1304 601 1304 c 0
 752 1304 870 1205 870 1054 c 0
 870 876 653 792 653 682 c 0x7b80
 653 491 1083 460 1083 214 c 0
 1083 66 940 -33 786 -33 c 0
 626 -33 507 49 507 158 c 0
 507 229 559 263 613 269 c 1
 641 115 711 41 817 41 c 0xbd80
 903 41 966 86 966 161 c 0
 966 317 550 364 550 620 c 0
 550 805 744 864 744 1012 c 0
 744 1129 651 1219 541 1219 c 0
 429 1219 368 1122 368 945 c 2
 368 0 l 1
 70 0 l 1x7b80
EndSplineSet
Validated: 1
Colour: ffffff
EndChar

StartChar: grave
Encoding: 96 96 111
Width: 579
VWidth: 0
Flags: W
HStem: 1332 366
VStem: 150 237
LayerCount: 2
Fore
SplineSet
150 1661 m 1
 254 1698 l 1
 387 1363 l 1
 336 1332 l 1
 150 1661 l 1
EndSplineSet
Validated: 1
Colour: ffffff
EndChar

StartChar: greater
Encoding: 62 62 112
Width: 697
VWidth: 0
Flags: W
VStem: 67 596
LayerCount: 2
Fore
SplineSet
67 -25 m 1
 478 449 l 1
 87 914 l 1
 122 974 l 1
 663 456 l 1
 664 427 l 1
 109 -82 l 1
 67 -25 l 1
EndSplineSet
Validated: 1
Colour: ffffff
EndChar

StartChar: guilsinglleft
Encoding: 8249 8249 113
Width: 432
VWidth: 0
Flags: W
VStem: 51 304
LayerCount: 2
Fore
SplineSet
51 469 m 1
 319 821 l 1
 355 774 l 1
 179 461 l 1
 356 128 l 1
 314 77 l 1
 53 449 l 1
 51 469 l 1
EndSplineSet
Validated: 1
Colour: ffffff
EndChar

StartChar: h
Encoding: 104 104 114
Width: 1046
VWidth: 0
Flags: W
HStem: 0 58<66 120.888 445.32 487 615 665.573 973.582 1017> 783 108<490.849 697.005> 1196 54<72 116.589> 1251 20G<84.5714 352>
VStem: 220 132<87 711.889 733 1154> 755 129<86 724.103>
LayerCount: 2
Fore
SplineSet
55 0 m 1
 66 57 l 1
 220 87 l 1
 220 1154 l 1
 63 1196 l 1
 72 1250 l 1
 336 1271 l 1
 352 1254 l 1
 352 839 l 1
 339 733 l 1
 347 733 l 1
 426 819 536 891 651 891 c 0
 790 891 884 816 884 588 c 2
 884 86 l 1
 1026 58 l 1
 1017 0 l 1
 606 0 l 1
 615 54 l 1
 752 86 l 1
 755 561 l 1
 755 568 l 2
 755 729 672 783 581 783 c 0
 491 783 423 747 352 670 c 1
 352 87 l 1
 497 58 l 1
 487 0 l 1
 55 0 l 1
EndSplineSet
Validated: 1
Colour: ffffff
EndChar

StartChar: hbar
Encoding: 295 295 115
Width: 1046
VWidth: 0
Flags: W
HStem: 0 58<54 108.888 433.32 475 603 653.573 961.582 1005> 783 108<478.849 685.005> 978 65<39 208 340 659> 1196 54<60 104.589> 1251 20G<72.5714 340>
VStem: 208 132<87 711.889 733 978 1043 1154> 743 129<86 724.103>
LayerCount: 2
Fore
SplineSet
30 978 m 1
 39 1043 l 1
 208 1043 l 1
 208 1154 l 1
 51 1196 l 1
 60 1250 l 1
 324 1271 l 1
 340 1254 l 1
 340 1043 l 1
 667 1043 l 1
 659 978 l 1
 340 978 l 1
 340 839 l 1
 327 733 l 1
 335 733 l 1
 414 819 524 891 639 891 c 0
 778 891 872 816 872 588 c 2
 872 86 l 1
 1014 58 l 1
 1005 0 l 1
 594 0 l 1
 603 54 l 1
 740 86 l 1
 743 561 l 1
 743 568 l 2
 743 729 660 783 569 783 c 0
 479 783 411 747 340 670 c 1
 340 87 l 1
 485 58 l 1
 475 0 l 1
 43 0 l 1
 54 57 l 1
 208 87 l 1
 208 978 l 1
 30 978 l 1
EndSplineSet
Validated: 1
Colour: ffffff
EndChar

StartChar: hungarumlaut
Encoding: 733 733 116
Width: 744
VWidth: 0
Flags: W
HStem: 1359 250
VStem: 113 526
LayerCount: 2
Fore
SplineSet
323 1401 m 1
 574 1601 l 1
 639 1527 l 1
 348 1359 l 1
 323 1401 l 1
113 1401 m 1
 370 1609 l 1
 437 1531 l 1
 137 1359 l 1
 113 1401 l 1
EndSplineSet
Validated: 1
Colour: ffffff
EndChar

StartChar: hyphen
Encoding: 45 45 117
Width: 573
VWidth: 0
Flags: W
HStem: 409 80<92 416.949> 426 81<175.051 489>
VStem: 81 419
LayerCount: 2
Fore
SplineSet
81 409 m 1xa0
 92 489 l 1xa0
 500 507 l 1
 489 426 l 1x60
 81 409 l 1xa0
EndSplineSet
Validated: 1
Colour: ffffff
EndChar

StartChar: i
Encoding: 105 105 118
Width: 555
VWidth: 0
Flags: W
HStem: 0 55<92 159.648 462.32 523> 814 51<99 142.883> 867 20G<122.545 374> 1093 208<226.654 370.027>
VStem: 213 170<1103.95 1289.83> 243 131<87 772>
LayerCount: 2
Back
SplineSet
4.58008 -395.961 m 5
 139.961 -294.68 271.268 -138.941 271.268 201.034 c 6
 271.268 954.783 l 5
 81.9395 1006.19 l 5
 93.1367 1073.37 l 5
 416.826 1099.32 l 5
 437.693 1077.95 l 5
 437.693 189.328 l 6
 437.693 -145.559 290.608 -334.378 111.968 -446.854 c 6
 56.4932 -481.463 l 5
 4.58008 -395.961 l 5
228.008 1495.79 m 4
 228.008 1577.73 276.358 1631.17 345.574 1631.17 c 4
 413.265 1631.17 463.65 1576.72 463.65 1495.28 c 4
 463.65 1411.31 416.317 1352.78 345.065 1352.78 c 4
 273.813 1352.78 228.008 1413.34 228.008 1495.79 c 4
EndSplineSet
Fore
SplineSet
213 1199 m 0xf8
 213 1260 246 1301 297 1301 c 0
 348 1301 383 1261 383 1199 c 0
 383 1135 351 1093 297 1093 c 0
 244 1093 213 1137 213 1199 c 0xf8
80 0 m 1
 92 55 l 1
 243 87 l 1
 243 772 l 1
 91 814 l 1
 99 865 l 1
 358 887 l 1
 374 871 l 1
 374 87 l 1xf4
 534 57 l 1
 523 0 l 1
 80 0 l 1
EndSplineSet
Validated: 1
Colour: ffffff
EndChar

StartChar: igrave
Encoding: 236 236 119
Width: 555
VWidth: 0
Flags: W
HStem: 0 55<92 159.648 462.32 523> 814 51<99 142.883> 867 20G<122.545 374>
VStem: 243 131<87 772>
LayerCount: 2
Fore
SplineSet
122 1319 m 1
 226 1356 l 1
 359 1021 l 1
 308 990 l 1
 122 1319 l 1
80 0 m 1
 92 55 l 1
 243 87 l 1
 243 772 l 1
 91 814 l 1
 99 865 l 1
 358 887 l 1
 374 871 l 1
 374 87 l 1
 534 57 l 1
 523 0 l 1
 80 0 l 1
EndSplineSet
Validated: 1
Colour: ffffff
EndChar

StartChar: infinity
Encoding: 8734 8734 120
Width: 1376
VWidth: 0
Flags: W
HStem: 216 115<247.74 532.923 921.875 1139.95> 738 120<219.769 466.414 861.985 1124.25>
VStem: 64 75<438.011 674.141> 1235 63<415.851 617.044>
LayerCount: 2
Fore
SplineSet
730 600 m 1
 848 415 941 331 1054 331 c 0
 1162 331 1235 422 1235 523 c 0
 1235 632 1112 738 984 738 c 0
 856 738 779 656 730 600 c 1
139 548 m 0
 139 429 249 337 397 337 c 0
 504 337 606 394 653 464 c 1
 520 665 442 743 334 743 c 0
 214 743 139 676 139 548 c 0
64 503 m 0
 64 703 200 862 379 862 c 0
 503 862 599 810 695 655 c 1
 701 657 l 1
 781 768 881 858 1021 858 c 0
 1177 858 1298 739 1298 550 c 0
 1298 360 1156 216 985 216 c 0
 854 216 759 306 688 415 c 1
 682 415 l 1
 591 267 476 212 366 212 c 0
 187 212 64 322 64 503 c 0
EndSplineSet
Validated: 1
Colour: ffffff
EndChar

StartChar: integral
Encoding: 8747 8747 121
Width: 918
VWidth: 0
Flags: W
HStem: -384 86<150.939 334.506> 1220 85<607.126 785.127>
VStem: 402 135<-151.691 1061.73>
LayerCount: 2
Fore
SplineSet
10 -270 m 0
 10 -225 45 -190 79 -177 c 1
 117 -232 182 -298 257 -298 c 0
 335 -298 394 -226 402 -58 c 1
 405 834 l 2
 406 1173 608 1305 750 1305 c 0
 856 1305 929 1260 929 1192 c 0
 929 1148 892 1112 859 1099 c 1
 821 1153 756 1220 681 1220 c 0
 602 1220 539 1144 536 981 c 1
 537 82 l 2
 537 -248 334 -384 189 -384 c 0
 82 -384 10 -338 10 -270 c 0
EndSplineSet
Validated: 1
Colour: ffffff
EndChar

StartChar: j
Encoding: 106 106 122
Width: 460
VWidth: 0
Flags: W
HStem: -383 21G<32.9412 77.5926> 801 54<74 117.798> 855 20G<74 349> 1077 222<199.406 351.82>
VStem: 182 187<1091.44 1284.61> 216 133<-96.1472 760>
LayerCount: 2
Fore
SplineSet
182 1191 m 0x98
 182 1256 220 1299 275 1299 c 0
 329 1299 369 1256 369 1191 c 0
 369 1124 332 1077 275 1077 c 0
 218 1077 182 1125 182 1191 c 0x98
4 -315 m 1
 112 -234 216 -111 216 160 c 2
 216 760 l 1
 65 801 l 1
 74 855 l 1xd4
 332 875 l 1
 349 858 l 1
 349 151 l 2xb4
 349 -116 231 -266 89 -356 c 1
 45 -383 l 1
 4 -315 l 1
EndSplineSet
Validated: 1
Colour: ffffff
EndChar

StartChar: k
Encoding: 107 107 123
Width: 977
VWidth: 0
Flags: W
HStem: -20 21G<803 883.5> 0 57<69 132.325 446.208 503 942 972> 818 55<542 582.298 869.433 925> 1192 52<73 121.547> 1246 20G<96.9091 352>
VStem: 223 129<87 1151>
DStem2: 382 447 510 473 0.650417 0.759578<103.002 439.718> 510 473 382 429 0.616805 -0.787116<0 527.245>
LayerCount: 2
Fore
SplineSet
382 429 m 1xbc
 382 447 l 1
 668 781 l 1
 534 818 l 1
 542 873 l 1
 935 873 l 1
 925 819 l 1
 775 782 l 1
 510 473 l 1
 610 355 l 2
 773 163 816 80 942 64 c 2
 981 59 l 1
 972 0 l 1x7c
 957 -5 906 -20 861 -20 c 0
 745 -20 685 43 516 258 c 2
 382 429 l 1xbc
59 0 m 1
 69 55 l 1
 223 87 l 1
 223 1151 l 1
 67 1192 l 1
 73 1244 l 1
 336 1266 l 1
 352 1249 l 1
 352 87 l 1
 512 57 l 1
 503 0 l 1
 59 0 l 1
EndSplineSet
Validated: 1
Colour: ffffff
EndChar

StartChar: l
Encoding: 108 108 124
Width: 540
VWidth: 0
Flags: W
HStem: 0 55<69 137.992 440.872 501> 1197 52<73 121.547> 1250 20G<85.4762 352>
VStem: 223 129<87 1156>
LayerCount: 2
Fore
SplineSet
59 0 m 1
 69 55 l 1
 223 87 l 1
 223 1156 l 1
 67 1197 l 1
 73 1249 l 1
 335 1270 l 1
 352 1254 l 1
 352 87 l 1
 513 57 l 1
 501 0 l 1
 59 0 l 1
EndSplineSet
Validated: 1
Colour: ffffff
EndChar

StartChar: logicalnot
Encoding: 172 172 125
Width: 931
VWidth: 0
Flags: W
HStem: 584 80<90 747>
VStem: 747 89<351 584>
LayerCount: 2
Fore
SplineSet
78 584 m 1
 90 664 l 1
 835 664 l 1
 836 351 l 1
 747 332 l 1
 747 584 l 1
 78 584 l 1
EndSplineSet
Validated: 1
Colour: ffffff
EndChar

StartChar: lozenge
Encoding: 9674 9674 126
Width: 941
VWidth: 0
Flags: W
HStem: 180 579
VStem: 230 485
LayerCount: 2
Fore
SplineSet
230 474 m 1
 472 759 l 1
 715 472 l 1
 474 180 l 1
 230 474 l 1
EndSplineSet
Validated: 1
Colour: ffffff
EndChar

StartChar: lslash
Encoding: 322 322 127
Width: 548
VWidth: 0
Flags: W
HStem: 0 55<60 128.544 431.32 492> 853 20G<458.364 480.762> 1197 52<64 112.197> 1250 20G<76.4762 343>
VStem: 213 130<87 569 662 671 763 1156>
DStem2: 68 549 52 443 0.788944 0.614466<0 126.686 348.455 449.356>
LayerCount: 2
Fore
SplineSet
52 443 m 1
 68 549 l 1
 213 662 l 1
 213 1156 l 1
 58 1197 l 1
 64 1249 l 1
 326 1270 l 1
 343 1254 l 1
 343 763 l 1
 484 873 l 1
 467 768 l 1
 343 671 l 1
 343 87 l 1
 503 57 l 1
 492 0 l 1
 50 0 l 1
 60 55 l 1
 213 87 l 1
 213 569 l 1
 52 443 l 1
EndSplineSet
Validated: 1
Colour: ffffff
EndChar

StartChar: m
Encoding: 109 109 128
Width: 1592
VWidth: 0
Flags: W
HStem: 0 54<90 158.096 451.936 506 646 705.584 981.728 1036 1175 1233.24 1517.31 1566> 781 108<512.424 719.275 1045.92 1247.5> 793 52<91 141.269>
VStem: 242 131<86 709.605> 779 126<86 701.37> 1305 132<87 721.514>
LayerCount: 2
Fore
SplineSet
81 0 m 1xdc
 90 54 l 1
 242 86 l 1
 242 753 l 1
 85 793 l 1
 91 845 l 1xbc
 360 875 l 1
 372 861 l 1
 361 728 l 1
 369 728 l 1
 433 807 550 889 676 889 c 0
 776 889 864 836 889 723 c 1
 900 723 l 1
 962 802 1075 885 1201 885 c 0
 1377 885 1437 770 1437 597 c 2
 1437 87 l 1
 1579 60 l 1
 1566 2 l 1
 1169 2 l 1
 1175 54 l 1
 1305 86 l 1
 1305 573 l 2
 1305 705 1242 780 1129 780 c 0
 1028 780 951 709 905 660 c 1
 905 86 l 1
 1044 58 l 1
 1036 0 l 1
 638 0 l 1
 646 54 l 1
 779 86 l 1
 779 573 l 2
 779 697 714 781 606 781 c 0
 515 781 427 733 373 666 c 1
 373 86 l 1
 516 58 l 1
 506 0 l 1
 81 0 l 1xdc
EndSplineSet
Validated: 1
Colour: ffffff
EndChar

StartChar: macron
Encoding: 175 175 129
Width: 667
VWidth: 0
Flags: W
HStem: 1380 76<119 550>
VStem: 108 452
LayerCount: 2
Fore
SplineSet
108 1380 m 1
 119 1456 l 1
 560 1456 l 1
 550 1380 l 1
 108 1380 l 1
EndSplineSet
Validated: 1
Colour: ffffff
EndChar

StartChar: minus
Encoding: 8722 8722 130
Width: 804
VWidth: 0
Flags: W
HStem: 421 84<107 701>
VStem: 90 628
LayerCount: 2
Fore
SplineSet
90 421 m 1
 107 505 l 1
 718 508 l 1
 701 424 l 1
 90 421 l 1
EndSplineSet
Validated: 1
Colour: ffffff
EndChar

StartChar: mu
Encoding: 956 956 131
Width: 1017
VWidth: 0
Flags: W
HStem: -24 106<387.708 586.908> -2 59<938 984> 803 54<66 107.493 557 602.479> 858 20G<77.8571 332 601.333 837>
VStem: 183 111<-362 -99.3685> 203 129<144.325 761> 709 128<90.877 131 147.256 759>
LayerCount: 2
Fore
SplineSet
58 803 m 1xb6
 66 857 l 1
 315 878 l 1
 332 860 l 1
 332 316 l 2
 332 152 396 82 502 82 c 0xb6
 592 82 660 138 709 186 c 1
 709 759 l 1
 551 795 l 1
 557 854 l 1
 823 878 l 1
 837 860 l 1
 837 222 l 2
 837 120 862 83 938 68 c 1
 990 57 l 1
 984 -2 l 1x76
 943 -14 907 -21 857 -21 c 0
 766 -21 721 42 721 119 c 2
 721 131 l 1
 709 131 l 1
 630 30 531 -24 431 -24 c 0
 366 -24 307 -1 277 49 c 1
 271 49 l 1
 274 31 275 -22 279 -86 c 2
 294 -388 l 1
 183 -362 l 1xba
 185 -335 203 180 203 494 c 2
 203 761 l 1
 58 803 l 1xb6
EndSplineSet
Validated: 1
Colour: ffffff
EndChar

StartChar: multiply
Encoding: 215 215 132
Width: 779
VWidth: 0
Flags: W
HStem: 236 445
VStem: 65 455
DStem2: 65 302 122 232 0.720521 0.693433<0 233.438 314.965 544.882> 137 681 66 625 0.707107 -0.707107<0 224.153 309.713 539.522>
LayerCount: 2
Fore
SplineSet
65 302 m 1
 235 462 l 1
 66 625 l 1
 137 681 l 1
 295 514 l 1
 464 686 l 1
 520 615 l 1
 352 458 l 1
 525 292 l 1
 455 236 l 1
 291 407 l 1
 122 232 l 1
 65 302 l 1
EndSplineSet
Validated: 1
Colour: ffffff
EndChar

StartChar: n
Encoding: 110 110 133
Width: 1071
VWidth: 0
Flags: W
HStem: 0 52<87 151.512 454.44 506 638 697.031 990.548 1043> 781 109<510.473 721.449> 794 52<92 141.976>
VStem: 240 130<86 709.208> 778 131<86 721.931>
LayerCount: 2
Fore
SplineSet
79 0 m 1xd8
 87 52 l 1
 240 86 l 1
 240 755 l 1
 85 794 l 1
 92 846 l 1xb8
 357 876 l 1
 369 862 l 1
 359 730 l 1
 367 730 l 1
 424 801 545 890 678 890 c 0
 815 890 909 798 909 600 c 2
 909 86 l 1
 1050 58 l 1
 1043 0 l 1
 630 0 l 1
 638 52 l 1
 778 86 l 1
 778 568 l 2
 778 721 700 781 608 781 c 0
 513 781 448 748 370 670 c 1
 370 86 l 1
 516 58 l 1
 506 0 l 1
 79 0 l 1xd8
EndSplineSet
Validated: 1
Colour: ffffff
EndChar

StartChar: nine
Encoding: 57 57 134
Width: 937
VWidth: 0
Flags: W
HStem: -27 58<231.304 287.827> 472 93<361.531 584.871> 1144 65<358.31 559.398>
VStem: 106 158<671.85 1000.79> 688 162<492.822 998.214>
LayerCount: 2
Fore
SplineSet
264 853 m 0
 264 698 337 565 488 565 c 0
 577 565 651 608 679 651 c 1
 687 696 688 755 688 793 c 0
 688 997 593 1144 473 1144 c 0
 321 1144 264 1036 264 853 c 0
106 818 m 0
 106 1043 284 1209 488 1209 c 0
 747 1209 850 994 850 760 c 0
 850 392 611 42 236 -27 c 1
 217 31 l 1
 543 128 646 354 676 576 c 1
 666 576 l 1
 603 516 520 472 407 472 c 0
 214 472 106 619 106 818 c 0
EndSplineSet
Validated: 1
Colour: ffffff
EndChar

StartChar: nine.osf
Encoding: 65540 -1 135
Width: 796
VWidth: 0
Flags: W
HStem: 223 92<283.993 505.769> 893 66<291.041 476.354>
VStem: 52 151<402.534 760.871> 595 154<384.934 766.695>
LayerCount: 2
Fore
SplineSet
203 602 m 0
 203 423 271 315 409 315 c 0
 495 315 558 355 587 398 c 1
 594 439 595 503 595 541 c 0
 595 745 509 893 389 893 c 0
 270 893 203 799 203 602 c 0
52 576 m 0
 52 788 209 959 408 959 c 0
 667 959 749 745 749 511 c 0
 749 175 491 -160 157 -271 c 1
 135 -213 l 1
 422 -83 533 123 583 322 c 1
 574 322 l 1
 519 265 446 223 335 223 c 0
 148 223 52 373 52 576 c 0
EndSplineSet
Validated: 1
Colour: ffffff
EndChar

StartChar: notequal
Encoding: 8800 8800 136
Width: 800
VWidth: 0
Flags: W
HStem: 327 85<29 234 384 730> 567 85<32 412 561 732> 852 20G<612 696.455>
DStem2: 50 54 148 58 0.567686 0.823245<58.9262 329.2 484.329 627.827 782.388 989.984>
LayerCount: 2
Fore
SplineSet
20 567 m 1
 32 652 l 1
 463 652 l 1
 612 869 l 1
 710 872 l 1
 561 652 l 1
 743 652 l 1
 732 567 l 1
 498 567 l 1
 384 412 l 1
 741 412 l 1
 730 327 l 1
 332 327 l 1
 148 58 l 1
 50 54 l 1
 234 327 l 1
 17 327 l 1
 29 412 l 1
 301 412 l 1
 412 567 l 1
 20 567 l 1
EndSplineSet
Validated: 1
Colour: ffffff
EndChar

StartChar: numbersign
Encoding: 35 35 137
Width: 914
VWidth: 0
Flags: W
HStem: -26 21G<185.011 275 502.011 593> 326 101<-3 235 342 552 660 879> 712 101<69 293 400 610 717 954>
DStem2: 182 -26 275 -19 0.148464 0.988918<20.7295 355.968 471.734 746.301 862.067 1189.25> 499 -26 593 -19 0.147766 0.989022<20.8131 355.967 471.817 746.3 862.003 1189.24>
LayerCount: 2
Back
SplineSet
261.599 313.002 m 1
 229.535 350.154 l 1
 414.791 909.487 l 1
 482.48 1069.3 l 1
 382.219 1069.3 l 1
 390.871 1112.56 l 1
 488.08 1112.56 l 1
 508.946 1233.18 l 1
 546.608 1239.79 l 1
 526.25 1112.56 l 1
 682.497 1112.56 l 1
 701.837 1233.18 l 1
 738.48 1238.27 l 1
 718.633 1112.56 l 1
 825.511 1112.56 l 1
 815.841 1069.3 l 1
 714.561 1069.3 l 1
 690.131 915.594 l 1
 789.376 915.594 l 1
 781.232 873.861 l 1
 683.006 873.861 l 1
 666.211 747.642 l 1
 625.495 743.062 l 1
 646.361 873.861 l 1
 491.642 873.861 l 1
 472.302 747.642 l 1
 431.078 743.062 l 1
 451.945 873.861 l 1
 261.599 313.002 l 1
285.52 713.543 m 1
 450.926 756.803 l 1
 981.757 910.505 l 1
 816.858 867.244 l 1
 285.52 713.543 l 1
EndSplineSet
Fore
SplineSet
593 -19 m 1
 499 -26 l 1
 552 326 l 1
 327 326 l 1
 275 -19 l 1
 182 -26 l 1
 235 326 l 1
 -30 326 l 1
 -3 427 l 1
 250 427 l 1
 293 712 l 1
 41 712 l 1
 69 813 l 1
 308 813 l 1
 359 1150 l 1
 452 1160 l 1
 400 813 l 1
 625 813 l 1
 676 1150 l 1
 769 1159 l 1
 717 813 l 1
 979 813 l 1
 954 712 l 1
 702 712 l 1
 660 427 l 1
 905 427 l 1
 879 326 l 1
 645 326 l 1
 593 -19 l 1
567 427 m 1
 610 712 l 1
 385 712 l 1
 342 427 l 1
 567 427 l 1
EndSplineSet
Validated: 1
Colour: ffffff
EndChar

StartChar: o
Encoding: 111 111 138
Width: 944
VWidth: 0
Flags: W
HStem: -27 81<390.606 635.285> 806 85<350.002 593.047>
VStem: 94 141<242.263 635.762> 747 141<218.65 614.447>
LayerCount: 2
Fore
SplineSet
235 483 m 0
 235 262 330 54 522 54 c 0
 665 54 747 205 747 380 c 0
 747 581 656 806 469 806 c 0
 318 806 235 659 235 483 c 0
94 411 m 0
 94 714 288 891 512 891 c 0
 744 891 888 694 888 439 c 0
 888 160 706 -27 487 -27 c 0
 249 -27 94 151 94 411 c 0
EndSplineSet
Validated: 1
Colour: ffffff
EndChar

StartChar: oe
Encoding: 339 339 139
Width: 1416
VWidth: 0
Flags: W
HStem: -30 103<978.511 1251.82> -27 84<362.304 590.109> 442 63<841 1069.72> 805 81<314.761 556.506 943.259 1148.66>
VStem: 70 143<247.132 644.08> 698 142<233.522 442 505 624.352> 1200 140<526.512 758.539>
LayerCount: 2
Fore
SplineSet
841 505 m 1x3e
 1192 527 l 1
 1197 545 1200 607 1200 623 c 0
 1200 742 1137 805 1041 805 c 0
 949 805 846 707 841 505 c 1x3e
213 489 m 0
 213 268 310 57 486 57 c 0x7e
 612 57 698 212 698 386 c 0
 698 587 613 807 435 807 c 0
 284 807 213 665 213 489 c 0
70 417 m 0
 70 721 261 890 466 890 c 0
 594 890 727 823 778 701 c 1
 835 797 948 886 1090 886 c 0
 1236 886 1340 801 1340 590 c 0
 1340 559 1332 482 1323 447 c 1
 840 442 l 1
 840 250 931 73 1126 73 c 0
 1209 73 1271 97 1346 148 c 1
 1368 104 l 1
 1300 25 1190 -30 1057 -30 c 0xbe
 919 -30 818 49 760 161 c 1
 681 30 571 -27 443 -27 c 0
 216 -27 70 156 70 417 c 0
EndSplineSet
Validated: 1
Colour: ffffff
EndChar

StartChar: ogonek
Encoding: 731 731 140
Width: 486
VWidth: 0
Flags: W
HStem: -387 43<349.445 358.335>
VStem: 125 123<-271.513 -91.3295>
LayerCount: 2
Fore
SplineSet
125 -209 m 0
 125 -156 145 -100 259 3 c 1
 318 3 l 1
 256 -85 248 -125 248 -157 c 0
 248 -229 291 -291 381 -344 c 1
 347 -387 l 1
 203 -372 125 -295 125 -209 c 0
EndSplineSet
Validated: 1
Colour: ffffff
EndChar

StartChar: one
Encoding: 49 49 141
Width: 889
VWidth: 0
Flags: W
HStem: 1 60<124 217.525 721.161 816> 1060 61<144 230.464>
VStem: 398 159<103 1060>
LayerCount: 2
Fore
SplineSet
120 1 m 1
 124 61 l 1
 398 103 l 1
 398 1060 l 1
 139 1060 l 1
 144 1121 l 1
 530 1185 l 1
 557 1185 l 1
 557 98 l 1
 825 70 l 1
 816 1 l 1
 120 1 l 1
EndSplineSet
Validated: 1
Colour: ffffff
EndChar

StartChar: one.osf
Encoding: 65541 -1 142
Width: 608
VWidth: 0
Flags: W
HStem: 1 60<64 131.584 522.058 590> 821 61<89 153.064>
VStem: 262 140<103 820>
LayerCount: 2
Fore
SplineSet
58 1 m 1
 64 61 l 1
 262 103 l 1
 262 820 l 1
 82 821 l 1
 89 882 l 1
 375 946 l 1
 402 946 l 1
 402 98 l 1
 598 69 l 1
 590 1 l 1
 58 1 l 1
EndSplineSet
Validated: 1
Colour: ffffff
EndChar

StartChar: onehalf
Encoding: 189 189 143
Width: 1009
VWidth: 0
Flags: W
HStem: 0 56<683 876> 429 55<701.082 821.067> 501 31<85 174.998 278.44 372> 915 31<94 171.892>
VStem: 198 69<550 915> 620 33<334.352 362.229> 840 74<243.338 417.566>
DStem2: 132 -30 215 -21 0.570846 0.821057<54.7697 1206.98> 702 123 683 56 0.763685 0.645589<-57.7645 160.824>
LayerCount: 2
Fore
SplineSet
605 41 m 1
 702 123 l 2
 767 179 840 247 840 328 c 0
 840 383 824 429 759 429 c 0
 703 429 671 373 653 327 c 1
 620 340 l 1
 635 407 700 484 783 484 c 0
 870 484 914 434 914 347 c 0
 914 233 787 150 721 86 c 1
 683 56 l 1
 876 56 l 1
 914 125 l 1
 942 121 l 1
 920 0 l 1
 608 0 l 1
 605 41 l 1
132 -30 m 1
 821 961 l 1
 902 968 l 1
 215 -21 l 1
 132 -30 l 1
82 501 m 1
 85 532 l 1
 198 550 l 1
 198 915 l 1
 90 915 l 1
 94 946 l 1
 257 976 l 1
 267 976 l 1
 267 548 l 1
 377 535 l 1
 372 501 l 1
 82 501 l 1
EndSplineSet
Validated: 1
Colour: ffffff
EndChar

StartChar: onequarter
Encoding: 188 188 144
Width: 1006
VWidth: 0
Flags: W
HStem: -5 21G<765 830> 143 49<629 763 830 926> 501 31<74 164.795 267.44 362> 915 31<83 160.892>
VStem: 188 68<550 915> 765 65<6 142 192 363>
DStem2: 141 -30 225 -21 0.570846 0.821057<55.3406 1206.98> 561 173 629 192 0.630593 0.776114<57.6265 274.841>
LayerCount: 2
Fore
SplineSet
629 192 m 1
 763 192 l 1
 763 363 l 1
 629 192 l 1
561 173 m 1
 808 477 l 1
 834 471 l 1
 831 424 830 346 830 273 c 2
 830 192 l 1
 933 192 l 1
 926 142 l 1
 830 142 l 1
 830 6 l 1
 765 -5 l 1
 765 143 l 1
 570 143 l 1
 561 173 l 1
141 -30 m 1
 830 961 l 1
 912 968 l 1
 225 -21 l 1
 141 -30 l 1
72 501 m 1
 74 532 l 1
 188 550 l 1
 188 915 l 1
 80 915 l 1
 83 946 l 1
 246 976 l 1
 256 976 l 1
 256 548 l 1
 366 535 l 1
 362 501 l 1
 72 501 l 1
EndSplineSet
Validated: 1
Colour: ffffff
EndChar

StartChar: onesuperior
Encoding: 185 185 145
Width: 241
VWidth: 0
Flags: W
HStem: 1009 23<49 98 149 200> 1244 22<54 98>
VStem: 54 95<1244 1266> 98 51<1045 1244>
LayerCount: 2
Fore
SplineSet
45 1009 m 1xd0
 49 1032 l 1
 98 1045 l 1
 98 1244 l 1xd0
 51 1244 l 1
 54 1266 l 1xe0
 140 1290 l 1
 149 1290 l 1
 149 1045 l 1
 203 1035 l 1
 200 1009 l 1
 45 1009 l 1xd0
EndSplineSet
Validated: 1
Colour: ffffff
EndChar

StartChar: ordfeminine
Encoding: 170 170 146
Width: 454
VWidth: 0
Flags: W
HStem: 287 50<64 397> 407 42<153.503 206.174 336.829 379.59> 437 12<209.333 218.195> 577 32<203.467 269> 738 39<162.029 242.459>
VStem: 86 62<450.445 547.345 683.961 735.263> 269 58<458.756 577 604.717 721.616>
LayerCount: 2
Fore
SplineSet
148 497 m 0xde
 148 464 164 449 192 449 c 0
 225 449 260 480 269 496 c 1
 269 577 l 1
 170 562 148 534 148 497 c 0xde
86 479 m 0
 86 537 138 588 269 609 c 1
 269 631 l 2
 269 692 248 738 195 738 c 0
 158 738 154 708 148 659 c 1
 127 659 98 660 98 700 c 0
 98 743 173 777 229 777 c 0
 300 777 327 737 327 653 c 2
 327 507 l 2
 327 466 341 459 382 453 c 1
 389 434 l 1
 379 432 371 412 359 412 c 0
 326 410 320 423 308 436 c 1
 285 436 276 452 276 464 c 1
 274 467 l 1
 268 453 245 437 218 437 c 1xbe
 191 423 216 407 163 407 c 0
 122 407 86 430 86 479 c 0
57 287 m 1
 64 337 l 1
 403 337 l 1
 397 287 l 1
 57 287 l 1
EndSplineSet
Validated: 1
Colour: ffffff
EndChar

StartChar: ordmasculine
Encoding: 186 186 147
Width: 461
VWidth: 0
Flags: W
HStem: 287 54<67 399> 402 38<188.044 282.761> 733 40<168.766 271.075>
VStem: 69 68<476.879 703.198> 318 67<470.899 699.066>
LayerCount: 2
Fore
SplineSet
137 602 m 0
 137 504 180 440 236 440 c 0
 290 440 318 490 318 576 c 0
 318 667 282 733 220 733 c 0
 167 733 137 690 137 602 c 0
69 584 m 0
 69 708 148 773 235 773 c 0
 334 773 385 700 385 589 c 0
 385 478 317 402 225 402 c 0
 119 402 69 480 69 584 c 0
60 287 m 1
 67 341 l 1
 405 341 l 1
 399 287 l 1
 60 287 l 1
EndSplineSet
Validated: 1
Colour: ffffff
EndChar

StartChar: oslash
Encoding: 248 248 148
Width: 944
VWidth: 0
Flags: W
HStem: -27 81<386.488 627.745> 0 21G<73.6744 193> 819 84<345.04 588.894> 860 20G<783 901.453>
VStem: 88 143<244.573 643.806> 741 142<223.256 627.831>
DStem2: 170 129 193 6 0.63845 0.769663<-79.9842 -13.1468 148.604 725.03 892.037 963.999>
LayerCount: 2
Fore
SplineSet
88 417 m 0x4c
 88 723 283 903 507 903 c 0x6c
 600 903 678 871 739 816 c 1
 783 873 l 1
 918 880 l 1
 803 741 l 1
 855 661 883 558 883 445 c 0
 883 166 701 -27 482 -27 c 0x9c
 384 -27 300 4 235 58 c 1
 193 6 l 1
 56 0 l 1
 170 129 l 1
 117 204 88 303 88 417 c 0x4c
692 638 m 1
 309 176 l 1
 356 102 426 54 517 54 c 0x8c
 660 54 741 211 741 386 c 0
 741 471 725 562 692 638 c 1
663 695 m 1
 617 769 551 819 464 819 c 0x2c
 313 819 231 665 231 489 c 0
 231 396 248 305 281 230 c 1
 663 695 l 1
EndSplineSet
Validated: 1
Colour: ffffff
EndChar

StartChar: p
Encoding: 112 112 149
Width: 978
VWidth: 0
Flags: W
HStem: -373 58<58 130.636 418.882 486> -20 84<380.418 658.003> 781 105<468.854 676.945> 792 53<64 114.099>
VStem: 210 130<-285 705.076> 778 142<241.033 657.797>
LayerCount: 2
Fore
SplineSet
52 -373 m 1xec
 58 -315 l 1
 210 -285 l 1
 210 754 l 1
 56 792 l 1
 64 845 l 1xdc
 329 873 l 1
 342 859 l 1
 333 722 l 1
 340 722 l 1
 391 793 489 886 620 886 c 0
 791 886 920 761 920 462 c 0
 920 177 735 -20 482 -20 c 0
 452 -20 413 -15 380 -9 c 1
 375 87 l 1
 421 69 457 64 536 64 c 0
 675 64 778 189 778 404 c 0
 778 638 709 781 554 781 c 0
 461 781 390 714 340 662 c 1
 340 -286 l 1
 496 -312 l 1
 486 -373 l 1
 52 -373 l 1xec
EndSplineSet
Validated: 1
Colour: ffffff
EndChar

StartChar: paragraph
Encoding: 182 182 150
Width: 1291
VWidth: 0
Flags: W
HStem: 0 58<510 594.178 1157.98 1235> 463 74<482.784 624> 1171 74<459.788 739> 1188 57<1151 1231>
VStem: 144 169<683.311 1010.16> 739 130<97 1169> 936 122<89 1157>
LayerCount: 2
Fore
SplineSet
936 0 m 1xde
 936 1245 l 1
 1238 1245 l 1
 1231 1188 l 1
 1058 1157 l 1
 1058 89 l 1
 1244 63 l 1
 1235 -1 l 1
 936 0 l 1xde
144 836 m 0
 144 1074 358 1245 604 1245 c 2xee
 869 1245 l 1xde
 869 0 l 1
 504 0 l 1
 510 58 l 1
 739 97 l 1
 739 1169 l 1
 698 1171 658 1171 649 1171 c 0xee
 414 1171 313 1059 313 852 c 0
 313 681 426 537 642 537 c 1
 624 463 l 1
 363 463 144 544 144 836 c 0
EndSplineSet
Validated: 1
Colour: ffffff
EndChar

StartChar: parenright
Encoding: 41 41 151
Width: 474
VWidth: 0
Flags: W
HStem: -375 21G<74.6667 121.5> 1236 20G<77.5455 124>
VStem: 283 145<114.864 791.951>
LayerCount: 2
Fore
SplineSet
54 1201 m 1
 91 1256 l 1
 157 1200 428 975 428 450 c 0
 428 -66 147 -328 96 -375 c 1
 48 -330 l 1
 93 -257 283 40 283 456 c 0
 283 881 140 1088 54 1201 c 1
EndSplineSet
Validated: 1
Colour: ffffff
EndChar

StartChar: partialdiff
Encoding: 8706 8706 152
Width: 923
VWidth: 0
Flags: W
HStem: -27 77<390.123 612.522> 875 74<354.498 552.549>
VStem: 105 139<230.536 701.936> 718 138<213.137 665.441>
LayerCount: 2
Fore
SplineSet
244 499 m 1
 246 207 359 50 504 50 c 0
 659 50 718 210 718 425 c 0
 718 700 580 873 454 875 c 1
 449 875 l 1
 301 873 244 702 244 499 c 1
105 451 m 0
 105 746 254 949 467 949 c 0
 546 949 634 896 664 820 c 1
 672 821 l 1
 625 1015 450 1225 359 1303 c 1
 450 1303 l 1
 724 1135 856 824 856 465 c 0
 856 157 695 -27 480 -27 c 0
 220 -27 105 208 105 451 c 0
EndSplineSet
Validated: 1
Colour: ffffff
EndChar

StartChar: percent
Encoding: 37 37 153
Width: 1738
VWidth: 0
Flags: W
HStem: -36 52<847.722 950.409> 546 45<847.192 940.404> 584 53<248.942 351.586> 1150 46<479 856> 1168 45<247.167 333.509>
VStem: 56 128<714.685 1071.93> 414 128<728.713 1117.62> 652 129<93.714 449.93> 1012 126<107.471 461>
DStem2: 164 -26 310 -40 0.509399 0.860531<62.3248 719.9 782.081 979.596>
LayerCount: 2
Fore
SplineSet
781 277 m 0xc780
 781 159 821 16 896 16 c 0
 980 16 1012 158 1012 280 c 0
 1012 400 970 546 894 546 c 0
 809 546 781 391 781 277 c 0xc780
652 277 m 0
 652 446 771 591 894 591 c 0
 1036 591 1138 453 1138 274 c 0
 1138 105 1014 -36 896 -36 c 0
 769 -36 652 87 652 277 c 0
164 -26 m 1
 540 588 l 1
 856 1143 l 1
 479 1150 l 1xd780
 519 1103 542 949 542 899 c 0
 542 726 415 584 297 584 c 0
 170 584 56 707 56 899 c 0
 56 1068 175 1213 298 1213 c 0
 316 1213 328 1211 334 1209 c 1
 334 1153 l 1
 319 1164 313 1168 294 1168 c 0xaf80
 212 1168 184 1013 184 899 c 0
 184 781 222 637 297 637 c 0
 381 637 414 779 414 899 c 0
 414 1042 392 1137 368 1196 c 1xb780
 895 1211 l 1
 1025 1207 l 1
 1023 1191 l 1
 657 591 l 1
 310 -40 l 1
 164 -26 l 1
EndSplineSet
Validated: 1
Colour: ffffff
EndChar

StartChar: period
Encoding: 46 46 154
Width: 391
VWidth: 0
Flags: W
HStem: -32 218<125.617 275.578>
VStem: 109 183<-17.8083 171.924>
LayerCount: 2
Fore
SplineSet
109 81 m 0
 109 145 145 186 199 186 c 0
 253 186 292 144 292 80 c 0
 292 13 256 -32 200 -32 c 0
 144 -32 109 15 109 81 c 0
EndSplineSet
Validated: 1
Colour: ffffff
EndChar

StartChar: periodcentered
Encoding: 183 183 155
Width: 402
VWidth: 0
Flags: W
HStem: 391 217<127.751 278.916>
VStem: 111 184<404.939 595.393>
LayerCount: 2
Fore
SplineSet
111 503 m 0
 111 567 149 608 203 608 c 0
 257 608 295 567 295 503 c 0
 295 436 259 391 203 391 c 0
 147 391 111 437 111 503 c 0
EndSplineSet
Validated: 1
Colour: ffffff
EndChar

StartChar: perthousand
Encoding: 8240 8240 156
Width: 1797
VWidth: 0
Flags: W
HStem: -36 52<847.722 950.409 1419.7 1523.78> 546 45<847.192 940.404 1419.17 1510.99> 584 53<248.942 351.586> 1150 46<479 856> 1168 45<247.167 333.509>
VStem: 56 128<714.685 1071.93> 414 128<728.713 1117.62> 652 129<93.714 449.93> 1012 126<107.471 461> 1223 130<92.714 448.93> 1584 126<106.209 459.761>
DStem2: 164 -26 310 -40 0.509399 0.860531<62.3248 719.9 782.081 999.634>
LayerCount: 2
Fore
SplineSet
1353 276 m 0x87e0
 1353 158 1393 15 1468 15 c 0
 1552 15 1584 156 1584 278 c 0
 1584 398 1542 545 1466 545 c 0
 1381 545 1353 390 1353 276 c 0x87e0
1223 276 m 0
 1223 445 1343 590 1466 590 c 0
 1608 590 1710 452 1710 273 c 0
 1710 104 1586 -37 1468 -37 c 0
 1341 -37 1223 86 1223 276 c 0
781 277 m 0
 781 159 821 16 896 16 c 0
 980 16 1012 158 1012 280 c 0
 1012 400 970 546 894 546 c 0xc7e0
 809 546 781 391 781 277 c 0
652 277 m 0
 652 446 771 591 894 591 c 0
 1036 591 1138 453 1138 274 c 0
 1138 105 1014 -36 896 -36 c 0
 769 -36 652 87 652 277 c 0
164 -26 m 1
 540 588 l 1
 856 1143 l 1
 479 1150 l 1xd7e0
 519 1103 542 949 542 899 c 0
 542 726 415 584 297 584 c 0
 170 584 56 707 56 899 c 0
 56 1068 175 1213 298 1213 c 0
 316 1213 328 1211 334 1209 c 1
 334 1153 l 1
 319 1164 313 1168 294 1168 c 0xafe0
 212 1168 184 1013 184 899 c 0
 184 781 222 637 297 637 c 0
 381 637 414 779 414 899 c 0
 414 1042 392 1137 368 1196 c 1xb7e0
 895 1211 l 1
 1025 1207 l 1
 1025 1192 l 1
 657 591 l 1
 310 -40 l 1
 164 -26 l 1
EndSplineSet
Validated: 1
Colour: ffffff
EndChar

StartChar: plus
Encoding: 43 43 157
Width: 680
VWidth: 0
Flags: W
HStem: 417 86<99 308 397 606>
VStem: 308 89<186 417 503 730>
LayerCount: 2
Fore
SplineSet
87 417 m 1
 99 503 l 1
 308 503 l 1
 308 742 l 1
 396 730 l 1
 397 503 l 1
 617 503 l 1
 606 417 l 1
 397 417 l 1
 399 173 l 1
 308 186 l 1
 308 417 l 1
 87 417 l 1
EndSplineSet
Validated: 1
Colour: ffffff
EndChar

StartChar: product
Encoding: 8719 8719 158
Width: 1446
VWidth: 0
Flags: W
HStem: 0 63<97 144.246 535.685 588 922 968.68 1355.72 1410> 1160 84<414 1087> 1187 57<90 161.631 1325.77 1403>
VStem: 264 150<96 1154> 1087 149<96 1156>
LayerCount: 2
Fore
SplineSet
83 1187 m 1xb8
 90 1244 l 1
 1412 1244 l 1
 1403 1187 l 1xb8
 1236 1156 l 1
 1236 90 l 1
 1419 63 l 1
 1410 0 l 1
 911 0 l 1
 922 58 l 1
 1087 96 l 1
 1087 1161 l 1
 414 1160 l 1xd8
 414 90 l 1
 600 63 l 1
 588 0 l 1
 90 0 l 1
 97 58 l 1
 264 96 l 1
 264 1154 l 1
 83 1187 l 1xb8
EndSplineSet
Validated: 1
Colour: ffffff
EndChar

StartChar: q
Encoding: 113 113 159
Width: 963
VWidth: 0
Flags: W
HStem: -367 59<527 604.312 889.568 963> -21 99<338.652 582.384> 809 80<357.249 597.57>
VStem: 88 139<213.452 611.461> 678 133<-280 742.296>
LayerCount: 2
Fore
SplineSet
88 407 m 0
 88 679 303 889 513 889 c 0
 593 889 664 861 694 845 c 1
 788 878 l 1
 811 878 l 1
 811 -280 l 1
 972 -306 l 1
 963 -367 l 1
 519 -367 l 1
 527 -308 l 1
 678 -280 l 1
 678 691 l 1
 643 745 570 809 464 809 c 0
 334 809 227 672 227 468 c 0
 227 203 322 78 465 78 c 0
 510 78 597 94 647 127 c 1
 651 71 l 1
 588 11 486 -21 405 -21 c 0
 229 -21 88 107 88 407 c 0
EndSplineSet
Validated: 1
Colour: ffffff
EndChar

StartChar: question
Encoding: 63 63 160
Width: 619
VWidth: 0
Flags: W
HStem: -35 219<209.154 357.079> 1147 140<135.481 382.336>
VStem: 164 104<407.669 596.779> 191 183<-19.6879 169.226> 473 94<848.592 1070.84>
LayerCount: 2
Fore
SplineSet
191 79 m 0xd8
 191 140 232 184 282 184 c 0
 333 184 374 139 374 78 c 0
 374 14 340 -35 282 -35 c 0
 226 -35 191 17 191 79 c 0xd8
40 1159 m 0
 40 1217 114 1287 238 1287 c 0
 405 1287 567 1110 567 893 c 0
 567 661 268 670 268 508 c 0
 268 468 283 420 303 371 c 1
 245 354 l 1
 209 395 164 484 164 565 c 0xe8
 164 786 473 765 473 943 c 0
 473 1048 387 1147 291 1147 c 0
 215 1147 142 1119 99 1073 c 1
 69 1087 40 1119 40 1159 c 0
EndSplineSet
Validated: 1
Colour: ffffff
EndChar

StartChar: quotedbl
Encoding: 34 34 161
Width: 437
VWidth: 0
Flags: W
HStem: 891 412
VStem: 139 73<899 1055.07> 326 74<899 1050.63>
LayerCount: 2
Fore
SplineSet
289 1303 m 1
 436 1291 l 1
 400 899 l 1
 326 891 l 1
 289 1303 l 1
103 1303 m 1
 248 1291 l 1
 212 899 l 1
 139 891 l 1
 103 1303 l 1
EndSplineSet
Validated: 1
Colour: ffffff
EndChar

StartChar: quotereversed
Encoding: 8219 8219 162
Width: 393
VWidth: 0
Flags: W
HStem: 773 56<287.975 334.864> 1142 145<196.184 264.717>
VStem: 51 118<926.955 1113.9>
LayerCount: 2
Fore
SplineSet
51 1080 m 0
 51 1225 137 1287 210 1287 c 0
 280 1287 339 1223 309 1142 c 1
 230 1153 169 1095 169 1020 c 0
 169 947 212 874 349 829 c 1
 330 773 l 1
 94 841 51 986 51 1080 c 0
EndSplineSet
Validated: 33
Colour: ffffff
EndChar

StartChar: quotesingle
Encoding: 39 39 163
Width: 333
VWidth: 0
Flags: W
HStem: 891 412
VStem: 148 73<899 1050.63>
LayerCount: 2
Fore
SplineSet
111 1303 m 1
 257 1291 l 1
 221 899 l 1
 148 891 l 1
 111 1303 l 1
EndSplineSet
Validated: 1
Colour: ffffff
EndChar

StartChar: r
Encoding: 114 114 164
Width: 738
VWidth: 0
Flags: W
HStem: -0 52<84 149.355 507.409 591> 756 139<496.848 670.682> 796 52<88 137.814> 857 20G<168.379 363>
VStem: 239 130<88 627.582>
LayerCount: 2
Back
SplineSet
474.94 422.059 m 1
 450.775 442.772 430.696 472.47 408.603 472.47 c 1
 389.27 472.47 467.473 477.182 446.758 453.016 c 1
 426.044 428.85 412.58 852.905 406.366 810.095 c 1
 308.14 587.098 l 1
 455.174 583.688 l 1
 595.026 541.52 l 1
 254.7 535.92 l 1
 256.859 419.665 l 1
 357.234 444.522 l 1
 374.538 550.383 436.121 1010.48 516.025 1010.48 c 1
 550.634 1010.48 484.762 1020.16 484.762 984.531 c 1
 484.762 963.664 483.886 998.584 463.528 984.841 c 1
 445.205 1018.94 598.427 1058.54 571.961 1058.54 c 1
 490.529 1058.54 470.896 907.644 459.189 808.907 c 1
 448.831 433.355 l 1
 604.782 421.141 l 1
 620.665 475.688 637.487 494.732 664.416 524.076 c 1
 691.346 553.421 718.964 568.093 747.274 568.093 c 1
 770.058 568.093 788.355 561.016 802.166 546.862 c 1
 815.976 532.707 822.879 515.963 822.879 496.63 c 1
 822.879 469.012 507.393 444.154 474.94 422.059 c 1
EndSplineSet
Fore
SplineSet
76 -0 m 1xc8
 84 52 l 1
 239 86 l 1
 239 757 l 1
 79 796 l 1
 88 848 l 1
 347 877 l 1xb8
 363 860 l 1
 349 615 l 1
 363 615 l 1
 411 788 506 895 603 895 c 0
 673 895 714 850 714 799 c 0
 714 766 691 731 652 704 c 1
 618 739 584 756 545 756 c 0
 463 756 391 626 369 464 c 1
 369 88 l 1
 599 61 l 1
 591 -0 l 1
 76 -0 l 1xc8
EndSplineSet
Validated: 1
Colour: ffffff
EndChar

StartChar: radical
Encoding: 8730 8730 165
Width: 1000
VWidth: 0
Flags: W
HStem: 458 59<25 102.211>
DStem2: 278 533 161 434 0.36316 -0.931727<49.7513 508.555> 452 55 475 -116 0.356242 0.934394<0 1325.59>
LayerCount: 2
Fore
SplineSet
15 458 m 1
 25 517 l 1
 278 533 l 1
 452 55 l 1
 918 1296 l 1
 1016 1303 l 1
 475 -116 l 1
 382 -133 l 1
 161 434 l 1
 15 458 l 1
EndSplineSet
Validated: 1
Colour: ffffff
EndChar

StartChar: registered
Encoding: 174 174 166
Width: 510
VWidth: 0
Flags: W
HStem: 837 33<176.2 334.605> 954 18<141 178> 1186 23<143 178 222 273.838> 1277 31<177.212 330.843>
VStem: 31 38<978.803 1172.21> 178 44<1085 1178> 291 49<1099.71 1179.17> 445 38<975.442 1162.05>
LayerCount: 2
Fore
SplineSet
222 1085 m 1
 256 1085 l 2
 280 1085 291 1108 291 1138 c 0
 291 1169 269 1186 238 1186 c 0
 232 1186 222 1185 222 1185 c 1
 222 1085 l 1
140 954 m 1
 141 972 l 1
 178 980 l 1
 178 1178 l 1
 141 1185 l 1
 143 1202 l 1
 176 1205 208 1209 232 1209 c 0
 309 1209 340 1187 340 1146 c 0
 340 1121 322 1097 285 1081 c 1
 325 1026 l 1
 343 999 360 982 387 973 c 1
 388 963 l 1
 384 961 377 952 373 952 c 0
 353 950 336 963 323 978 c 1
 308 978 278 1018 269 1033 c 1
 238 1061 l 1
 222 1021 l 1
 239 977 l 1
 255 963 l 1
 255 954 l 1
 140 954 l 1
69 1076 m 0
 69 953 143 870 252 870 c 0
 367 870 445 948 445 1066 c 0
 445 1194 366 1277 253 1277 c 0
 142 1277 69 1197 69 1076 c 0
31 1069 m 0
 31 1213 118 1308 253 1308 c 0
 391 1308 483 1212 483 1070 c 0
 483 929 390 837 249 837 c 0
 118 837 31 930 31 1069 c 0
EndSplineSet
Validated: 1
Colour: ffffff
EndChar

StartChar: ring
Encoding: 730 730 167
Width: 517
VWidth: 0
Flags: W
HStem: 1362 45<213.97 328.332> 1656 44<204.922 314.543>
VStem: 104 67<1439.84 1629.51> 360 68<1431.9 1623.14>
LayerCount: 2
Fore
SplineSet
171 1540 m 0
 171 1478 204 1407 270 1407 c 0
 326 1407 360 1449 360 1524 c 0
 360 1588 324 1656 260 1656 c 0
 198 1656 171 1598 171 1540 c 0
104 1528 m 0
 104 1620 177 1700 271 1700 c 0
 367 1700 428 1631 428 1537 c 0
 428 1447 361 1362 259 1362 c 0
 167 1362 104 1426 104 1528 c 0
EndSplineSet
Validated: 1
Colour: ffffff
EndChar

StartChar: s
Encoding: 115 115 168
Width: 692
VWidth: 0
Flags: W
HStem: -35 75<268.719 487.395> 825 64<254.441 427.774>
VStem: 71 106<138.868 207.789> 108 106<601.693 778.76> 529 118<81.93 249.729>
LayerCount: 2
Fore
SplineSet
71 154 m 0xe8
 71 216 118 257 177 264 c 1xe8
 211 106 274 40 380 40 c 0
 466 40 529 90 529 160 c 0
 529 337 108 376 108 637 c 0
 108 754 195 889 385 889 c 0
 516 889 615 814 615 713 c 0
 615 636 570 602 510 597 c 1
 502 636 l 1
 467 790 407 825 347 825 c 0
 264 825 214 774 214 700 c 0xd8
 214 499 647 461 647 212 c 0
 647 64 502 -35 348 -35 c 0
 188 -35 71 45 71 154 c 0xe8
EndSplineSet
Validated: 1
Colour: ffffff
EndChar

StartChar: section
Encoding: 167 167 169
Width: 875
VWidth: 0
Flags: W
HStem: -381 82<291.378 588.082> 869 21G<660 734.824> 1200 70<326.631 560.238>
VStem: 96 76<-62.84 29> 113 135<876.41 1103.7> 660 73<878 998.202> 686 145<-186.142 35.1451>
LayerCount: 2
Fore
SplineSet
113 938 m 0xec
 113 1151 294 1270 473 1270 c 0
 581 1270 687 1235 760 1165 c 1
 760 1161 733 869 733 869 c 1
 660 878 l 1
 634 1096 l 1
 607 1147 525 1200 444 1200 c 0
 338 1200 248 1132 248 1001 c 0
 248 698 850 683 830 318 c 1
 453 546 l 2
 295 642 113 735 113 938 c 0xec
75 -238 m 1
 96 39 l 1
 172 29 l 1
 204 -176 l 1
 245 -248 343 -299 446 -299 c 0
 561 -299 686 -229 686 -81 c 0
 686 193 100 223 118 576 c 1
 464 369 l 2
 630 270 831 181 831 -25 c 0xf2
 831 -234 647 -381 409 -381 c 0
 265 -381 139 -317 75 -238 c 1
EndSplineSet
Validated: 33
Colour: ffffff
EndChar

StartChar: seven
Encoding: 55 55 170
Width: 919
VWidth: 0
Flags: W
HStem: 1047 135<205 756>
VStem: 83 54<826.611 867.857>
LayerCount: 2
Fore
SplineSet
83 829 m 1
 111 1182 l 1
 874 1182 l 1
 874 1130 l 1
 441 -33 l 1
 282 -16 l 1
 756 1047 l 1
 205 1047 l 1
 137 820 l 1
 83 829 l 1
EndSplineSet
Validated: 1
Colour: ffffff
EndChar

StartChar: seven.osf
Encoding: 65542 -1 171
Width: 723
VWidth: 0
Flags: W
HStem: 806 127<143 594>
VStem: 28 52<604.243 644.559> 136 150<-284.805 -18.9953>
LayerCount: 2
Fore
SplineSet
28 607 m 1
 60 933 l 1
 704 933 l 1
 710 859 l 1
 489 461 320 157 286 -299 c 1
 277 -299 263 -304 255 -304 c 0
 170 -304 136 -255 136 -185 c 0
 136 31 451 566 594 806 c 1
 143 806 l 1
 80 597 l 1
 28 607 l 1
EndSplineSet
Validated: 1
Colour: ffffff
EndChar

StartChar: six
Encoding: 54 54 172
Width: 940
VWidth: 0
Flags: W
HStem: -21 65<411.384 618.638> 619 90<379.655 611.634>
VStem: 120 163<187.263 605.208> 712 163<181.314 509.481>
LayerCount: 2
Fore
SplineSet
283 407 m 0
 283 199 376 44 499 44 c 0
 657 44 712 156 712 327 c 0
 712 482 635 619 484 619 c 0
 393 619 315 576 290 540 c 1
 285 506 283 442 283 407 c 0
120 422 m 0
 120 758 373 1104 694 1214 c 1
 723 1164 l 1
 442 1039 333 808 293 609 c 1
 302 609 l 1
 354 657 435 709 557 709 c 0
 752 709 875 563 875 362 c 0
 875 140 701 -21 484 -21 c 0
 221 -21 120 188 120 422 c 0
EndSplineSet
Validated: 1
Colour: ffffff
EndChar

StartChar: six.osf
Encoding: 65543 -1 173
Width: 807
VWidth: 0
Flags: W
HStem: -21 69<349.45 533.727> 619 92<333.766 537.542>
VStem: 81 158<172.397 603.581> 623 152<189.09 525.696>
LayerCount: 2
Fore
SplineSet
239 407 m 0
 239 199 319 48 439 48 c 0
 562 48 623 176 623 327 c 0
 623 482 568 619 417 619 c 0
 343 619 279 579 249 544 c 1
 244 510 239 442 239 407 c 0
81 422 m 0
 81 739 323 1109 651 1218 c 1
 679 1167 l 1
 411 1052 293 813 253 614 c 1
 261 614 l 1
 320 671 407 711 494 711 c 0
 674 711 775 557 775 372 c 0
 775 164 612 -21 418 -21 c 0
 163 -21 81 188 81 422 c 0
EndSplineSet
Validated: 1
Colour: ffffff
EndChar

StartChar: slash
Encoding: 47 47 174
Width: 610
VWidth: 0
Flags: W
HStem: 1224 20G<498 599.171>
VStem: 35 570
DStem2: 35 -361 139 -355 0.279792 0.96006<34.8588 1664.68>
LayerCount: 2
Fore
SplineSet
35 -361 m 1
 498 1238 l 1
 605 1244 l 1
 139 -355 l 1
 35 -361 l 1
EndSplineSet
Validated: 1
Colour: ffffff
EndChar

StartChar: softhyphen
Encoding: 173 173 175
Width: 573
VWidth: 0
Flags: W
HStem: 420 150
VStem: 82 416
DStem2: 90 509 82 420 0.989007 0.147866<0 391.315>
LayerCount: 2
Fore
SplineSet
82 420 m 1
 90 509 l 1
 498 570 l 1
 490 480 l 1
 82 420 l 1
EndSplineSet
Validated: 1
Colour: ffffff
EndChar

StartChar: sterling
Encoding: 163 163 177
Width: 1092
VWidth: 0
Flags: W
HStem: 0 78<391 890> 0 58<89 152.38> 552 79<131 298> 892 21G<806 874.944> 1171 80<534.145 774.235>
VStem: 301 154<135.186 561 648 1025.95> 806 67<902 1012.53>
DStem2: 455 648 453 568 0.998477 0.0551645<0 204.986>
LayerCount: 2
Fore
SplineSet
82 0 m 1x7e
 89 58 l 1x7e
 257 96 l 1
 286 199 294 313 297 461 c 1
 298 561 l 1
 120 552 l 1
 131 631 l 1
 301 641 l 1
 304 786 l 1
 312 1107 445 1251 672 1251 c 0
 753 1251 825 1244 904 1211 c 1
 873 892 l 1
 806 902 l 1
 775 1141 l 1
 754 1152 693 1171 657 1171 c 0
 497 1171 458 1089 455 702 c 1
 455 648 l 1
 674 661 l 1
 664 581 l 1
 453 568 l 1
 453 516 l 1
 451 333 432 174 391 78 c 1xbe
 890 77 l 1
 1001 336 l 1
 1064 322 l 1
 1030 0 l 1
 82 0 l 1x7e
EndSplineSet
Validated: 1
Colour: ffffff
EndChar

StartChar: summation
Encoding: 8721 8721 178
Width: 1104
VWidth: 0
Flags: W
HStem: 0 108<208 929> 1173 71<221 911>
VStem: 941 66<934 1048.21>
DStem2: 221 1173 40 1194 0.673649 -0.739052<0 627.043> 47 58 208 108 0.671225 0.741254<145.13 756.826>
LayerCount: 2
Fore
SplineSet
40 1194 m 1
 51 1244 l 1
 1038 1244 l 1
 1007 925 l 1
 941 934 l 1
 911 1173 l 1
 221 1173 l 1
 687 676 l 1
 683 637 l 1
 208 108 l 1
 929 108 l 1
 1015 357 l 1
 1077 347 l 1
 1047 0 l 1
 47 0 l 1
 47 58 l 1
 555 619 l 1
 555 629 l 1
 40 1194 l 1
EndSplineSet
Validated: 1
Colour: ffffff
EndChar

StartChar: t
Encoding: 116 116 179
Width: 640
VWidth: 0
Flags: W
HStem: -24 122<357.168 530.367> 768 72<327 602> 771 40<66 101.855>
VStem: 189 134<131.155 768> 280 47<1017.84 1068>
LayerCount: 2
Fore
SplineSet
66 771 m 1xb0
 66 811 l 1xb0
 166 856 230 944 280 1068 c 1
 327 1068 l 1
 327 840 l 1
 610 840 l 1
 602 768 l 1
 326 768 l 1xc8
 323 317 l 1
 323 310 l 2
 323 142 367 98 461 98 c 0
 535 98 616 163 616 163 c 1
 635 119 l 1
 575 33 481 -24 380 -24 c 0
 257 -24 189 53 189 251 c 2
 189 283 l 1
 193 771 l 1
 66 771 l 1xb0
EndSplineSet
Validated: 1
Colour: ffffff
EndChar

StartChar: tbar
Encoding: 359 359 180
Width: 654
VWidth: 0
Flags: W
HStem: -24 122<363.168 536.367> 486 94<81 197 331 601> 768 72<333 608> 771 40<72 107.855>
VStem: 195 134<131.155 486 580 768> 286 47<1017.84 1068>
LayerCount: 2
Fore
SplineSet
72 486 m 1xe8
 81 580 l 1
 197 580 l 1
 199 771 l 1
 72 771 l 1
 72 811 l 1xd8
 172 856 236 944 286 1068 c 1
 333 1068 l 1
 333 840 l 1xe4
 616 840 l 1
 608 768 l 1
 332 768 l 1
 331 580 l 1
 608 580 l 1
 601 486 l 1
 330 486 l 1
 329 317 l 1
 329 310 l 2
 329 142 373 98 467 98 c 0
 541 98 622 163 622 163 c 1
 641 119 l 1
 581 33 487 -24 386 -24 c 0
 263 -24 195 53 195 251 c 2
 195 283 l 1
 197 486 l 1
 72 486 l 1xe8
EndSplineSet
Validated: 1
Colour: ffffff
EndChar

StartChar: tcaron
Encoding: 357 357 181
Width: 640
VWidth: 0
Flags: W
HStem: -24 122<357.168 530.367> 552 58<567.551 614.036> 768 72<327 602> 771 40<66 101.855> 924 144<603.416 707.966>
VStem: 189 134<131.155 768> 280 47<1017.84 1068> 734 118<706.658 898.883>
LayerCount: 2
Fore
SplineSet
554 610 m 1xc9
 691 655 734 727 734 800 c 0
 734 871 686 924 622 924 c 0
 613 924 602 923 593 921 c 1
 588 936 585 946 585 962 c 0
 585 1030 639 1068 693 1068 c 0
 766 1068 852 1004 852 859 c 0
 852 765 808 620 572 552 c 1
 554 610 l 1xc9
66 771 m 1xdd
 66 811 l 1xdd
 166 856 230 944 280 1068 c 1
 327 1068 l 1
 327 840 l 1
 610 840 l 1
 602 768 l 1
 326 768 l 1xeb
 323 317 l 1
 323 310 l 2
 323 142 367 98 461 98 c 0
 535 98 616 163 616 163 c 1
 635 119 l 1
 575 33 481 -24 380 -24 c 0
 257 -24 189 53 189 251 c 2
 189 283 l 1
 193 771 l 1
 66 771 l 1xdd
EndSplineSet
Validated: 1
Colour: ffffff
EndChar

StartChar: thorn
Encoding: 254 254 182
Width: 961
VWidth: 0
Flags: W
HStem: -370 59<45 120.14 402.128 472> -17 83<377.557 635.125> 792 106<449.43 657.258> 1196 54<52 95.2> 1250 20G<52 329>
VStem: 197 129<-282 720.205 740 1154> 760 145<242.776 667.008>
LayerCount: 2
Fore
SplineSet
39 -370 m 1xee
 45 -311 l 1
 197 -282 l 1
 194 1154 l 1
 44 1196 l 1
 52 1250 l 1xf6
 313 1270 l 1
 329 1254 l 1
 329 849 l 1
 317 740 l 1
 326 740 l 1
 381 808 472 898 603 898 c 0
 774 898 905 750 905 468 c 0
 905 186 726 -17 483 -17 c 0
 452 -17 410 -13 377 -4 c 1
 373 82 l 1
 411 70 448 66 501 66 c 0
 675 66 760 216 760 411 c 0
 760 645 691 792 537 792 c 0
 444 792 376 730 326 678 c 1
 326 -283 l 1
 482 -309 l 1
 472 -370 l 1
 39 -370 l 1xee
EndSplineSet
Validated: 1
Colour: ffffff
EndChar

StartChar: three
Encoding: 51 51 183
Width: 959
VWidth: 0
Flags: W
HStem: -33 69<283.695 542.494> 555 50<325 368.39> 1137 74<312.279 538.434>
VStem: 133 67<269.214 342> 156 64<844 907.681> 614 167<814.481 1070.03> 661 166<182.703 423.914>
LayerCount: 2
Fore
SplineSet
88 90 m 1xe2
 133 353 l 1
 200 342 l 1
 210 138 l 1
 238 88 317 36 405 36 c 0
 557 36 661 135 661 292 c 0xf2
 661 445 517 551 325 555 c 1
 319 605 l 1
 409 645 614 742 614 929 c 0
 614 1028 556 1137 432 1137 c 0
 353 1137 299 1098 263 1057 c 1
 220 833 l 1
 156 844 l 1
 149 1092 l 1
 198 1139 321 1211 483 1211 c 0
 650 1211 781 1115 781 959 c 0xec
 781 797 633 688 512 643 c 1
 512 633 l 1
 690 608 827 505 827 345 c 0
 827 127 617 -33 386 -33 c 0
 246 -33 125 26 88 90 c 1xe2
EndSplineSet
Validated: 1
Colour: ffffff
EndChar

StartChar: three.osf
Encoding: 65544 -1 184
Width: 717
VWidth: 0
Flags: W
HStem: -295 75<180.512 415.398> -44 20G<63 105> 875 104<217.806 421.595>
VStem: -17 113<-139.158 -86.5183> 48 67<703.293 758.141> 472 153<571.837 825.265> 517 149<-80.5309 171.642>
LayerCount: 2
Fore
SplineSet
-17 -135 m 0xf2
 -17 -86 30 -30 96 -24 c 1
 114 -120 170 -220 283 -220 c 0
 449 -220 517 -99 517 24 c 0xf2
 517 189 389 298 199 305 c 1
 194 355 l 1
 313 401 472 501 472 676 c 0
 472 776 432 875 318 875 c 0
 212 875 151 787 115 686 c 1
 48 708 l 1
 77 826 196 979 374 979 c 0
 521 979 625 869 625 722 c 0xec
 625 564 480 436 380 394 c 1
 380 386 l 1
 526 373 666 240 666 75 c 0
 666 -115 480 -295 257 -295 c 0
 106 -295 -17 -224 -17 -135 c 0xf2
EndSplineSet
Validated: 1
Colour: ffffff
EndChar

StartChar: threequarters
Encoding: 190 190 185
Width: 1002
VWidth: 0
Flags: W
HStem: -5 21G<761 826> 143 49<624 759 826 922> 487 35<154.547 258.293> 721 26<164 188.056> 870 21G<95 131.5> 931 53<149.592 262.544>
VStem: 95 29<876.068 896.097> 274 71<799.957 924.345> 293 70<551.283 688.454> 761 65<6 142 192 363>
DStem2: 137 -30 220 -21 0.570846 0.821057<54.7697 1206.98> 557 173 624 192 0.630593 0.776114<56.9959 274.841>
LayerCount: 2
Fore
SplineSet
624 192 m 1xfe40
 759 192 l 1
 759 363 l 1
 624 192 l 1xfe40
557 173 m 1
 804 477 l 1
 830 471 l 1
 827 424 826 346 826 273 c 2
 826 192 l 1
 928 192 l 1
 922 142 l 1
 826 142 l 1
 826 6 l 1
 761 -5 l 1
 761 143 l 1
 566 143 l 1
 557 173 l 1
137 -30 m 1
 826 961 l 1
 907 968 l 1
 220 -21 l 1
 137 -30 l 1
71 543 m 0
 71 563 88 581 121 584 c 1
 124 567 160 522 197 522 c 0
 277 522 293 576 293 619 c 0xfec0
 293 665 246 721 171 721 c 2
 164 721 l 1
 160 747 l 1
 175 752 274 790 274 863 c 0
 274 898 257 931 205 931 c 0
 162 931 139 906 124 870 c 1
 95 882 l 1
 104 925 157 984 229 984 c 0
 290 984 345 942 345 884 c 0xff40
 345 819 298 780 250 762 c 1
 250 758 l 1
 322 749 363 694 363 642 c 0xfec0
 363 555 281 487 176 487 c 0
 107 487 71 516 71 543 c 0
EndSplineSet
Validated: 1
Colour: ffffff
EndChar

StartChar: threesuperior
Encoding: 179 179 186
Width: 451
VWidth: 0
Flags: W
HStem: 937 31<103.475 171.989> 1103 29<84.5656 124.572> 1199 21G<79.5 93> 1269 33<105.888 164.74>
VStem: 48 40<977.457 1019.23 1207.7 1256.09> 83 85<1108.51 1145.94> 177 49<1164.36 1263.31> 189 53<975.676 1089.99>
LayerCount: 2
Fore
SplineSet
48 995 m 0xf9
 48 1019 77 1027 88 1029 c 1
 93 998 99 968 135 968 c 0
 171 968 189 997 189 1032 c 0
 189 1067 162 1105 125 1105 c 0
 116 1105 99 1103 88 1103 c 1xf9
 86 1112 83 1121 83 1130 c 2
 83 1132 l 1
 92 1135 177 1149 177 1218 c 0
 177 1245 159 1269 131 1269 c 0
 113 1269 93 1250 93 1199 c 1
 66 1201 52 1209 52 1229 c 0
 52 1275 117 1302 150 1302 c 0
 195 1302 226 1267 226 1231 c 0
 226 1191 201 1153 168 1135 c 1
 168 1130 l 1xf6
 215 1117 242 1078 242 1041 c 0
 242 990 201 937 140 937 c 0
 67 937 48 971 48 995 c 0xf9
EndSplineSet
Validated: 1
Colour: ffffff
EndChar

StartChar: tilde
Encoding: 732 732 187
Width: 798
VWidth: 0
Flags: W
HStem: 1371 161
VStem: 108 468
DStem2: 255 1520 220 1433 0.97926 -0.202606<-68.5518 262.543>
LayerCount: 2
Fore
SplineSet
108 1381 m 1
 108 1381 145 1544 255 1520 c 1
 458 1478 l 1
 507 1465 534 1532 534 1532 c 1
 576 1530 l 1
 576 1530 533 1366 421 1391 c 1
 220 1433 l 1
 174 1445 141 1371 141 1371 c 1
 108 1381 l 1
EndSplineSet
Validated: 33
Colour: ffffff
EndChar

StartChar: trademark
Encoding: 8482 8482 188
Width: 838
VWidth: 0
Flags: W
HStem: 991 26<90 135 201 247 332 378 418 463 651 693 754 798> 1229 89<27 57.7875 278 308.274> 1290 28<70 135 201 268 351 398 739 784>
VStem: 27 28<1229 1287.17> 135 66<1027 1290> 278 29<1229 1290>
DStem2: 378 1027 418 1026 0.0775864 0.996986<2.10647 221.765> 496 1266 435 1245 0.343582 -0.939123<-1.23689 205.897> 565 1072 578 1005 0.370114 0.928986<0 212.756> 739 1284 678 1256 0.0580415 -0.998314<24.4123 253.897>
LayerCount: 2
Fore
SplineSet
330 991 m 1xbc
 332 1017 l 1
 378 1027 l 1
 398 1284 l 1
 348 1293 l 1
 351 1318 l 1
 475 1318 l 1
 496 1266 l 1
 565 1072 l 1
 646 1277 l 1
 665 1318 l 1
 787 1318 l 1
 784 1293 l 1
 739 1284 l 1
 754 1026 l 1
 803 1018 l 1
 798 991 l 1
 646 991 l 1
 651 1017 l 1
 693 1027 l 1
 678 1256 l 1
 578 1005 l 1
 525 1000 l 1
 435 1245 l 1
 418 1026 l 1
 467 1018 l 1
 463 991 l 1
 330 991 l 1xbc
24 1318 m 1
 317 1318 l 1xbc
 307 1226 l 1
 278 1229 l 1xdc
 268 1290 l 1
 201 1290 l 1
 201 1026 l 1
 250 1018 l 1
 247 991 l 1
 88 991 l 1
 90 1017 l 1
 135 1027 l 1
 135 1290 l 1
 70 1290 l 1xbc
 55 1226 l 1
 27 1229 l 1xdc
 24 1318 l 1
EndSplineSet
Validated: 1
Colour: ffffff
EndChar

StartChar: two
Encoding: 50 50 189
Width: 959
VWidth: 0
Flags: W
HStem: 0 118<241 740> 1128 81<314.26 577.182>
VStem: 151 57<788 864.268> 669 174<672.812 1032>
DStem2: 70 74 241 118 0.759257 0.650791<158.468 675.001>
LayerCount: 2
Back
SplineSet
874.37 0 m 5
 96.7002 0 l 5
 90.5918 103.824 l 5
 330.815 312.493 l 6
 394.941 367.459 394.941 367.459 435.658 405.121 c 132
 462.802 430.229 494.187 462.124 529.813 500.803 c 132
 565.439 539.482 593.431 574.771 613.789 606.663 c 132
 634.147 638.558 651.79 674.692 666.72 715.069 c 132
 681.649 755.445 689.113 795.653 689.113 835.689 c 4
 689.113 1007.38 619.558 1092.88 480.445 1092.2 c 4
 369.155 1092.2 279.581 1006.02 211.722 833.654 c 5
 128.255 864.191 l 5
 138.433 907.621 155.907 950.882 180.676 993.972 c 132
 205.444 1037.06 235.303 1076.25 270.25 1111.54 c 132
 305.198 1146.83 346.423 1175.5 393.924 1197.55 c 132
 441.426 1219.61 490.624 1230.63 541.52 1230.63 c 4
 650.772 1230.63 733.561 1200.43 789.885 1140.04 c 132
 846.209 1079.64 874.37 993.123 874.37 880.477 c 4
 874.37 845.19 869.28 809.903 859.102 774.617 c 132
 848.922 739.329 836.368 706.757 821.439 676.898 c 132
 806.51 647.041 786.831 615.824 762.401 583.252 c 132
 737.972 550.68 714.561 522.349 692.167 498.259 c 132
 669.773 474.168 642.629 447.194 610.735 417.337 c 132
 578.841 387.478 551.867 363.388 529.813 345.065 c 132
 496.732 317.583 496.732 317.583 447.872 276.867 c 132
 399.014 236.15 399.014 236.15 376.62 216.811 c 6
 283.992 136.397 l 5
 763.42 136.397 l 5
 861.137 317.583 l 5
 931.372 307.404 l 5
 874.37 0 l 5
EndSplineSet
Fore
SplineSet
70 74 m 1
 308 278 l 2
 538 475 669 628 669 842 c 0
 669 988 615 1128 455 1128 c 0
 348 1128 278 1076 249 1021 c 1
 208 780 l 1
 151 788 l 1
 141 1057 l 1
 195 1130 349 1209 501 1209 c 0
 705 1209 843 1094 843 860 c 0
 843 594 593 397 320 180 c 1
 241 118 l 1
 740 118 l 1
 835 361 l 1
 890 353 l 1
 843 0 l 1
 76 0 l 1
 70 74 l 1
EndSplineSet
Validated: 1
Colour: ffffff
EndChar

StartChar: two.osf
Encoding: 65545 -1 190
Width: 803
VWidth: 0
Flags: W
HStem: 0 116<223 636> 882 98<270.591 480.664>
VStem: 81 65<680.707 735.014> 537 163<532.006 825.692>
DStem2: 54 74 223 116 0.771028 0.636801<157.049 582.25>
LayerCount: 2
Fore
SplineSet
54 74 m 1
 301 278 l 2
 455 405 537 523 537 679 c 0
 537 801 476 882 375 882 c 0
 273 882 179 780 146 662 c 1
 81 686 l 1
 105 813 244 978 426 980 c 0
 601 982 700 865 700 697 c 0
 700 491 505 337 306 181 c 2
 223 116 l 1
 636 116 l 1
 714 295 l 1
 769 287 l 1
 723 0 l 1
 60 0 l 1
 54 74 l 1
EndSplineSet
Validated: 33
Colour: ffffff
EndChar

StartChar: twosuperior
Encoding: 178 178 191
Width: 279
VWidth: 0
Flags: W
HStem: 1011 43<97 223> 1196 21G<80 95> 1269 33<104.295 158.854>
VStem: 52 43<1210.43 1265.96> 171 54<1148.31 1264.82>
LayerCount: 2
Fore
SplineSet
44 1042 m 1
 131 1128 l 2
 156 1152 171 1179 171 1209 c 0
 171 1242 157 1269 127 1269 c 0
 99 1269 95 1226 95 1196 c 1
 65 1199 52 1208 52 1233 c 0
 52 1268 110 1302 147 1302 c 0
 190 1302 225 1268 225 1222 c 0
 225 1166 197 1142 137 1089 c 2
 97 1054 l 1
 229 1054 l 1
 223 1011 l 1
 45 1011 l 1
 44 1042 l 1
EndSplineSet
Validated: 1
Colour: ffffff
EndChar

StartChar: u
Encoding: 117 117 192
Width: 1013
VWidth: 0
Flags: W
HStem: -24 110<382.6 589.072> -1 59<933 980> 800 53<62 102.342 554 596.929> 854 20G<73.8571 327 598.333 834>
VStem: 199 128<144.811 757> 705 129<91.834 132 145.732 754>
LayerCount: 2
Fore
SplineSet
54 800 m 1xbc
 62 853 l 1
 311 874 l 1
 327 857 l 1
 327 317 l 2
 327 153 393 86 499 86 c 0xbc
 589 86 660 137 705 187 c 1
 705 754 l 1
 548 790 l 1
 554 850 l 1
 820 874 l 1
 834 857 l 1
 834 223 l 2
 834 123 857 85 933 70 c 1
 987 58 l 1
 980 -1 l 1x7c
 939 -13 904 -21 854 -21 c 0
 763 -21 717 43 717 120 c 2
 717 132 l 1
 705 132 l 1
 636 30 536 -24 427 -24 c 0
 288 -24 199 60 199 275 c 2
 199 757 l 1
 54 800 l 1xbc
EndSplineSet
Validated: 1
Colour: ffffff
EndChar

StartChar: underscore
Encoding: 95 95 193
Width: 869
VWidth: 0
Flags: W
HStem: -133 86<26 844>
LayerCount: 2
Fore
SplineSet
14 -133 m 1
 26 -47 l 1
 854 -47 l 1
 844 -133 l 1
 14 -133 l 1
EndSplineSet
Validated: 1
Colour: ffffff
EndChar

StartChar: uniF001
Encoding: 61441 61441 194
Width: 1171
VWidth: 0
Flags: W
HStem: 0 51<82 142.53 525.834 607 710 769.733 1087.89 1140> 779 70<368 613> 779 54<97 186.926> 801 52<716 761.148> 855 20G<739.545 991> 1081 217<845.029 996.239> 1220 85<438.052 616.132>
VStem: 234 134<91 779 855 1059.47> 829 184<1096.02 1284.2> 860 131<87 760>
LayerCount: 2
Fore
SplineSet
829 1194 m 0x8d80
 829 1258 866 1298 919 1298 c 0
 973 1298 1013 1257 1013 1193 c 0
 1013 1126 975 1081 919 1081 c 0
 863 1081 829 1128 829 1194 c 0x8d80
697 0 m 1
 710 55 l 1
 860 87 l 1
 860 760 l 1
 708 801 l 1
 716 853 l 1
 975 875 l 1
 991 857 l 1
 991 87 l 1x9940
 1152 57 l 1
 1140 0 l 1
 697 0 l 1
70 0 m 1
 82 51 l 1
 234 87 l 1
 234 779 l 1
 85 779 l 1
 97 833 l 1xa9
 235 855 l 1
 254 1173 436 1305 578 1305 c 0
 684 1305 752 1260 752 1192 c 0
 752 1148 716 1112 683 1099 c 1
 640 1168 584 1220 513 1220 c 0
 436 1220 370 1149 369 981 c 2
 368 849 l 1
 626 849 l 1
 613 779 l 1
 368 779 l 1xcb
 368 91 l 1
 614 61 l 1
 607 0 l 1
 70 0 l 1
EndSplineSet
Validated: 1
Colour: ffffff
EndChar

StartChar: uniF002
Encoding: 61442 61442 195
Width: 1154
VWidth: 0
Flags: W
HStem: 0 51<82 142.53 525.834 607 692 752.928 1071.28 1124> 779 70<368 613> 779 54<97 186.926> 1197 52<696 743.547> 1214 90<397.743 552.706> 1250 20G<708.476 975>
VStem: 234 134<91 779 855 1100.05> 845 130<87 1156>
LayerCount: 2
Fore
SplineSet
70 0 m 1xcb
 82 51 l 1
 234 87 l 1
 234 779 l 1
 85 779 l 1
 97 833 l 1xa3
 235 855 l 1
 237 1173 404 1304 505 1304 c 0
 583 1304 640 1282 640 1220 c 0
 640 1181 615 1151 583 1136 c 1
 553 1179 499 1214 449 1214 c 0
 395 1214 366 1106 367 965 c 2
 368 849 l 1
 626 849 l 1
 613 779 l 1
 368 779 l 1
 368 91 l 1
 614 61 l 1
 607 0 l 1
 70 0 l 1xcb
681 0 m 1
 692 55 l 1
 845 87 l 1
 845 1156 l 1
 689 1197 l 1
 696 1249 l 1
 958 1270 l 1x97
 975 1254 l 1
 975 87 l 1
 1135 57 l 1
 1124 0 l 1
 681 0 l 1
EndSplineSet
Validated: 33
Colour: ffffff
EndChar

StartChar: v
Encoding: 118 118 196
Width: 921
VWidth: 0
Flags: W
HStem: -26 21G<426.906 524> 806 55<37 70.6755 386.541 438 564 606.345>
DStem2: 292 771 152 769 0.334308 -0.942464<0 644.773> 501 161 524 -11 0.338165 0.941087<0 643.872>
LayerCount: 2
Fore
SplineSet
30 806 m 1
 37 861 l 1
 443 861 l 1
 438 808 l 1
 292 771 l 1
 501 161 l 1
 713 769 l 1
 553 806 l 1
 564 861 l 1
 923 861 l 1
 914 808 l 1
 805 771 l 1
 524 -11 l 1
 434 -26 l 1
 152 769 l 1
 30 806 l 1
EndSplineSet
Validated: 1
Colour: ffffff
EndChar

StartChar: w
Encoding: 119 119 197
Width: 1237
VWidth: 0
Flags: W
HStem: -25 21G<369.075 462 819.168 910> 808 55<29 68.8781 346.924 405 892 946.022 1193.54 1240>
DStem2: 270 777 138 775 0.284048 -0.95881<0 595.237> 428 203 462 -9 0.259919 0.96563<0 465.868> 705 817 634 630 0.279944 -0.960016<159.647 646.641> 875 193 910 -9 0.271809 0.962351<0 603.85>
LayerCount: 2
Fore
SplineSet
22 808 m 1
 29 863 l 1
 412 863 l 1
 405 809 l 1
 270 777 l 1
 391 360 l 1
 428 203 l 1
 591 798 l 1
 705 817 l 1
 843 345 l 1
 875 193 l 1
 1036 775 l 1
 885 808 l 1
 892 863 l 1
 1248 863 l 1
 1240 809 l 1
 1132 777 l 1
 910 -9 l 1
 825 -25 l 1
 634 630 l 1
 462 -9 l 1
 375 -25 l 1
 138 775 l 1
 22 808 l 1
EndSplineSet
Validated: 1
Colour: ffffff
EndChar

StartChar: wacute
Encoding: 7811 7811 198
Width: 1237
VWidth: 0
Flags: W
HStem: -25 21G<369.075 462 819.168 910> 808 55<29 68.8781 346.924 405 892 946.022 1193.54 1240>
DStem2: 270 777 138 775 0.284048 -0.95881<0 595.237> 428 203 462 -9 0.259919 0.96563<0 465.868> 705 817 634 630 0.279944 -0.960016<159.647 646.641> 875 193 910 -9 0.271809 0.962351<0 603.85>
LayerCount: 2
Fore
SplineSet
590 1020 m 1
 718 1350 l 1
 821 1311 l 1
 639 990 l 1
 590 1020 l 1
22 808 m 1
 29 863 l 1
 412 863 l 1
 405 809 l 1
 270 777 l 1
 391 360 l 1
 428 203 l 1
 591 798 l 1
 705 817 l 1
 843 345 l 1
 875 193 l 1
 1036 775 l 1
 885 808 l 1
 892 863 l 1
 1248 863 l 1
 1240 809 l 1
 1132 777 l 1
 910 -9 l 1
 825 -25 l 1
 634 630 l 1
 462 -9 l 1
 375 -25 l 1
 138 775 l 1
 22 808 l 1
EndSplineSet
Validated: 1
Colour: ffffff
EndChar

StartChar: wgrave
Encoding: 7809 7809 199
Width: 1237
VWidth: 0
Flags: W
HStem: -25 21G<369.075 462 819.168 910> 808 55<29 68.8781 346.924 405 892 946.022 1193.54 1240>
DStem2: 270 777 138 775 0.284048 -0.95881<0 595.237> 428 203 462 -9 0.259919 0.96563<0 465.868> 705 817 634 630 0.279944 -0.960016<159.647 646.641> 875 193 910 -9 0.271809 0.962351<0 603.85>
LayerCount: 2
Fore
SplineSet
453 1319 m 1
 557 1356 l 1
 690 1021 l 1
 639 990 l 1
 453 1319 l 1
22 808 m 1
 29 863 l 1
 412 863 l 1
 405 809 l 1
 270 777 l 1
 391 360 l 1
 428 203 l 1
 591 798 l 1
 705 817 l 1
 843 345 l 1
 875 193 l 1
 1036 775 l 1
 885 808 l 1
 892 863 l 1
 1248 863 l 1
 1240 809 l 1
 1132 777 l 1
 910 -9 l 1
 825 -25 l 1
 634 630 l 1
 462 -9 l 1
 375 -25 l 1
 138 775 l 1
 22 808 l 1
EndSplineSet
Validated: 1
Colour: ffffff
EndChar

StartChar: x
Encoding: 120 120 200
Width: 934
VWidth: 0
Flags: W
HStem: 0 52<26 68.3614 330.303 377 525 577.927 878.49 918> 815 55<43 81.489 379.712 427 567 605.07 864.908 905>
DStem2: 134 86 244 86 0.624285 0.781197<68.6713 416.63 570.499 891.907> 312 785 154 783 0.580689 -0.814126<0 316.891 427.994 768.136>
LayerCount: 2
Fore
SplineSet
17 0 m 1
 26 52 l 1
 134 86 l 1
 400 431 l 1
 154 783 l 1
 36 815 l 1
 43 870 l 1
 437 870 l 1
 427 817 l 1
 312 785 l 1
 496 527 l 1
 693 781 l 1
 555 815 l 1
 567 870 l 1
 916 870 l 1
 905 816 l 1
 801 783 l 1
 550 459 l 1
 812 84 l 1
 926 52 l 1
 918 0 l 1
 513 0 l 1
 525 51 l 1
 652 84 l 1
 456 362 l 1
 244 86 l 1
 386 54 l 1
 377 0 l 1
 17 0 l 1
EndSplineSet
Validated: 1
Colour: ffffff
EndChar

StartChar: y
Encoding: 121 121 201
Width: 936
VWidth: 0
Flags: W
HStem: -379 150<86.2583 324.313> 805 56<45 78.5959 374.011 422 621 653.344>
DStem2: 295 775 160 772 0.343528 -0.939142<0 618.561> 415 -49 502 -53 0.371391 0.928477<-177.415 65.1791 261.83 882.053>
LayerCount: 2
Fore
SplineSet
30 -274 m 0
 30 -241 40 -206 75 -176 c 1
 122 -212 165 -229 233 -229 c 0
 289 -229 358 -194 415 -49 c 1
 438 12 l 1
 160 772 l 1
 36 805 l 1
 45 861 l 1
 428 861 l 1
 422 808 l 1
 295 775 l 1
 510 195 l 1
 740 771 l 1
 610 806 l 1
 621 861 l 1
 938 861 l 1
 933 808 l 1
 832 772 l 1
 502 -53 l 2
 409 -286 330 -379 175 -379 c 0
 91 -379 30 -332 30 -274 c 0
EndSplineSet
Validated: 1
Colour: ffffff
EndChar

StartChar: yacute
Encoding: 253 253 202
Width: 936
VWidth: 0
Flags: W
HStem: -379 150<86.2583 324.313> 805 56<45 78.5959 374.011 422 621 653.344>
DStem2: 295 775 160 772 0.343528 -0.939142<0 618.561> 415 -49 502 -53 0.371391 0.928477<-177.415 65.1791 261.83 882.053>
LayerCount: 2
Fore
SplineSet
443 1020 m 1
 571 1350 l 1
 674 1311 l 1
 492 990 l 1
 443 1020 l 1
30 -274 m 0
 30 -241 40 -206 75 -176 c 1
 122 -212 165 -229 233 -229 c 0
 289 -229 358 -194 415 -49 c 1
 438 12 l 1
 160 772 l 1
 36 805 l 1
 45 861 l 1
 428 861 l 1
 422 808 l 1
 295 775 l 1
 510 195 l 1
 740 771 l 1
 610 806 l 1
 621 861 l 1
 938 861 l 1
 933 808 l 1
 832 772 l 1
 502 -53 l 2
 409 -286 330 -379 175 -379 c 0
 91 -379 30 -332 30 -274 c 0
EndSplineSet
Validated: 1
Colour: ffffff
EndChar

StartChar: ycircumflex
Encoding: 375 375 203
Width: 936
VWidth: 0
Flags: W
HStem: -379 150<86.2583 324.313> 805 56<45 78.5959 374.011 422 621 653.344>
DStem2: 295 775 160 772 0.343528 -0.939142<0 618.561> 415 -49 502 -53 0.371391 0.928477<-177.415 65.1791 261.83 882.053>
LayerCount: 2
Fore
SplineSet
307 1020 m 1
 475 1200 l 1
 530 1214 l 1
 708 1028 l 1
 668 991 l 1
 495 1113 l 1
 486 1113 l 1
 337 990 l 1
 307 1020 l 1
30 -274 m 0
 30 -241 40 -206 75 -176 c 1
 122 -212 165 -229 233 -229 c 0
 289 -229 358 -194 415 -49 c 1
 438 12 l 1
 160 772 l 1
 36 805 l 1
 45 861 l 1
 428 861 l 1
 422 808 l 1
 295 775 l 1
 510 195 l 1
 740 771 l 1
 610 806 l 1
 621 861 l 1
 938 861 l 1
 933 808 l 1
 832 772 l 1
 502 -53 l 2
 409 -286 330 -379 175 -379 c 0
 91 -379 30 -332 30 -274 c 0
EndSplineSet
Validated: 1
Colour: ffffff
EndChar

StartChar: ydieresis
Encoding: 255 255 204
Width: 936
VWidth: 0
Flags: W
HStem: -379 150<86.2583 324.313> 805 56<45 78.5959 374.011 422 621 653.344> 990 159<292.481 420.645 560.481 689.259>
VStem: 286 141<994.967 1143.86> 554 142<995.641 1143.86>
DStem2: 295 775 160 772 0.343528 -0.939142<0 618.561> 415 -49 502 -53 0.371391 0.928477<-177.415 65.1791 261.83 882.053>
LayerCount: 2
Fore
SplineSet
554 1072 m 0
 554 1121 583 1149 623 1149 c 0
 664 1149 696 1121 696 1072 c 0
 696 1021 666 990 623 990 c 0
 581 990 554 1022 554 1072 c 0
286 1072 m 0
 286 1121 315 1149 355 1149 c 0
 396 1149 427 1121 427 1072 c 0
 427 1021 399 990 356 990 c 0
 314 990 286 1022 286 1072 c 0
30 -274 m 0
 30 -241 40 -206 75 -176 c 1
 122 -212 165 -229 233 -229 c 0
 289 -229 358 -194 415 -49 c 1
 438 12 l 1
 160 772 l 1
 36 805 l 1
 45 861 l 1
 428 861 l 1
 422 808 l 1
 295 775 l 1
 510 195 l 1
 740 771 l 1
 610 806 l 1
 621 861 l 1
 938 861 l 1
 933 808 l 1
 832 772 l 1
 502 -53 l 2
 409 -286 330 -379 175 -379 c 0
 91 -379 30 -332 30 -274 c 0
EndSplineSet
Validated: 1
Colour: ffffff
EndChar

StartChar: yen
Encoding: 165 165 205
Width: 1151
VWidth: 0
Flags: W
HStem: 0 62<347 386.719 777.198 820> 265 73<194 509 655 990> 505 73<197 490 674 993> 1188 56<98 144.556 461.8 529 680 740.256 1012.26 1067>
VStem: 509 146<96 265 338 505>
DStem2: 379 1156 227 1152 0.416546 -0.909115<0 570.476> 618 638 674 578 0.419956 0.907545<0 560.9>
LayerCount: 2
Fore
SplineSet
90 1188 m 1
 98 1244 l 1
 537 1244 l 1
 529 1188 l 1
 379 1156 l 1
 618 638 l 1
 845 1151 l 1
 674 1188 l 1
 680 1244 l 1
 1074 1244 l 1
 1067 1188 l 1
 941 1155 l 1
 674 578 l 1
 1004 578 l 1
 993 505 l 1
 655 505 l 1
 655 338 l 1
 1001 338 l 1
 990 265 l 1
 655 265 l 1
 655 90 l 1
 829 62 l 1
 820 0 l 1
 339 0 l 1
 347 56 l 1
 509 96 l 1
 509 265 l 1
 183 265 l 1
 194 338 l 1
 509 338 l 1
 509 505 l 1
 186 505 l 1
 197 578 l 1
 490 578 l 1
 227 1152 l 1
 90 1188 l 1
EndSplineSet
Validated: 1
Colour: ffffff
EndChar

StartChar: z
Encoding: 122 122 206
Width: 858
VWidth: 0
Flags: W
HStem: 0 78<251 664> 788 73<227 612>
VStem: 115 56<592 635.48>
DStem2: 96 63 251 78 0.581869 0.813282<102.389 889.874>
LayerCount: 2
Fore
SplineSet
96 63 m 1
 612 788 l 1
 227 788 l 1
 171 583 l 1
 115 592 l 1
 125 861 l 1
 772 861 l 1
 774 809 l 1
 251 78 l 1
 664 78 l 1
 739 275 l 1
 790 269 l 1
 760 0 l 1
 100 0 l 1
 96 63 l 1
EndSplineSet
Validated: 1
Colour: ffffff
EndChar

StartChar: zero
Encoding: 48 48 207
Width: 984
VWidth: 0
Flags: W
HStem: -27 75<409.784 616.167> 1125 78<402.504 612.619>
VStem: 105 168<257.423 886.528> 741 169<272.433 912.574>
LayerCount: 2
Fore
SplineSet
273 584 m 0
 273 228 352 48 515 48 c 0
 675 48 741 227 741 587 c 0
 741 921 672 1125 511 1125 c 0
 339 1125 273 920 273 584 c 0
105 587 m 0
 105 989 293 1203 514 1203 c 0
 755 1203 910 995 910 587 c 0
 910 145 712 -27 513 -27 c 0
 288 -27 105 133 105 587 c 0
EndSplineSet
Validated: 1
Colour: ffffff
EndChar

StartChar: zero.osf
Encoding: 65546 -1 208
Width: 987
VWidth: 0
Flags: W
HStem: -24 74<409.022 629.05> 908 68<403.22 624.349>
VStem: 128 158<229.944 704.591> 747 159<243.629 725.427>
LayerCount: 2
Fore
SplineSet
286 479 m 0
 286 177 379 50 518 50 c 0
 653 50 747 168 747 478 c 0
 747 766 664 908 516 908 c 0
 359 908 286 768 286 479 c 0
128 475 m 0
 128 726 281 977 516 976 c 0
 764 975 906 755 906 481 c 0
 906 165 717 -24 517 -24 c 0
 302 -24 128 164 128 475 c 0
EndSplineSet
Validated: 33
Colour: ffffff
EndChar

StartChar: Euro.osf
Encoding: 65547 -1 209
Width: 1117
VWidth: 0
Flags: W
HStem: -24 86<447.681 705.911> 350 82<18 140 317 594> 513 82<19 142 312 630> 905 79<428.969 675.596>
VStem: 140 167<229.335 350 432 513 595 693.272> 767 67<332.654 344 616 643.895>
LayerCount: 2
Fore
SplineSet
13 513 m 1
 19 595 l 1
 154 595 l 1
 200 813 357 984 592 984 c 0
 695 984 776 954 852 898 c 1
 822 606 l 1
 755 616 l 1
 719 830 l 1
 674 875 624 905 551 905 c 0
 409 905 331 791 312 595 c 1
 647 595 l 1
 630 513 l 1
 307 513 l 1
 307 505 307 498 307 490 c 0
 307 470 308 451 309 432 c 1
 611 432 l 1
 594 350 l 1
 317 350 l 1
 347 163 442 62 598 62 c 0
 653 62 706 94 735 132 c 1
 767 344 l 1
 834 353 l 1
 865 83 l 1
 772 8 700 -24 568 -24 c 0
 338 -24 184 118 148 350 c 1
 9 350 l 1
 18 432 l 1
 140 432 l 1
 140 441 140 449 140 458 c 0
 140 476 141 495 142 513 c 1
 13 513 l 1
EndSplineSet
Validated: 1
Colour: ffffff
EndChar

StartChar: ampersand.osf
Encoding: 65548 -1 210
Width: 1282
VWidth: 0
Flags: W
HStem: -20 93<350.658 591.437> 545 50<712 758.964 1019.66 1087> 912 69<413.687 569.268>
VStem: 157 151<117.382 336.098> 255 125<663.173 873.091> 612 119<650.427 878.315>
DStem2: 541 515 431 437 0.630373 -0.776293<-308.136 -82.036 0 299.386>
LayerCount: 2
Fore
SplineSet
649 168 m 1xf4
 431 437 l 1
 362 384 308 324 308 236 c 0
 308 145 367 73 453 73 c 0
 527 73 590 102 649 168 c 1xf4
698 108 m 1
 625 27 536 -20 402 -20 c 0
 236 -20 157 84 157 201 c 0xf4
 157 340 271 419 385 494 c 1
 374 507 l 2
 314 580 255 660 255 747 c 0xec
 255 864 371 981 506 981 c 0
 647 981 732 897 731 792 c 0
 730 659 639 583 541 515 c 1
 729 282 l 1
 764 343 801 418 839 509 c 1
 706 545 l 1
 712 595 l 1
 1095 595 l 1
 1087 545 l 1
 932 512 l 1
 876 404 830 305 780 222 c 1
 880 111 951 84 1020 64 c 1
 1061 53 l 1
 1050 -1 l 1
 1010 -15 984 -19 944 -19 c 0
 862 -19 770 26 698 108 c 1
495 570 m 1
 562 622 612 681 612 763 c 0
 612 853 561 912 486 912 c 0
 425 912 380 858 380 785 c 0xec
 380 718 428 651 495 570 c 1
EndSplineSet
Validated: 33
Colour: ffffff
EndChar

StartChar: dollar.osf
Encoding: 65549 -1 211
Width: 860
VWidth: 0
Flags: W
HStem: 836 54<295.116 423.656> 896 146<329.724 384.11>
VStem: 71 106<141.752 213.789> 108 106<611.422 789.058> 310 128<-181.016 -34 942.331 1043.9> 529 118<84.6194 255.597>
LayerCount: 2
Fore
SplineSet
71 160 m 0xec
 71 222 118 263 177 270 c 1xec
 211 112 274 40 380 40 c 0
 466 40 529 97 529 167 c 0
 529 340 108 383 108 648 c 0
 108 753 178 873 331 896 c 1
 332 890 l 1
 424 890 l 1
 425 898 l 1
 536 885 615 817 615 726 c 0
 615 649 570 613 510 608 c 1
 502 648 l 1
 467 802 407 836 347 836 c 0
 264 836 214 786 214 712 c 0xdc
 214 504 647 469 647 218 c 0
 647 95 548 2 426 -26 c 1
 438 -179 l 1
 310 -197 l 1
 323 -34 l 1
 176 -26 71 57 71 160 c 0xec
425 898 m 1
 438 1059 l 1
 318 1042 l 1
 331 896 l 1
 348 899 366 900 385 900 c 0
 399 900 412 900 425 898 c 1
EndSplineSet
Validated: 5
Colour: ffffff
EndChar

StartChar: paragraph.osf
Encoding: 65550 -1 212
Width: 1335
VWidth: 0
Flags: W
HStem: 0 58<514 597.81 1161.98 1239> 341 76<527.51 671> 901 73<510.359 743> 917 58<1152.33 1235>
VStem: 245 164<514.212 795.312> 742 129<97 899> 940 122<89 887>
LayerCount: 2
Fore
SplineSet
940 -1 m 1xde
 940 975 l 1
 1242 975 l 1
 1235 917 l 1
 1062 887 l 1
 1062 89 l 1
 1248 63 l 1
 1239 -1 l 1
 940 -1 l 1xde
245 640 m 0
 245 849 449 974 670 974 c 2
 871 974 l 1
 871 0 l 1
 507 0 l 1
 514 58 l 1
 742 97 l 1
 743 899 l 1
 706 901 682 901 673 901 c 0xee
 513 901 409 841 409 657 c 0
 409 508 504 420 688 417 c 1
 671 341 l 1
 418 341 245 404 245 640 c 0
EndSplineSet
Validated: 1
Colour: ffffff
EndChar

StartChar: percent.osf
Encoding: 65551 -1 213
Width: 1468
VWidth: 0
Flags: W
HStem: -34 52<789.645 899.887> 437 44<790.094 889.783> 454 52<198.965 309.216> 913 54<249.835 287 424 797> 925 45<197.506 286.509>
VStem: 24 119<554.812 862.163> 363 120<567.101 890.055> 611 121<66.3935 371.215> 952 119<76.2655 379.495>
DStem2: 797 904 968 951 0.587756 0.809039<-1070.17 0>
LayerCount: 2
Fore
SplineSet
732 223 m 0xc780
 732 125 771 18 842 18 c 0
 922 18 952 122 952 225 c 0
 952 326 913 437 840 437 c 0
 759 437 732 319 732 223 c 0xc780
611 223 m 0
 611 366 723 481 840 481 c 0
 975 481 1071 371 1071 220 c 0
 1071 77 953 -34 842 -34 c 0
 721 -34 611 63 611 223 c 0
125 -21 m 1
 492 464 l 1
 797 904 l 1
 424 911 l 1
 461 871 483 755 483 712 c 0
 483 566 362 454 251 454 c 0
 130 454 24 551 24 713 c 0
 24 856 135 970 252 970 c 0xaf80
 268 970 280 969 287 967 c 1
 287 913 l 1x9780
 273 921 267 925 249 925 c 0
 171 925 143 808 143 712 c 0
 143 614 180 506 251 506 c 0xaf80
 331 506 363 612 363 713 c 0
 363 827 336 912 319 957 c 1
 842 969 l 1
 969 965 l 1
 968 951 l 1
 602 467 l 1
 266 -33 l 1
 125 -21 l 1
EndSplineSet
Validated: 1
Colour: ffffff
EndChar

StartChar: perthousand.osf
Encoding: 65552 -1 214
Width: 1708
VWidth: 0
Flags: W
HStem: -34 52<789.645 899.887 1333.96 1442.99> 437 44<790.094 889.783 1334.07 1432.47> 454 52<198.965 309.216> 913 54<249.835 287 424 797> 925 45<197.506 286.509>
VStem: 24 119<554.812 862.163> 363 120<567.101 890.055> 611 121<66.3935 371.215> 952 119<76.2655 379.495> 1154 122<66.8709 367.825> 1496 118<76.6971 378.564>
DStem2: 797 904 968 950 0.587756 0.809039<-1070.17 0>
LayerCount: 2
Fore
SplineSet
1276 223 m 0x87e0
 1276 125 1314 19 1385 19 c 0
 1465 19 1496 122 1496 225 c 0
 1496 326 1457 435 1384 435 c 0
 1303 435 1276 319 1276 223 c 0x87e0
1154 223 m 0
 1154 366 1267 479 1384 479 c 0
 1519 479 1614 371 1614 220 c 0
 1614 77 1496 -33 1385 -33 c 0
 1264 -33 1154 63 1154 223 c 0
732 223 m 0
 732 125 771 18 842 18 c 0
 922 18 952 122 952 225 c 0
 952 326 913 437 840 437 c 0xc7e0
 759 437 732 319 732 223 c 0
611 223 m 0
 611 366 723 481 840 481 c 0
 975 481 1071 371 1071 220 c 0
 1071 77 953 -34 842 -34 c 0
 721 -34 611 63 611 223 c 0
125 -21 m 1
 492 464 l 1
 797 904 l 1
 424 911 l 1
 461 871 483 755 483 712 c 0
 483 566 362 454 251 454 c 0
 130 454 24 551 24 713 c 0
 24 856 135 970 252 970 c 0xafe0
 268 970 280 969 287 967 c 1
 287 913 l 1x97e0
 273 921 267 925 249 925 c 0
 171 925 143 808 143 712 c 0
 143 614 180 506 251 506 c 0xafe0
 331 506 363 612 363 713 c 0
 363 827 336 912 319 957 c 1
 842 969 l 1
 969 965 l 1
 968 950 l 1
 602 467 l 1
 266 -33 l 1
 125 -21 l 1
EndSplineSet
Validated: 1
Colour: ffffff
EndChar

StartChar: sterling.osf
Encoding: 65553 -1 215
Width: 1284
VWidth: 0
Flags: W
HStem: 0 78<429 849> 0 58<132 203.258> 913 69<556.729 741.182>
VStem: 340 152<108.561 413 496 794.888> 809 122<783.96 852.306>
DStem2: 174 478 163 403 0.998476 0.0551835<0 162.16 320.506 564.762>
LayerCount: 2
Fore
SplineSet
126 0 m 1x78
 132 58 l 1x78
 301 92 l 1
 331 156 340 235 340 320 c 2
 340 413 l 1
 163 403 l 1
 174 478 l 1
 345 488 l 1
 347 606 l 2
 351 818 456 982 683 982 c 0
 805 982 931 915 931 838 c 0
 931 768 872 730 809 718 c 1
 793 830 747 913 665 913 c 0
 512 913 494 813 494 554 c 2
 494 496 l 1
 752 510 l 1
 742 435 l 1
 492 418 l 1
 492 375 l 2
 492 241 474 136 429 78 c 1
 849 78 l 1xb8
 948 316 l 1
 1009 301 l 1
 982 0 l 1
 126 0 l 1x78
EndSplineSet
Validated: 1
Colour: ffffff
EndChar

StartChar: uni1E9E.alt
Encoding: 65554 -1 216
Width: 1284
VWidth: 0
Flags: W
HStem: -25 82<784.66 1072.51> 0 58<126 188.123> 1203 71<598.624 1003.43>
VStem: 295 147<97 1002.84> 583 76<300.377 389> 1156 148<154.489 390.576>
DStem2: 687 711 878 751 0.595399 0.80343<145.858 557.609>
LayerCount: 2
Fore
SplineSet
119 0 m 1x7c
 126 58 l 1x7c
 295 97 l 1
 295 727 l 2
 295 1090 447 1274 779 1274 c 0
 961 1274 1133 1256 1204 1235 c 1
 1205 1184 l 1
 878 751 l 1
 1027 664 1304 566 1304 323 c 0
 1304 112 1136 -25 895 -25 c 0
 750 -25 622 39 562 123 c 1
 583 400 l 1
 659 389 l 1
 692 185 l 1
 733 112 830 57 933 57 c 0xbc
 1057 57 1156 129 1156 267 c 0
 1156 466 864 579 709 666 c 1
 687 711 l 1
 1019 1159 l 1
 1019 1163 l 1
 970 1182 805 1203 741 1203 c 0
 514 1203 442 1013 442 750 c 2
 442 0 l 1
 119 0 l 1x7c
EndSplineSet
Validated: 1
Colour: ffffff
EndChar

StartChar: uni1E9E.alt2
Encoding: 65555 -1 217
Width: 1164
VWidth: 830
Flags: W
HStem: -25 82<737.061 1033.51> 0 58<81 142.755> 871 21G<1071 1145.75> 1203 71<559.515 840.962>
VStem: 249 148<97 1024.85> 538 76<293.608 385> 1071 73<880 997.445> 1111 148<147.362 383.755>
LayerCount: 2
Fore
SplineSet
74 0 m 1x7d
 81 58 l 1
 249 97 l 1
 249 765 l 2
 249 1110 419 1274 734 1274 c 0
 915 1274 1089 1243 1170 1168 c 1
 1144 871 l 1
 1071 880 l 1x7e
 1045 1093 l 1
 1000 1139 952 1169 877 1169 c 0
 767 1169 669 1046 705 910 c 1
 770 639 1259 635 1259 315 c 0
 1259 104 1091 -25 850 -25 c 0
 704 -25 575 35 516 120 c 1
 538 396 l 1
 614 385 l 1
 646 181 l 1
 687 108 785 57 888 57 c 0xbd
 1019 57 1111 126 1111 259 c 0
 1111 544 554 532 554 890 c 0
 554 1032 641 1163 782 1196 c 1
 784 1199 l 1
 761 1201 723 1203 696 1203 c 0
 498 1203 397 1048 397 788 c 2
 397 0 l 1
 74 0 l 1x7d
EndSplineSet
Validated: 33
Colour: ffffff
EndChar

StartChar: yen.osf
Encoding: 65556 -1 218
Width: 1188
VWidth: 0
Flags: W
HStem: 0 62<383 422.964 814.198 856> 306 73<232 532 706 1028> 525 72<232 433> 906 55<180 223.857 533.525 590 700 750.957 1009.29 1062>
VStem: 546 146<96 306>
DStem2: 460 873 309 869 0.414223 -0.910176<0 240.024 319.226 478.684> 651 434 729 525 0.400266 0.916399<114.613 194.603> 651 434 706 379 0.424293 0.905525<0 115.498 214.215 474.519>
LayerCount: 2
Back
SplineSet
308.823 988.986 m 1
 312.385 619.112 l 1
 640.555 608.162 l 1
 635.495 561.104 l 1
 316.667 543.293 l 1
 441.343 284.767 l 1
 659.284 579.399 l 1
 573.78 944.801 l 1
 489.579 965.668 l 1
 706.622 986.062 l 1
 827.568 988.986 l 1
 747.664 970.665 l 1
 596.507 657.663 l 1
 826.042 657.663 l 1
 819.425 627.635 l 1
 596.507 627.635 l 1
 596.507 470.879 l 1
 711.528 457.646 l 1
 705.93 428.637 l 1
 416.849 428.637 l 1
 420.411 454.592 l 1
 530.344 473.933 l 1
 530.344 627.635 l 1
 315.568 627.635 l 1
 321.675 657.663 l 1
 530.344 657.663 l 1
 385.294 969.138 l 1
 308.823 988.986 l 1
EndSplineSet
Fore
SplineSet
221 525 m 1
 232 597 l 1
 433 597 l 1
 309 869 l 1
 170 906 l 1
 180 961 l 1
 597 961 l 1
 590 906 l 1
 460 873 l 1
 651 434 l 1
 841 869 l 1
 694 906 l 1
 700 961 l 1
 1069 961 l 1
 1062 906 l 1
 937 872 l 1
 808 597 l 1
 764 597 l 1
 729 525 l 1
 774 525 l 1
 706 379 l 1
 1039 379 l 1
 1028 306 l 1
 692 306 l 1
 692 90 l 1
 866 62 l 1
 856 0 l 1
 376 0 l 1
 383 56 l 1
 546 96 l 1
 546 306 l 1
 221 306 l 1
 232 379 l 1
 532 379 l 1
 466 525 l 1
 221 525 l 1
808 597 m 1
 774 525 l 1
 1028 525 l 1
 1039 597 l 1
 808 597 l 1
EndSplineSet
Validated: 5
Colour: ffffff
EndChar

StartChar: Agrave
Encoding: 192 192 219
Width: 1324
VWidth: 0
Flags: W
HStem: 0 58<43 91.3423 407.32 469 805 861.344 1212.69 1257> 455 79<453 826> 1248 20G<635.273 734.854>
DStem2: 188 101 294 95 0.357284 0.933996<32.2681 415.311 499.1 499.1> 728 1268 646 1060 0.324201 -0.945988<170.181 726.127 808.641 1183.72>
LayerCount: 2
Fore
SplineSet
482 1701 m 1
 586 1738 l 1
 719 1403 l 1
 668 1372 l 1
 482 1701 l 1
453 534 m 1
 826 534 l 1
 646 1060 l 1
 453 534 l 1
35 0 m 1
 43 58 l 1
 188 101 l 1
 626 1246 l 1
 728 1268 l 1
 1130 95 l 1
 1265 64 l 1
 1257 0 l 1
 795 0 l 1
 805 58 l 1
 974 101 l 1
 850 455 l 1
 425 455 l 1
 294 95 l 1
 479 63 l 1
 469 0 l 1
 35 0 l 1
EndSplineSet
Validated: 1
Colour: ffffff
EndChar

StartChar: Aacute
Encoding: 193 193 220
Width: 1324
VWidth: 0
Flags: W
HStem: 0 58<43 91.3423 407.32 469 805 861.344 1212.69 1257> 455 79<453 826> 1248 20G<635.273 734.854>
DStem2: 188 101 294 95 0.357284 0.933996<32.2681 415.311 499.1 499.1> 728 1268 646 1060 0.324201 -0.945988<170.181 726.127 808.641 1183.72>
LayerCount: 2
Fore
SplineSet
638 1402 m 1
 766 1732 l 1
 869 1693 l 1
 687 1372 l 1
 638 1402 l 1
453 534 m 1
 826 534 l 1
 646 1060 l 1
 453 534 l 1
35 0 m 1
 43 58 l 1
 188 101 l 1
 626 1246 l 1
 728 1268 l 1
 1130 95 l 1
 1265 64 l 1
 1257 0 l 1
 795 0 l 1
 805 58 l 1
 974 101 l 1
 850 455 l 1
 425 455 l 1
 294 95 l 1
 479 63 l 1
 469 0 l 1
 35 0 l 1
EndSplineSet
Validated: 1
Colour: ffffff
EndChar

StartChar: Acircumflex
Encoding: 194 194 221
Width: 1324
VWidth: 0
Flags: W
HStem: 0 58<43 91.3423 407.32 469 805 861.344 1212.69 1257> 455 79<453 826> 1248 20G<635.273 734.854>
DStem2: 188 101 294 95 0.357284 0.933996<32.2681 415.311 499.1 499.1> 728 1268 646 1060 0.324201 -0.945988<170.181 726.127 808.641 1183.72>
LayerCount: 2
Fore
SplineSet
479 1402 m 1
 647 1582 l 1
 702 1596 l 1
 880 1410 l 1
 840 1373 l 1
 667 1495 l 1
 658 1495 l 1
 509 1372 l 1
 479 1402 l 1
453 534 m 1
 826 534 l 1
 646 1060 l 1
 453 534 l 1
35 0 m 1
 43 58 l 1
 188 101 l 1
 626 1246 l 1
 728 1268 l 1
 1130 95 l 1
 1265 64 l 1
 1257 0 l 1
 795 0 l 1
 805 58 l 1
 974 101 l 1
 850 455 l 1
 425 455 l 1
 294 95 l 1
 479 63 l 1
 469 0 l 1
 35 0 l 1
EndSplineSet
Validated: 1
Colour: ffffff
EndChar

StartChar: Atilde
Encoding: 195 195 222
Width: 1324
VWidth: 0
Flags: W
HStem: 0 58<43 91.3423 407.32 469 805 861.344 1212.69 1257> 455 79<453 826> 1248 20G<635.273 734.854>
DStem2: 188 101 294 95 0.357284 0.933996<32.2681 415.311 499.1 499.1> 601 1521 566 1434 0.97926 -0.202606<-68.5518 262.543> 728 1268 646 1060 0.324201 -0.945988<170.181 726.127 808.641 1183.72>
LayerCount: 2
Fore
SplineSet
454 1382 m 1
 454 1382 491 1545 601 1521 c 1
 804 1479 l 1
 853 1466 880 1533 880 1533 c 1
 922 1531 l 1
 922 1531 879 1367 767 1392 c 1
 566 1434 l 1
 520 1446 487 1372 487 1372 c 1
 454 1382 l 1
453 534 m 1
 826 534 l 1
 646 1060 l 1
 453 534 l 1
35 0 m 1
 43 58 l 1
 188 101 l 1
 626 1246 l 1
 728 1268 l 1
 1130 95 l 1
 1265 64 l 1
 1257 0 l 1
 795 0 l 1
 805 58 l 1
 974 101 l 1
 850 455 l 1
 425 455 l 1
 294 95 l 1
 479 63 l 1
 469 0 l 1
 35 0 l 1
EndSplineSet
Validated: 33
Colour: ffffff
EndChar

StartChar: Adieresis
Encoding: 196 196 223
Width: 1324
VWidth: 0
Flags: W
HStem: 0 58<43 91.3423 407.32 469 805 861.344 1212.69 1257> 455 79<453 826> 1248 20G<635.273 734.854> 1373 159<481.481 609.645 749.481 878.259>
VStem: 475 141<1377.97 1526.86> 743 142<1378.64 1526.86>
DStem2: 188 101 294 95 0.357284 0.933996<32.2681 415.311 499.1 499.1> 728 1268 646 1060 0.324201 -0.945988<170.181 726.127 808.641 1183.72>
LayerCount: 2
Fore
SplineSet
743 1455 m 0
 743 1504 772 1532 812 1532 c 0
 853 1532 885 1504 885 1455 c 0
 885 1404 855 1373 812 1373 c 0
 770 1373 743 1405 743 1455 c 0
475 1455 m 0
 475 1504 504 1532 544 1532 c 0
 585 1532 616 1504 616 1455 c 0
 616 1404 588 1373 545 1373 c 0
 503 1373 475 1405 475 1455 c 0
453 534 m 1
 826 534 l 1
 646 1060 l 1
 453 534 l 1
35 0 m 1
 43 58 l 1
 188 101 l 1
 626 1246 l 1
 728 1268 l 1
 1130 95 l 1
 1265 64 l 1
 1257 0 l 1
 795 0 l 1
 805 58 l 1
 974 101 l 1
 850 455 l 1
 425 455 l 1
 294 95 l 1
 479 63 l 1
 469 0 l 1
 35 0 l 1
EndSplineSet
Validated: 1
Colour: ffffff
EndChar

StartChar: Aring
Encoding: 197 197 224
Width: 1324
VWidth: 0
Flags: W
HStem: 0 58<43 91.3423 407.32 469 805 861.344 1212.69 1257> 455 79<453 826> 1248 20G<635.273 734.854> 1365 45<617.97 732.332> 1659 44<608.922 718.543>
VStem: 508 67<1442.84 1632.51> 764 68<1434.9 1626.14>
DStem2: 188 101 294 95 0.357284 0.933996<32.2681 415.311 499.1 499.1> 728 1268 646 1060 0.324201 -0.945988<170.181 726.127 808.641 1183.72>
LayerCount: 2
Fore
SplineSet
575 1543 m 0
 575 1481 608 1410 674 1410 c 0
 730 1410 764 1452 764 1527 c 0
 764 1591 728 1659 664 1659 c 0
 602 1659 575 1601 575 1543 c 0
508 1531 m 0
 508 1623 581 1703 675 1703 c 0
 771 1703 832 1634 832 1540 c 0
 832 1450 765 1365 663 1365 c 0
 571 1365 508 1429 508 1531 c 0
453 534 m 1
 826 534 l 1
 646 1060 l 1
 453 534 l 1
35 0 m 1
 43 58 l 1
 188 101 l 1
 626 1246 l 1
 728 1268 l 1
 1130 95 l 1
 1265 64 l 1
 1257 0 l 1
 795 0 l 1
 805 58 l 1
 974 101 l 1
 850 455 l 1
 425 455 l 1
 294 95 l 1
 479 63 l 1
 469 0 l 1
 35 0 l 1
EndSplineSet
Validated: 1
Colour: ffffff
EndChar

StartChar: Ccedilla
Encoding: 199 199 225
Width: 1113
VWidth: 0
Flags: W
HStem: -405 51<522.502 558.969> -44 20G<603.05 624 670.269 680> -12 96<625 904.82> 1195 75<516.214 837.778>
VStem: 108 163<385.643 852.822> 614 113<-323.064 -178.321> 963 68<846 941.573>
DStem2: 617 -24 638 -91 0.572074 0.820202<-46.7164 17.8224>
LayerCount: 2
Fore
SplineSet
511 -354 m 1
 569 -334 614 -293 614 -263 c 0
 614 -213 570 -178 534 -143 c 1
 617 -24 l 1
 631 -25 644 -25 658 -25 c 0
 667 -25 676 -24 684 -24 c 1
 638 -91 l 1
 675 -124 727 -175 727 -242 c 0
 727 -321 644 -370 527 -405 c 1
 511 -354 l 1
684 -24 m 1
 884 -15 1045 104 1113 195 c 1
 1084 252 l 1
 1000 166 871 84 727 84 c 0
 464 84 271 284 271 651 c 0
 271 978 446 1195 659 1195 c 0
 803 1195 881 1146 927 1086 c 1
 963 846 l 1
 1031 836 l 1
 1062 1171 l 1
 966 1244 844 1270 711 1270 c 0
 291 1270 108 894 108 599 c 0
 108 225 331 -4 617 -24 c 1
 625 -12 l 1
 692 -12 l 1
 684 -24 l 1
EndSplineSet
Validated: 5
Colour: ffffff
EndChar

StartChar: Egrave
Encoding: 200 200 226
Width: 1107
VWidth: 0
Flags: W
HStem: 0 75<413 942> 0 58<96 159.757> 594 74<413 716> 1173 71<93 103.219 413 916>
VStem: 265 148<96 594 668 1151> 741 66<419 514.66> 768 72<750.766 797> 946 67<934 1048.21>
LayerCount: 2
Fore
SplineSet
423 1701 m 1x39
 527 1738 l 1
 660 1403 l 1
 609 1372 l 1
 423 1701 l 1x39
84 1185 m 1
 93 1244 l 1
 1044 1244 l 1
 1013 925 l 1
 946 934 l 1
 916 1173 l 1
 413 1173 l 1
 413 668 l 1
 728 668 l 1
 768 797 l 1
 840 808 l 1x7b
 807 419 l 1
 741 408 l 1
 716 594 l 1
 413 594 l 1
 413 75 l 1
 942 75 l 1xbd
 1028 324 l 1
 1090 313 l 1
 1060 0 l 1
 90 0 l 1
 96 58 l 1x7d
 265 96 l 1
 265 1151 l 1
 84 1185 l 1
EndSplineSet
Validated: 1
Colour: ffffff
EndChar

StartChar: Eacute
Encoding: 201 201 227
Width: 1107
VWidth: 0
Flags: W
HStem: 0 75<413 942> 0 58<96 159.757> 594 74<413 716> 1173 71<93 103.219 413 916>
VStem: 265 148<96 594 668 1151> 741 66<419 514.66> 768 72<750.766 797> 946 67<934 1048.21>
LayerCount: 2
Fore
SplineSet
520 1402 m 1x39
 648 1732 l 1
 751 1693 l 1
 569 1372 l 1
 520 1402 l 1x39
84 1185 m 1
 93 1244 l 1
 1044 1244 l 1
 1013 925 l 1
 946 934 l 1
 916 1173 l 1
 413 1173 l 1
 413 668 l 1
 728 668 l 1
 768 797 l 1
 840 808 l 1x7b
 807 419 l 1
 741 408 l 1
 716 594 l 1
 413 594 l 1
 413 75 l 1
 942 75 l 1xbd
 1028 324 l 1
 1090 313 l 1
 1060 0 l 1
 90 0 l 1
 96 58 l 1x7d
 265 96 l 1
 265 1151 l 1
 84 1185 l 1
EndSplineSet
Validated: 1
Colour: ffffff
EndChar

StartChar: Edieresis
Encoding: 203 203 228
Width: 1107
VWidth: 0
Flags: W
HStem: 0 75<413 942> 0 58<96 159.757> 594 74<413 716> 1173 71<93 103.219 413 916> 1373 159<418.481 546.645 686.481 815.259>
VStem: 265 148<96 594 668 1151> 412 141<1377.97 1526.86> 680 142<1378.64 1526.86> 741 66<419 514.66> 768 72<750.766 797> 946 67<934 1048.21>
LayerCount: 2
Fore
SplineSet
680 1455 m 0x3920
 680 1504 709 1532 749 1532 c 0
 790 1532 822 1504 822 1455 c 0
 822 1404 792 1373 749 1373 c 0
 707 1373 680 1405 680 1455 c 0x3920
412 1455 m 0x3a20
 412 1504 441 1532 481 1532 c 0
 522 1532 553 1504 553 1455 c 0
 553 1404 525 1373 482 1373 c 0
 440 1373 412 1405 412 1455 c 0x3a20
84 1185 m 1
 93 1244 l 1
 1044 1244 l 1
 1013 925 l 1
 946 934 l 1
 916 1173 l 1
 413 1173 l 1
 413 668 l 1
 728 668 l 1
 768 797 l 1
 840 808 l 1x7c60
 807 419 l 1
 741 408 l 1
 716 594 l 1
 413 594 l 1
 413 75 l 1
 942 75 l 1xbca0
 1028 324 l 1
 1090 313 l 1
 1060 0 l 1
 90 0 l 1
 96 58 l 1
 265 96 l 1
 265 1151 l 1x7ca0
 84 1185 l 1
EndSplineSet
Validated: 1
Colour: ffffff
EndChar

StartChar: Igrave
Encoding: 204 204 229
Width: 674
VWidth: 0
Flags: W
HStem: 0 63<101 146.831 536.34 591> 1187 57<94 162.893 506.458 586>
VStem: 263 151<96 1154>
LayerCount: 2
Fore
SplineSet
159 1701 m 1
 263 1738 l 1
 396 1403 l 1
 345 1372 l 1
 159 1701 l 1
86 1187 m 1
 94 1244 l 1
 595 1244 l 1
 586 1187 l 1
 414 1156 l 1
 414 90 l 1
 601 63 l 1
 591 0 l 1
 94 0 l 1
 101 58 l 1
 263 96 l 1
 263 1154 l 1
 86 1187 l 1
EndSplineSet
Validated: 1
Colour: ffffff
EndChar

StartChar: Iacute
Encoding: 205 205 230
Width: 674
VWidth: 0
Flags: W
HStem: 0 63<101 146.831 536.34 591> 1187 57<94 162.893 506.458 586>
VStem: 263 151<96 1154>
LayerCount: 2
Fore
SplineSet
295 1402 m 1
 423 1732 l 1
 526 1693 l 1
 344 1372 l 1
 295 1402 l 1
86 1187 m 1
 94 1244 l 1
 595 1244 l 1
 586 1187 l 1
 414 1156 l 1
 414 90 l 1
 601 63 l 1
 591 0 l 1
 94 0 l 1
 101 58 l 1
 263 96 l 1
 263 1154 l 1
 86 1187 l 1
EndSplineSet
Validated: 1
Colour: ffffff
EndChar

StartChar: Icircumflex
Encoding: 206 206 231
Width: 674
VWidth: 0
Flags: W
HStem: 0 63<101 146.831 536.34 591> 1187 57<94 162.893 506.458 586>
VStem: 263 151<96 1154>
LayerCount: 2
Fore
SplineSet
143 1402 m 1
 311 1582 l 1
 366 1596 l 1
 544 1410 l 1
 504 1373 l 1
 331 1495 l 1
 322 1495 l 1
 173 1372 l 1
 143 1402 l 1
86 1187 m 1
 94 1244 l 1
 595 1244 l 1
 586 1187 l 1
 414 1156 l 1
 414 90 l 1
 601 63 l 1
 591 0 l 1
 94 0 l 1
 101 58 l 1
 263 96 l 1
 263 1154 l 1
 86 1187 l 1
EndSplineSet
Validated: 1
Colour: ffffff
EndChar

StartChar: Idieresis
Encoding: 207 207 232
Width: 674
VWidth: 0
Flags: W
HStem: 0 63<101 146.831 536.34 591> 1187 57<94 162.893 506.458 586> 1373 159<145.481 273.645 413.481 542.259>
VStem: 139 141<1377.97 1526.86> 263 151<96 1154> 407 142<1378.64 1526.86>
LayerCount: 2
Fore
SplineSet
407 1455 m 0xe4
 407 1504 436 1532 476 1532 c 0
 517 1532 549 1504 549 1455 c 0
 549 1404 519 1373 476 1373 c 0
 434 1373 407 1405 407 1455 c 0xe4
139 1455 m 0xf0
 139 1504 168 1532 208 1532 c 0
 249 1532 280 1504 280 1455 c 0
 280 1404 252 1373 209 1373 c 0
 167 1373 139 1405 139 1455 c 0xf0
86 1187 m 1
 94 1244 l 1
 595 1244 l 1
 586 1187 l 1
 414 1156 l 1
 414 90 l 1
 601 63 l 1
 591 0 l 1
 94 0 l 1
 101 58 l 1
 263 96 l 1
 263 1154 l 1xe8
 86 1187 l 1
EndSplineSet
Validated: 1
Colour: ffffff
EndChar

StartChar: Ntilde
Encoding: 209 209 233
Width: 1402
VWidth: 0
Flags: W
HStem: -24 21G<1046.69 1159.05> 0 63<79 126.246 467.377 521> 1187 57<73 124.012 891 956.762 1258.59 1330>
VStem: 246 101<96 1047> 1067 97<225 1154>
DStem2: 400 1244 347 1047 0.554162 -0.832409<134.614 1217.85> 620 1521 585 1434 0.97926 -0.202606<-68.5518 262.543>
LayerCount: 2
Fore
SplineSet
473 1382 m 1
 473 1382 510 1545 620 1521 c 1
 823 1479 l 1
 872 1466 899 1533 899 1533 c 1
 941 1531 l 1
 941 1531 898 1367 786 1392 c 1
 585 1434 l 1
 539 1446 506 1372 506 1372 c 1
 473 1382 l 1
63 1188 m 1
 73 1244 l 1
 400 1244 l 1
 1067 225 l 1
 1067 1154 l 1
 882 1187 l 1
 891 1244 l 1
 1341 1244 l 1
 1330 1187 l 1
 1164 1156 l 1
 1164 -3 l 1
 1060 -24 l 1
 347 1047 l 1
 347 90 l 1
 531 63 l 1
 521 0 l 1
 73 0 l 1
 79 58 l 1
 246 96 l 1
 246 1147 l 1
 63 1188 l 1
EndSplineSet
Validated: 33
Colour: ffffff
EndChar

StartChar: Ograve
Encoding: 210 210 234
Width: 1331
VWidth: 0
Flags: W
HStem: -27 85<540.046 886.004> 1197 77<514.474 839.086>
VStem: 111 167<384.992 882.59> 1113 166<369.762 864.183>
LayerCount: 2
Fore
SplineSet
544 1701 m 1
 648 1738 l 1
 781 1403 l 1
 730 1372 l 1
 544 1701 l 1
278 678 m 0
 278 346 417 58 708 58 c 0
 1005 58 1113 331 1113 574 c 0
 1113 906 968 1197 681 1197 c 0
 384 1197 278 939 278 678 c 0
111 620 m 0
 111 1005 349 1274 730 1274 c 0
 1082 1274 1279 984 1279 624 c 0
 1279 299 1071 -27 660 -27 c 0
 329 -27 111 263 111 620 c 0
EndSplineSet
Validated: 1
Colour: ffffff
EndChar

StartChar: Oacute
Encoding: 211 211 235
Width: 1331
VWidth: 0
Flags: W
HStem: -27 85<540.046 886.004> 1197 77<514.474 839.086>
VStem: 111 167<384.992 882.59> 1113 166<369.762 864.183>
LayerCount: 2
Fore
SplineSet
681 1402 m 1
 809 1732 l 1
 912 1693 l 1
 730 1372 l 1
 681 1402 l 1
278 678 m 0
 278 346 417 58 708 58 c 0
 1005 58 1113 331 1113 574 c 0
 1113 906 968 1197 681 1197 c 0
 384 1197 278 939 278 678 c 0
111 620 m 0
 111 1005 349 1274 730 1274 c 0
 1082 1274 1279 984 1279 624 c 0
 1279 299 1071 -27 660 -27 c 0
 329 -27 111 263 111 620 c 0
EndSplineSet
Validated: 1
Colour: ffffff
EndChar

StartChar: Ocircumflex
Encoding: 212 212 236
Width: 1331
VWidth: 0
Flags: W
HStem: -27 85<540.046 886.004> 1197 77<514.474 839.086>
VStem: 111 167<384.992 882.59> 1113 166<369.762 864.183>
LayerCount: 2
Fore
SplineSet
529 1402 m 1
 697 1582 l 1
 752 1596 l 1
 930 1410 l 1
 890 1373 l 1
 717 1495 l 1
 708 1495 l 1
 559 1372 l 1
 529 1402 l 1
278 678 m 0
 278 346 417 58 708 58 c 0
 1005 58 1113 331 1113 574 c 0
 1113 906 968 1197 681 1197 c 0
 384 1197 278 939 278 678 c 0
111 620 m 0
 111 1005 349 1274 730 1274 c 0
 1082 1274 1279 984 1279 624 c 0
 1279 299 1071 -27 660 -27 c 0
 329 -27 111 263 111 620 c 0
EndSplineSet
Validated: 1
Colour: ffffff
EndChar

StartChar: Otilde
Encoding: 213 213 237
Width: 1331
VWidth: 0
Flags: W
HStem: -27 85<540.046 886.004> 1197 77<514.474 839.086>
VStem: 111 167<384.992 882.59> 1113 166<369.762 864.183>
DStem2: 643 1521 608 1434 0.97926 -0.202606<-68.5518 262.543>
LayerCount: 2
Fore
SplineSet
496 1382 m 1
 496 1382 533 1545 643 1521 c 1
 846 1479 l 1
 895 1466 922 1533 922 1533 c 1
 964 1531 l 1
 964 1531 921 1367 809 1392 c 1
 608 1434 l 1
 562 1446 529 1372 529 1372 c 1
 496 1382 l 1
278 678 m 0
 278 346 417 58 708 58 c 0
 1005 58 1113 331 1113 574 c 0
 1113 906 968 1197 681 1197 c 0
 384 1197 278 939 278 678 c 0
111 620 m 0
 111 1005 349 1274 730 1274 c 0
 1082 1274 1279 984 1279 624 c 0
 1279 299 1071 -27 660 -27 c 0
 329 -27 111 263 111 620 c 0
EndSplineSet
Validated: 33
Colour: ffffff
EndChar

StartChar: Odieresis
Encoding: 214 214 238
Width: 1331
VWidth: 0
Flags: W
HStem: -27 85<540.046 886.004> 1197 77<514.474 839.086> 1373 159<531.481 659.645 799.481 928.259>
VStem: 111 167<384.992 882.59> 525 141<1377.97 1526.86> 793 142<1378.64 1526.86> 1113 166<369.762 864.183>
LayerCount: 2
Fore
SplineSet
793 1455 m 0
 793 1504 822 1532 862 1532 c 0
 903 1532 935 1504 935 1455 c 0
 935 1404 905 1373 862 1373 c 0
 820 1373 793 1405 793 1455 c 0
525 1455 m 0
 525 1504 554 1532 594 1532 c 0
 635 1532 666 1504 666 1455 c 0
 666 1404 638 1373 595 1373 c 0
 553 1373 525 1405 525 1455 c 0
278 678 m 0
 278 346 417 58 708 58 c 0
 1005 58 1113 331 1113 574 c 0
 1113 906 968 1197 681 1197 c 0
 384 1197 278 939 278 678 c 0
111 620 m 0
 111 1005 349 1274 730 1274 c 0
 1082 1274 1279 984 1279 624 c 0
 1279 299 1071 -27 660 -27 c 0
 329 -27 111 263 111 620 c 0
EndSplineSet
Validated: 1
Colour: ffffff
EndChar

StartChar: Ucircumflex
Encoding: 219 219 239
Width: 1371
VWidth: 0
Flags: W
HStem: -27 100<560.343 931.753> 1187 57<70 140.5 482.846 561 920 991.934 1285.23 1362>
VStem: 244 148<256.016 1154> 1095 96<241.363 1154>
LayerCount: 2
Fore
SplineSet
519 1402 m 1
 687 1582 l 1
 742 1596 l 1
 920 1410 l 1
 880 1373 l 1
 707 1495 l 1
 698 1495 l 1
 549 1372 l 1
 519 1402 l 1
61 1187 m 1
 70 1244 l 1
 568 1244 l 1
 561 1187 l 1
 392 1156 l 1
 392 503 l 2
 392 188 540 73 752 73 c 0
 966 73 1095 202 1095 466 c 2
 1096 1154 l 1
 912 1187 l 1
 920 1244 l 1
 1371 1244 l 1
 1362 1187 l 1
 1196 1156 l 1
 1191 503 l 2
 1188 160 1053 -27 711 -27 c 0
 480 -27 244 61 244 465 c 2
 244 1154 l 1
 61 1187 l 1
EndSplineSet
Validated: 1
Colour: ffffff
EndChar

StartChar: Udieresis
Encoding: 220 220 240
Width: 1371
VWidth: 0
Flags: W
HStem: -27 100<560.343 931.753> 1187 57<70 140.5 482.846 561 920 991.934 1285.23 1362> 1373 159<521.481 649.645 789.481 918.259>
VStem: 244 148<256.016 1154> 515 141<1377.97 1526.86> 783 142<1378.64 1526.86> 1095 96<241.363 1154>
LayerCount: 2
Fore
SplineSet
783 1455 m 0
 783 1504 812 1532 852 1532 c 0
 893 1532 925 1504 925 1455 c 0
 925 1404 895 1373 852 1373 c 0
 810 1373 783 1405 783 1455 c 0
515 1455 m 0
 515 1504 544 1532 584 1532 c 0
 625 1532 656 1504 656 1455 c 0
 656 1404 628 1373 585 1373 c 0
 543 1373 515 1405 515 1455 c 0
61 1187 m 1
 70 1244 l 1
 568 1244 l 1
 561 1187 l 1
 392 1156 l 1
 392 503 l 2
 392 188 540 73 752 73 c 0
 966 73 1095 202 1095 466 c 2
 1096 1154 l 1
 912 1187 l 1
 920 1244 l 1
 1371 1244 l 1
 1362 1187 l 1
 1196 1156 l 1
 1191 503 l 2
 1188 160 1053 -27 711 -27 c 0
 480 -27 244 61 244 465 c 2
 244 1154 l 1
 61 1187 l 1
EndSplineSet
Validated: 1
Colour: ffffff
EndChar

StartChar: aacute
Encoding: 225 225 241
Width: 847
VWidth: 0
Flags: W
HStem: -25 96<264.074 458.73> 2 60<781 830> 430 51<439.732 554> 816 73<288.287 481.225>
VStem: 93 137<104.121 308.921> 127 110<637.42 770.537> 554 127<136.073 430 476.149 745.933>
LayerCount: 2
Fore
SplineSet
395 1020 m 1x32
 523 1350 l 1
 626 1311 l 1
 444 990 l 1
 395 1020 l 1x32
230 207 m 0xba
 230 141 275 71 356 71 c 0
 439 71 514 128 554 186 c 1
 554 430 l 1
 345 394 230 334 230 207 c 0xba
93 169 m 0
 93 324 225 451 554 481 c 1
 554 529 l 2
 554 701 517 816 371 816 c 0
 268 816 252 723 237 601 c 1
 189 601 127 613 127 685 c 0
 127 791 306 889 443 889 c 0
 610 889 681 792 681 581 c 2
 681 230 l 2
 681 138 691 88 781 73 c 1
 839 62 l 1
 830 2 l 1x76
 796 -6 761 -18 711 -18 c 0
 613 -18 571 50 571 116 c 2
 571 131 l 1
 563 131 l 1
 539 74 447 -25 295 -25 c 0
 189 -25 93 46 93 169 c 0
EndSplineSet
Validated: 1
Colour: ffffff
EndChar

StartChar: acircumflex
Encoding: 226 226 242
Width: 847
VWidth: 0
Flags: W
HStem: -25 96<264.074 458.73> 2 60<781 830> 430 51<439.732 554> 816 73<288.287 481.225>
VStem: 93 137<104.121 308.921> 127 110<637.42 770.537> 554 127<136.073 430 476.149 745.933>
LayerCount: 2
Fore
SplineSet
243 1020 m 1x32
 411 1200 l 1
 466 1214 l 1
 644 1028 l 1
 604 991 l 1
 431 1113 l 1
 422 1113 l 1
 273 990 l 1
 243 1020 l 1x32
230 207 m 0xba
 230 141 275 71 356 71 c 0
 439 71 514 128 554 186 c 1
 554 430 l 1
 345 394 230 334 230 207 c 0xba
93 169 m 0
 93 324 225 451 554 481 c 1
 554 529 l 2
 554 701 517 816 371 816 c 0
 268 816 252 723 237 601 c 1
 189 601 127 613 127 685 c 0
 127 791 306 889 443 889 c 0
 610 889 681 792 681 581 c 2
 681 230 l 2
 681 138 691 88 781 73 c 1
 839 62 l 1
 830 2 l 1x76
 796 -6 761 -18 711 -18 c 0
 613 -18 571 50 571 116 c 2
 571 131 l 1
 563 131 l 1
 539 74 447 -25 295 -25 c 0
 189 -25 93 46 93 169 c 0
EndSplineSet
Validated: 1
Colour: ffffff
EndChar

StartChar: atilde
Encoding: 227 227 243
Width: 847
VWidth: 0
Flags: W
HStem: -25 96<264.074 458.73> 2 60<781 830> 430 51<439.732 554> 816 73<288.287 481.225>
VStem: 93 137<104.121 308.921> 127 110<637.42 770.537> 554 127<136.073 430 476.149 745.933>
DStem2: 357 1139 322 1052 0.97926 -0.202606<-68.5518 262.543>
LayerCount: 2
Fore
SplineSet
210 1000 m 1x32
 210 1000 247 1163 357 1139 c 1
 560 1097 l 1
 609 1084 636 1151 636 1151 c 1
 678 1149 l 1
 678 1149 635 985 523 1010 c 1
 322 1052 l 1
 276 1064 243 990 243 990 c 1
 210 1000 l 1x32
230 207 m 0xba
 230 141 275 71 356 71 c 0
 439 71 514 128 554 186 c 1
 554 430 l 1
 345 394 230 334 230 207 c 0xba
93 169 m 0
 93 324 225 451 554 481 c 1
 554 529 l 2
 554 701 517 816 371 816 c 0
 268 816 252 723 237 601 c 1
 189 601 127 613 127 685 c 0
 127 791 306 889 443 889 c 0
 610 889 681 792 681 581 c 2
 681 230 l 2
 681 138 691 88 781 73 c 1
 839 62 l 1
 830 2 l 1x76
 796 -6 761 -18 711 -18 c 0
 613 -18 571 50 571 116 c 2
 571 131 l 1
 563 131 l 1
 539 74 447 -25 295 -25 c 0
 189 -25 93 46 93 169 c 0
EndSplineSet
Validated: 33
Colour: ffffff
EndChar

StartChar: adieresis
Encoding: 228 228 244
Width: 847
VWidth: 0
Flags: W
HStem: -25 96<264.074 458.73> 2 60<781 830> 430 51<439.732 554> 816 73<288.287 481.225> 990 159<244.481 372.645 512.481 641.259>
VStem: 93 137<104.121 308.921> 127 110<637.42 770.537> 238 141<994.967 1143.86> 506 142<995.641 1143.86> 554 127<136.073 430 476.149 745.933>
LayerCount: 2
Fore
SplineSet
506 1072 m 0x3980
 506 1121 535 1149 575 1149 c 0
 616 1149 648 1121 648 1072 c 0
 648 1021 618 990 575 990 c 0
 533 990 506 1022 506 1072 c 0x3980
238 1072 m 0
 238 1121 267 1149 307 1149 c 0
 348 1149 379 1121 379 1072 c 0
 379 1021 351 990 308 990 c 0
 266 990 238 1022 238 1072 c 0
230 207 m 0xbd40
 230 141 275 71 356 71 c 0
 439 71 514 128 554 186 c 1
 554 430 l 1
 345 394 230 334 230 207 c 0xbd40
93 169 m 0
 93 324 225 451 554 481 c 1
 554 529 l 2
 554 701 517 816 371 816 c 0
 268 816 252 723 237 601 c 1
 189 601 127 613 127 685 c 0
 127 791 306 889 443 889 c 0
 610 889 681 792 681 581 c 2
 681 230 l 2
 681 138 691 88 781 73 c 1
 839 62 l 1
 830 2 l 1x7b40
 796 -6 761 -18 711 -18 c 0
 613 -18 571 50 571 116 c 2
 571 131 l 1
 563 131 l 1
 539 74 447 -25 295 -25 c 0
 189 -25 93 46 93 169 c 0
EndSplineSet
Validated: 1
Colour: ffffff
EndChar

StartChar: aring
Encoding: 229 229 245
Width: 847
VWidth: 0
Flags: W
HStem: -25 96<264.074 458.73> 2 60<781 830> 430 51<439.732 554> 816 73<288.287 481.225> 990 45<339.97 454.332> 1284 44<330.922 440.543>
VStem: 93 137<104.121 308.921> 127 110<637.42 770.537> 230 67<1067.84 1257.51> 486 68<1059.9 1251.14> 554 127<136.073 430 476.149 745.933>
LayerCount: 2
Fore
SplineSet
297 1168 m 0x3cc0
 297 1106 330 1035 396 1035 c 0
 452 1035 486 1077 486 1152 c 0
 486 1216 450 1284 386 1284 c 0
 324 1284 297 1226 297 1168 c 0x3cc0
230 1156 m 0
 230 1248 303 1328 397 1328 c 0
 493 1328 554 1259 554 1165 c 0
 554 1075 487 990 385 990 c 0
 293 990 230 1054 230 1156 c 0
230 207 m 0xbe20
 230 141 275 71 356 71 c 0
 439 71 514 128 554 186 c 1
 554 430 l 1
 345 394 230 334 230 207 c 0xbe20
93 169 m 0
 93 324 225 451 554 481 c 1
 554 529 l 2
 554 701 517 816 371 816 c 0
 268 816 252 723 237 601 c 1
 189 601 127 613 127 685 c 0
 127 791 306 889 443 889 c 0
 610 889 681 792 681 581 c 2
 681 230 l 2
 681 138 691 88 781 73 c 1
 839 62 l 1
 830 2 l 1x7d20
 796 -6 761 -18 711 -18 c 0
 613 -18 571 50 571 116 c 2
 571 131 l 1
 563 131 l 1
 539 74 447 -25 295 -25 c 0
 189 -25 93 46 93 169 c 0
EndSplineSet
Validated: 1
Colour: ffffff
EndChar

StartChar: ccedilla
Encoding: 231 231 246
Width: 779
VWidth: 0
Flags: W
HStem: -410 51<357.502 393.969> -30 99<380.057 451> 810 78<336.789 542.606>
VStem: 91 140<247.182 637.119> 449 113<-328.064 -183.321> 627 95<672.488 722.306>
LayerCount: 2
Fore
SplineSet
346 -359 m 1
 404 -339 449 -298 449 -268 c 0
 449 -218 405 -183 369 -148 c 1
 451 -30 l 1
 224 -27 91 167 91 405 c 0
 91 702 274 888 491 888 c 0
 659 888 722 805 722 726 c 0
 722 673 693 638 627 627 c 1
 590 729 539 810 443 810 c 0
 324 810 231 692 231 480 c 0
 231 247 339 69 523 69 c 0
 622 69 694 109 742 148 c 1
 763 102 l 1
 721 45 627 -9 522 -25 c 1
 473 -96 l 1
 510 -129 562 -180 562 -247 c 0
 562 -326 479 -375 362 -410 c 1
 346 -359 l 1
EndSplineSet
Validated: 1
Colour: ffffff
EndChar

StartChar: ecircumflex
Encoding: 234 234 247
Width: 812
VWidth: 0
Flags: W
HStem: -30 108<374.813 646.319> 445 62<237 455.78> 809 77<335.827 534.233>
VStem: 94 141<243.457 445 507 639.406> 595 141<530.116 755.093>
LayerCount: 2
Fore
SplineSet
285 1020 m 1
 453 1200 l 1
 508 1214 l 1
 686 1028 l 1
 646 991 l 1
 473 1113 l 1
 464 1113 l 1
 315 990 l 1
 285 1020 l 1
237 507 m 1
 588 530 l 1
 594 547 595 589 595 610 c 0
 595 730 535 809 437 809 c 0
 332 809 242 709 237 507 c 1
94 420 m 0
 94 720 293 886 486 886 c 0
 632 886 736 793 736 582 c 0
 736 551 728 486 719 451 c 1
 235 445 l 1
 239 257 324 78 522 78 c 2
 527 78 l 2
 607 78 670 98 743 148 c 1
 762 104 l 1
 694 25 586 -30 453 -30 c 0
 264 -30 94 117 94 420 c 0
EndSplineSet
Validated: 1
Colour: ffffff
EndChar

StartChar: edieresis
Encoding: 235 235 248
Width: 812
VWidth: 0
Flags: W
HStem: -30 108<374.813 646.319> 445 62<237 455.78> 809 77<335.827 534.233> 990 159<287.481 415.645 555.481 684.259>
VStem: 94 141<243.457 445 507 639.406> 281 141<994.967 1143.86> 549 142<995.641 1143.86> 595 141<530.116 755.093>
LayerCount: 2
Fore
SplineSet
549 1072 m 0xfe
 549 1121 578 1149 618 1149 c 0
 659 1149 691 1121 691 1072 c 0
 691 1021 661 990 618 990 c 0
 576 990 549 1022 549 1072 c 0xfe
281 1072 m 0
 281 1121 310 1149 350 1149 c 0
 391 1149 422 1121 422 1072 c 0
 422 1021 394 990 351 990 c 0
 309 990 281 1022 281 1072 c 0
237 507 m 1
 588 530 l 1
 594 547 595 589 595 610 c 0xfd
 595 730 535 809 437 809 c 0
 332 809 242 709 237 507 c 1
94 420 m 0
 94 720 293 886 486 886 c 0
 632 886 736 793 736 582 c 0
 736 551 728 486 719 451 c 1
 235 445 l 1
 239 257 324 78 522 78 c 2
 527 78 l 2
 607 78 670 98 743 148 c 1
 762 104 l 1
 694 25 586 -30 453 -30 c 0
 264 -30 94 117 94 420 c 0
EndSplineSet
Validated: 1
Colour: ffffff
EndChar

StartChar: iacute
Encoding: 237 237 249
Width: 555
VWidth: 0
Flags: W
HStem: 0 55<92 159.648 462.32 523> 814 51<99 142.883> 867 20G<122.545 374>
VStem: 243 131<87 772>
LayerCount: 2
Fore
SplineSet
259 1020 m 1
 387 1350 l 1
 490 1311 l 1
 308 990 l 1
 259 1020 l 1
80 0 m 1
 92 55 l 1
 243 87 l 1
 243 772 l 1
 91 814 l 1
 99 865 l 1
 358 887 l 1
 374 871 l 1
 374 87 l 1
 534 57 l 1
 523 0 l 1
 80 0 l 1
EndSplineSet
Validated: 1
Colour: ffffff
EndChar

StartChar: icircumflex
Encoding: 238 238 250
Width: 555
VWidth: 0
Flags: W
HStem: 0 55<92 159.648 462.32 523> 814 51<99 142.883> 867 20G<122.545 374>
VStem: 243 131<87 772>
LayerCount: 2
Fore
SplineSet
107 1020 m 1
 275 1200 l 1
 330 1214 l 1
 508 1028 l 1
 468 991 l 1
 295 1113 l 1
 286 1113 l 1
 137 990 l 1
 107 1020 l 1
80 0 m 1
 92 55 l 1
 243 87 l 1
 243 772 l 1
 91 814 l 1
 99 865 l 1
 358 887 l 1
 374 871 l 1
 374 87 l 1
 534 57 l 1
 523 0 l 1
 80 0 l 1
EndSplineSet
Validated: 1
Colour: ffffff
EndChar

StartChar: idieresis
Encoding: 239 239 251
Width: 555
VWidth: 0
Flags: W
HStem: 0 55<92 159.648 462.32 523> 814 51<99 142.883> 867 20G<122.545 374> 990 159<109.481 237.645 377.481 506.259>
VStem: 103 141<994.967 1143.86> 243 131<87 772> 371 142<995.641 1143.86>
LayerCount: 2
Fore
SplineSet
371 1072 m 0xf2
 371 1121 400 1149 440 1149 c 0
 481 1149 513 1121 513 1072 c 0
 513 1021 483 990 440 990 c 0
 398 990 371 1022 371 1072 c 0xf2
103 1072 m 0xf8
 103 1121 132 1149 172 1149 c 0
 213 1149 244 1121 244 1072 c 0
 244 1021 216 990 173 990 c 0
 131 990 103 1022 103 1072 c 0xf8
80 0 m 1
 92 55 l 1
 243 87 l 1
 243 772 l 1
 91 814 l 1
 99 865 l 1
 358 887 l 1
 374 871 l 1
 374 87 l 1xf4
 534 57 l 1
 523 0 l 1
 80 0 l 1
EndSplineSet
Validated: 1
Colour: ffffff
EndChar

StartChar: ntilde
Encoding: 241 241 252
Width: 1071
VWidth: 0
Flags: W
HStem: 0 52<87 151.512 454.44 506 638 697.031 990.548 1043> 781 109<510.473 721.449> 794 52<92 141.976>
VStem: 240 130<86 709.208> 778 131<86 721.931>
DStem2: 478 1139 443 1052 0.97926 -0.202606<-68.5518 262.543>
LayerCount: 2
Fore
SplineSet
331 1000 m 1x98
 331 1000 368 1163 478 1139 c 1
 681 1097 l 1
 730 1084 757 1151 757 1151 c 1
 799 1149 l 1
 799 1149 756 985 644 1010 c 1
 443 1052 l 1
 397 1064 364 990 364 990 c 1
 331 1000 l 1x98
79 0 m 1
 87 52 l 1
 240 86 l 1
 240 755 l 1
 85 794 l 1
 92 846 l 1xb8
 357 876 l 1
 369 862 l 1
 359 730 l 1
 367 730 l 1
 424 801 545 890 678 890 c 0
 815 890 909 798 909 600 c 2
 909 86 l 1
 1050 58 l 1
 1043 0 l 1
 630 0 l 1
 638 52 l 1
 778 86 l 1
 778 568 l 2
 778 721 700 781 608 781 c 0xd8
 513 781 448 748 370 670 c 1
 370 86 l 1
 516 58 l 1
 506 0 l 1
 79 0 l 1
EndSplineSet
Validated: 33
Colour: ffffff
EndChar

StartChar: ograve
Encoding: 242 242 253
Width: 944
VWidth: 0
Flags: W
HStem: -27 81<390.606 635.285> 806 85<350.002 593.047>
VStem: 94 141<242.263 635.762> 747 141<218.65 614.447>
LayerCount: 2
Fore
SplineSet
327 1319 m 1
 431 1356 l 1
 564 1021 l 1
 513 990 l 1
 327 1319 l 1
235 483 m 0
 235 262 330 54 522 54 c 0
 665 54 747 205 747 380 c 0
 747 581 656 806 469 806 c 0
 318 806 235 659 235 483 c 0
94 411 m 0
 94 714 288 891 512 891 c 0
 744 891 888 694 888 439 c 0
 888 160 706 -27 487 -27 c 0
 249 -27 94 151 94 411 c 0
EndSplineSet
Validated: 1
Colour: ffffff
EndChar

StartChar: oacute
Encoding: 243 243 254
Width: 944
VWidth: 0
Flags: W
HStem: -27 81<390.606 635.285> 806 85<350.002 593.047>
VStem: 94 141<242.263 635.762> 747 141<218.65 614.447>
LayerCount: 2
Fore
SplineSet
464 1020 m 1
 592 1350 l 1
 695 1311 l 1
 513 990 l 1
 464 1020 l 1
235 483 m 0
 235 262 330 54 522 54 c 0
 665 54 747 205 747 380 c 0
 747 581 656 806 469 806 c 0
 318 806 235 659 235 483 c 0
94 411 m 0
 94 714 288 891 512 891 c 0
 744 891 888 694 888 439 c 0
 888 160 706 -27 487 -27 c 0
 249 -27 94 151 94 411 c 0
EndSplineSet
Validated: 1
Colour: ffffff
EndChar

StartChar: ocircumflex
Encoding: 244 244 255
Width: 944
VWidth: 0
Flags: W
HStem: -27 81<390.606 635.285> 806 85<350.002 593.047>
VStem: 94 141<242.263 635.762> 747 141<218.65 614.447>
LayerCount: 2
Fore
SplineSet
312 1020 m 1
 480 1200 l 1
 535 1214 l 1
 713 1028 l 1
 673 991 l 1
 500 1113 l 1
 491 1113 l 1
 342 990 l 1
 312 1020 l 1
235 483 m 0
 235 262 330 54 522 54 c 0
 665 54 747 205 747 380 c 0
 747 581 656 806 469 806 c 0
 318 806 235 659 235 483 c 0
94 411 m 0
 94 714 288 891 512 891 c 0
 744 891 888 694 888 439 c 0
 888 160 706 -27 487 -27 c 0
 249 -27 94 151 94 411 c 0
EndSplineSet
Validated: 1
Colour: ffffff
EndChar

StartChar: otilde
Encoding: 245 245 256
Width: 944
VWidth: 0
Flags: W
HStem: -27 81<390.606 635.285> 806 85<350.002 593.047>
VStem: 94 141<242.263 635.762> 747 141<218.65 614.447>
DStem2: 426 1139 391 1052 0.97926 -0.202606<-68.5518 262.543>
LayerCount: 2
Fore
SplineSet
279 1000 m 1
 279 1000 316 1163 426 1139 c 1
 629 1097 l 1
 678 1084 705 1151 705 1151 c 1
 747 1149 l 1
 747 1149 704 985 592 1010 c 1
 391 1052 l 1
 345 1064 312 990 312 990 c 1
 279 1000 l 1
235 483 m 0
 235 262 330 54 522 54 c 0
 665 54 747 205 747 380 c 0
 747 581 656 806 469 806 c 0
 318 806 235 659 235 483 c 0
94 411 m 0
 94 714 288 891 512 891 c 0
 744 891 888 694 888 439 c 0
 888 160 706 -27 487 -27 c 0
 249 -27 94 151 94 411 c 0
EndSplineSet
Validated: 33
Colour: ffffff
EndChar

StartChar: odieresis
Encoding: 246 246 257
Width: 944
VWidth: 0
Flags: W
HStem: -27 81<390.606 635.285> 806 85<350.002 593.047> 990 159<313.481 441.645 581.481 710.259>
VStem: 94 141<242.263 635.762> 307 141<994.967 1143.86> 575 142<995.641 1143.86> 747 141<218.65 614.447>
LayerCount: 2
Fore
SplineSet
575 1072 m 0
 575 1121 604 1149 644 1149 c 0
 685 1149 717 1121 717 1072 c 0
 717 1021 687 990 644 990 c 0
 602 990 575 1022 575 1072 c 0
307 1072 m 0
 307 1121 336 1149 376 1149 c 0
 417 1149 448 1121 448 1072 c 0
 448 1021 420 990 377 990 c 0
 335 990 307 1022 307 1072 c 0
235 483 m 0
 235 262 330 54 522 54 c 0
 665 54 747 205 747 380 c 0
 747 581 656 806 469 806 c 0
 318 806 235 659 235 483 c 0
94 411 m 0
 94 714 288 891 512 891 c 0
 744 891 888 694 888 439 c 0
 888 160 706 -27 487 -27 c 0
 249 -27 94 151 94 411 c 0
EndSplineSet
Validated: 1
Colour: ffffff
EndChar

StartChar: ugrave
Encoding: 249 249 258
Width: 1013
VWidth: 0
Flags: W
HStem: -24 110<382.6 589.072> -1 59<933 980> 800 53<62 102.342 554 596.929> 854 20G<73.8571 327 598.333 834>
VStem: 199 128<144.811 757> 705 129<91.834 132 145.732 754>
LayerCount: 2
Fore
SplineSet
331 1319 m 1x3c
 435 1356 l 1
 568 1021 l 1
 517 990 l 1
 331 1319 l 1x3c
54 800 m 1
 62 853 l 1
 311 874 l 1
 327 857 l 1
 327 317 l 2
 327 153 393 86 499 86 c 0xbc
 589 86 660 137 705 187 c 1
 705 754 l 1
 548 790 l 1
 554 850 l 1
 820 874 l 1
 834 857 l 1
 834 223 l 2
 834 123 857 85 933 70 c 1
 987 58 l 1
 980 -1 l 1x7c
 939 -13 904 -21 854 -21 c 0
 763 -21 717 43 717 120 c 2
 717 132 l 1
 705 132 l 1
 636 30 536 -24 427 -24 c 0xbc
 288 -24 199 60 199 275 c 2
 199 757 l 1
 54 800 l 1
EndSplineSet
Validated: 1
Colour: ffffff
EndChar

StartChar: uacute
Encoding: 250 250 259
Width: 1013
VWidth: 0
Flags: W
HStem: -24 110<382.6 589.072> -1 59<933 980> 800 53<62 102.342 554 596.929> 854 20G<73.8571 327 598.333 834>
VStem: 199 128<144.811 757> 705 129<91.834 132 145.732 754>
LayerCount: 2
Fore
SplineSet
444 1020 m 1x3c
 572 1350 l 1
 675 1311 l 1
 493 990 l 1
 444 1020 l 1x3c
54 800 m 1
 62 853 l 1
 311 874 l 1
 327 857 l 1
 327 317 l 2
 327 153 393 86 499 86 c 0xbc
 589 86 660 137 705 187 c 1
 705 754 l 1
 548 790 l 1
 554 850 l 1
 820 874 l 1
 834 857 l 1
 834 223 l 2
 834 123 857 85 933 70 c 1
 987 58 l 1
 980 -1 l 1x7c
 939 -13 904 -21 854 -21 c 0
 763 -21 717 43 717 120 c 2
 717 132 l 1
 705 132 l 1
 636 30 536 -24 427 -24 c 0xbc
 288 -24 199 60 199 275 c 2
 199 757 l 1
 54 800 l 1
EndSplineSet
Validated: 1
Colour: ffffff
EndChar

StartChar: ucircumflex
Encoding: 251 251 260
Width: 1013
VWidth: 0
Flags: W
HStem: -24 110<382.6 589.072> -1 59<933 980> 800 53<62 102.342 554 596.929> 854 20G<73.8571 327 598.333 834>
VStem: 199 128<144.811 757> 705 129<91.834 132 145.732 754>
LayerCount: 2
Fore
SplineSet
300 1020 m 1x3c
 468 1200 l 1
 523 1214 l 1
 701 1028 l 1
 661 991 l 1
 488 1113 l 1
 479 1113 l 1
 330 990 l 1
 300 1020 l 1x3c
54 800 m 1
 62 853 l 1
 311 874 l 1
 327 857 l 1
 327 317 l 2
 327 153 393 86 499 86 c 0xbc
 589 86 660 137 705 187 c 1
 705 754 l 1
 548 790 l 1
 554 850 l 1
 820 874 l 1
 834 857 l 1
 834 223 l 2
 834 123 857 85 933 70 c 1
 987 58 l 1
 980 -1 l 1x7c
 939 -13 904 -21 854 -21 c 0
 763 -21 717 43 717 120 c 2
 717 132 l 1
 705 132 l 1
 636 30 536 -24 427 -24 c 0xbc
 288 -24 199 60 199 275 c 2
 199 757 l 1
 54 800 l 1
EndSplineSet
Validated: 1
Colour: ffffff
EndChar

StartChar: udieresis
Encoding: 252 252 261
Width: 1013
VWidth: 0
Flags: W
HStem: -24 110<382.6 589.072> -1 59<933 980> 800 53<62 102.342 554 596.929> 854 20G<73.8571 327 598.333 834> 990 159<302.481 430.645 570.481 699.259>
VStem: 199 128<144.811 757> 296 141<994.967 1143.86> 564 142<995.641 1143.86> 705 129<91.834 132 145.732 754>
LayerCount: 2
Fore
SplineSet
564 1072 m 0x39
 564 1121 593 1149 633 1149 c 0
 674 1149 706 1121 706 1072 c 0
 706 1021 676 990 633 990 c 0
 591 990 564 1022 564 1072 c 0x39
296 1072 m 0x3a
 296 1121 325 1149 365 1149 c 0
 406 1149 437 1121 437 1072 c 0
 437 1021 409 990 366 990 c 0
 324 990 296 1022 296 1072 c 0x3a
54 800 m 1
 62 853 l 1
 311 874 l 1
 327 857 l 1
 327 317 l 2
 327 153 393 86 499 86 c 0xbc80
 589 86 660 137 705 187 c 1
 705 754 l 1
 548 790 l 1
 554 850 l 1
 820 874 l 1
 834 857 l 1
 834 223 l 2
 834 123 857 85 933 70 c 1
 987 58 l 1
 980 -1 l 1x7c80
 939 -13 904 -21 854 -21 c 0
 763 -21 717 43 717 120 c 2
 717 132 l 1
 705 132 l 1
 636 30 536 -24 427 -24 c 0
 288 -24 199 60 199 275 c 2
 199 757 l 1xbc80
 54 800 l 1
EndSplineSet
Validated: 1
Colour: ffffff
EndChar

StartChar: Amacron
Encoding: 256 256 262
Width: 1324
VWidth: 0
Flags: W
HStem: 0 58<43 91.3423 407.32 469 805 861.344 1212.69 1257> 455 79<453 826> 1248 20G<635.273 734.854> 1373 76<481 912>
DStem2: 188 101 294 95 0.357284 0.933996<32.2681 415.311 499.1 499.1> 728 1268 646 1060 0.324201 -0.945988<170.181 726.127 808.641 1183.72>
LayerCount: 2
Fore
SplineSet
470 1373 m 1
 481 1449 l 1
 922 1449 l 1
 912 1373 l 1
 470 1373 l 1
453 534 m 1
 826 534 l 1
 646 1060 l 1
 453 534 l 1
35 0 m 1
 43 58 l 1
 188 101 l 1
 626 1246 l 1
 728 1268 l 1
 1130 95 l 1
 1265 64 l 1
 1257 0 l 1
 795 0 l 1
 805 58 l 1
 974 101 l 1
 850 455 l 1
 425 455 l 1
 294 95 l 1
 479 63 l 1
 469 0 l 1
 35 0 l 1
EndSplineSet
Validated: 1
Colour: ffffff
EndChar

StartChar: amacron
Encoding: 257 257 263
Width: 847
VWidth: 0
Flags: W
HStem: -25 96<264.074 458.73> 2 60<781 830> 430 51<439.732 554> 816 73<288.287 481.225> 990 76<228 659>
VStem: 93 137<104.121 308.921> 127 110<637.42 770.537> 554 127<136.073 430 476.149 745.933>
LayerCount: 2
Fore
SplineSet
217 990 m 1x39
 228 1066 l 1
 669 1066 l 1
 659 990 l 1
 217 990 l 1x39
230 207 m 0xbd
 230 141 275 71 356 71 c 0
 439 71 514 128 554 186 c 1
 554 430 l 1
 345 394 230 334 230 207 c 0xbd
93 169 m 0
 93 324 225 451 554 481 c 1
 554 529 l 2
 554 701 517 816 371 816 c 0
 268 816 252 723 237 601 c 1
 189 601 127 613 127 685 c 0
 127 791 306 889 443 889 c 0
 610 889 681 792 681 581 c 2
 681 230 l 2
 681 138 691 88 781 73 c 1
 839 62 l 1
 830 2 l 1x7b
 796 -6 761 -18 711 -18 c 0
 613 -18 571 50 571 116 c 2
 571 131 l 1
 563 131 l 1
 539 74 447 -25 295 -25 c 0
 189 -25 93 46 93 169 c 0
EndSplineSet
Validated: 1
Colour: ffffff
EndChar

StartChar: Abreve
Encoding: 258 258 264
Width: 1324
VWidth: 0
Flags: W
HStem: 0 58<43 91.3423 407.32 469 805 861.344 1212.69 1257> 455 79<453 826> 1248 20G<635.273 734.854> 1372 93<571.574 782.826>
VStem: 488 30<1555.84 1564.38>
DStem2: 188 101 294 95 0.357284 0.933996<32.2681 415.311 499.1 499.1> 728 1268 646 1060 0.324201 -0.945988<170.181 726.127 808.641 1183.72>
LayerCount: 2
Fore
SplineSet
488 1551 m 1
 518 1579 l 1
 542 1532 596 1465 678 1465 c 0
 762 1465 809 1531 837 1581 c 1
 871 1556 l 1
 841 1468 787 1372 678 1372 c 0
 560 1372 510 1464 488 1551 c 1
453 534 m 1
 826 534 l 1
 646 1060 l 1
 453 534 l 1
35 0 m 1
 43 58 l 1
 188 101 l 1
 626 1246 l 1
 728 1268 l 1
 1130 95 l 1
 1265 64 l 1
 1257 0 l 1
 795 0 l 1
 805 58 l 1
 974 101 l 1
 850 455 l 1
 425 455 l 1
 294 95 l 1
 479 63 l 1
 469 0 l 1
 35 0 l 1
EndSplineSet
Validated: 1
Colour: ffffff
EndChar

StartChar: abreve
Encoding: 259 259 265
Width: 847
VWidth: 0
Flags: W
HStem: -25 96<264.074 458.73> 2 60<781 830> 430 51<439.732 554> 816 73<288.287 481.225> 990 93<335.574 546.826> 1177 20G<260.571 294 587 628.2>
VStem: 93 137<104.121 308.921> 127 110<637.42 770.537> 252 30<1173.84 1182.38> 554 127<136.073 430 476.149 745.933>
LayerCount: 2
Fore
SplineSet
252 1169 m 1x3cc0
 282 1197 l 1
 306 1150 360 1083 442 1083 c 0
 526 1083 573 1149 601 1199 c 1
 635 1174 l 1
 605 1086 551 990 442 990 c 0
 324 990 274 1082 252 1169 c 1x3cc0
230 207 m 0xbec0
 230 141 275 71 356 71 c 0
 439 71 514 128 554 186 c 1
 554 430 l 1
 345 394 230 334 230 207 c 0xbec0
93 169 m 0
 93 324 225 451 554 481 c 1
 554 529 l 2
 554 701 517 816 371 816 c 0
 268 816 252 723 237 601 c 1
 189 601 127 613 127 685 c 0
 127 791 306 889 443 889 c 0
 610 889 681 792 681 581 c 2
 681 230 l 2
 681 138 691 88 781 73 c 1
 839 62 l 1
 830 2 l 1x7dc0
 796 -6 761 -18 711 -18 c 0
 613 -18 571 50 571 116 c 2
 571 131 l 1
 563 131 l 1
 539 74 447 -25 295 -25 c 0
 189 -25 93 46 93 169 c 0
EndSplineSet
Validated: 1
Colour: ffffff
EndChar

StartChar: aogonek
Encoding: 261 261 266
Width: 847
VWidth: 0
Flags: W
HStem: -402 43<775.445 784.335> -25 96<264.074 458.73> 2 60<781 830> 430 51<439.732 554> 816 73<288.287 481.225>
VStem: 93 137<104.121 308.921> 127 110<637.42 770.537> 554 127<-294.387 -104.233 136.073 430 476.149 745.933>
LayerCount: 2
Fore
SplineSet
230 207 m 0xdd
 230 141 275 71 356 71 c 0
 439 71 514 128 554 186 c 1
 554 430 l 1
 345 394 230 334 230 207 c 0xdd
93 169 m 0
 93 324 225 451 554 481 c 1
 554 529 l 2
 554 701 517 816 371 816 c 0
 268 816 252 723 237 601 c 1
 189 601 127 613 127 685 c 0
 127 791 306 889 443 889 c 0
 610 889 681 792 681 581 c 2
 681 230 l 2
 681 138 691 88 781 73 c 1
 839 62 l 1
 830 2 l 1xbb
 803 -4 776 -14 741 -17 c 1
 682 -102 674 -141 674 -172 c 0
 674 -244 717 -306 807 -359 c 1
 773 -402 l 1
 629 -387 551 -310 551 -224 c 0
 551 -172 571 -117 681 -16 c 1
 604 -4 571 57 571 116 c 2
 571 131 l 1
 563 131 l 1
 539 74 447 -25 295 -25 c 0
 189 -25 93 46 93 169 c 0
EndSplineSet
Validated: 1
Colour: ffffff
EndChar

StartChar: Cacute
Encoding: 262 262 267
Width: 1113
VWidth: 0
Flags: W
HStem: -25 109<533.817 875.727> 1195 75<516.214 837.778>
VStem: 108 163<381.12 852.822> 963 68<846 941.573>
LayerCount: 2
Fore
SplineSet
662 1402 m 1
 790 1732 l 1
 893 1693 l 1
 711 1372 l 1
 662 1402 l 1
108 599 m 0
 108 894 291 1270 711 1270 c 0
 844 1270 966 1244 1062 1171 c 1
 1031 836 l 1
 963 846 l 1
 927 1086 l 1
 881 1146 803 1195 659 1195 c 0
 446 1195 271 978 271 651 c 0
 271 284 464 84 727 84 c 0
 871 84 1000 166 1084 252 c 1
 1113 195 l 1
 1042 100 870 -25 658 -25 c 0
 352 -25 108 207 108 599 c 0
EndSplineSet
Validated: 1
Colour: ffffff
EndChar

StartChar: cacute
Encoding: 263 263 268
Width: 779
VWidth: 0
Flags: W
HStem: -30 99<382.378 648.727> 810 78<336.789 542.606>
VStem: 91 140<246.581 637.119> 627 95<672.488 722.306>
LayerCount: 2
Fore
SplineSet
443 1020 m 1
 571 1350 l 1
 674 1311 l 1
 492 990 l 1
 443 1020 l 1
91 405 m 0
 91 702 274 888 491 888 c 0
 659 888 722 805 722 726 c 0
 722 673 693 638 627 627 c 1
 590 729 539 810 443 810 c 0
 324 810 231 692 231 480 c 0
 231 247 339 69 523 69 c 0
 622 69 694 109 742 148 c 1
 763 102 l 1
 712 33 586 -30 457 -30 c 0
 226 -30 91 165 91 405 c 0
EndSplineSet
Validated: 1
Colour: ffffff
EndChar

StartChar: Ccaron
Encoding: 268 268 269
Width: 1113
VWidth: 0
Flags: W
HStem: -25 109<533.817 875.727> 1195 75<516.214 837.778>
VStem: 108 163<381.12 852.822> 963 68<846 941.573>
DStem2: 575 1600 507 1545 0.719055 -0.694953<0 221.304> 742 1444 742 1386 0.688959 0.724801<0 201.837>
LayerCount: 2
Fore
SplineSet
507 1545 m 1
 575 1600 l 1
 732 1444 l 1
 742 1444 l 1
 874 1597 l 1
 915 1568 l 1
 742 1386 l 1
 686 1372 l 1
 507 1545 l 1
108 599 m 0
 108 894 291 1270 711 1270 c 0
 844 1270 966 1244 1062 1171 c 1
 1031 836 l 1
 963 846 l 1
 927 1086 l 1
 881 1146 803 1195 659 1195 c 0
 446 1195 271 978 271 651 c 0
 271 284 464 84 727 84 c 0
 871 84 1000 166 1084 252 c 1
 1113 195 l 1
 1042 100 870 -25 658 -25 c 0
 352 -25 108 207 108 599 c 0
EndSplineSet
Validated: 1
Colour: ffffff
EndChar

StartChar: ccaron
Encoding: 269 269 270
Width: 779
VWidth: 0
Flags: W
HStem: -30 99<382.378 648.727> 810 78<336.789 542.606>
VStem: 91 140<246.581 637.119> 627 95<672.488 722.306>
DStem2: 356 1218 288 1163 0.719055 -0.694953<0 221.304> 523 1062 523 1004 0.688959 0.724801<0 201.837>
LayerCount: 2
Fore
SplineSet
288 1163 m 1
 356 1218 l 1
 513 1062 l 1
 523 1062 l 1
 655 1215 l 1
 696 1186 l 1
 523 1004 l 1
 467 990 l 1
 288 1163 l 1
91 405 m 0
 91 702 274 888 491 888 c 0
 659 888 722 805 722 726 c 0
 722 673 693 638 627 627 c 1
 590 729 539 810 443 810 c 0
 324 810 231 692 231 480 c 0
 231 247 339 69 523 69 c 0
 622 69 694 109 742 148 c 1
 763 102 l 1
 712 33 586 -30 457 -30 c 0
 226 -30 91 165 91 405 c 0
EndSplineSet
Validated: 1
Colour: ffffff
EndChar

StartChar: Dcaron
Encoding: 270 270 271
Width: 1344
VWidth: 0
Flags: W
HStem: 0 79<409 802.97> 0 58<92 149.011> 1154 56<100 185.39> 1181 78<410.57 784.509>
VStem: 263 146<101 1128> 1127 163<411.303 847.949>
DStem2: 550 1600 482 1545 0.719055 -0.694953<0 221.304> 717 1444 717 1386 0.688959 0.724801<0 201.837>
LayerCount: 2
Fore
SplineSet
482 1545 m 1x0c
 550 1600 l 1
 707 1444 l 1
 717 1444 l 1
 849 1597 l 1
 890 1568 l 1
 717 1386 l 1
 661 1372 l 1
 482 1545 l 1x0c
409 79 m 1x9c
 571 79 l 2
 926 79 1127 299 1127 599 c 0
 1127 934 936 1181 557 1181 c 0
 516 1181 450 1181 409 1176 c 1
 409 79 l 1x9c
81 0 m 1x4c
 92 58 l 1
 263 101 l 1
 263 1128 l 1
 90 1154 l 1
 100 1210 l 1x6c
 297 1241 447 1259 593 1259 c 0
 1128 1259 1290 962 1290 654 c 0
 1290 312 1056 0 544 0 c 2x9c
 81 0 l 1x4c
EndSplineSet
Validated: 1
Colour: ffffff
EndChar

StartChar: dcaron
Encoding: 271 271 272
Width: 997
VWidth: 0
Flags: W
HStem: -21 98<344.87 582.548> 753 58<891.551 938.036> 810 79<358.455 605.779> 1125 144<927.416 1031.97> 1194 53<553 594.676>
VStem: 92 138<214.816 608.83> 710 116<90.602 131 158.142 723.451 841 1151> 1058 118<907.658 1099.88>
LayerCount: 2
Fore
SplineSet
878 811 m 1xd7
 1015 856 1058 928 1058 1001 c 0
 1058 1072 1010 1125 946 1125 c 0
 937 1125 926 1124 917 1122 c 1
 912 1137 909 1147 909 1163 c 0
 909 1231 963 1269 1017 1269 c 0
 1090 1269 1176 1205 1176 1060 c 0
 1176 966 1132 821 896 753 c 1
 878 811 l 1xd7
230 452 m 0
 230 217 319 77 474 77 c 0
 558 77 657 135 700 193 c 1
 700 685 l 1
 644 766 550 810 469 810 c 0xa7
 325 810 230 674 230 452 c 0
92 393 m 0
 92 692 306 889 518 889 c 0
 584 889 669 866 702 841 c 1
 710 841 l 1
 696 972 l 1
 696 1151 l 1
 544 1194 l 1
 553 1247 l 1xaf
 811 1269 l 1x97
 826 1252 l 1
 826 222 l 2
 826 91 874 81 925 70 c 2
 978 58 l 1
 969 -2 l 1
 929 -14 902 -22 848 -22 c 0
 752 -22 710 42 710 124 c 2
 710 131 l 1
 700 131 l 1
 644 54 550 -21 411 -21 c 0
 233 -21 92 122 92 393 c 0
EndSplineSet
Validated: 1
Colour: ffffff
EndChar

StartChar: Emacron
Encoding: 274 274 273
Width: 1107
VWidth: 0
Flags: W
HStem: 0 75<413 942> 0 58<96 159.757> 594 74<413 716> 1173 71<93 103.219 413 916> 1369 76<402 833>
VStem: 265 148<96 594 668 1151> 741 66<419 514.66> 768 72<750.766 797> 946 67<934 1048.21>
LayerCount: 2
Fore
SplineSet
391 1369 m 1x3c80
 402 1445 l 1
 843 1445 l 1
 833 1369 l 1
 391 1369 l 1x3c80
84 1185 m 1
 93 1244 l 1
 1044 1244 l 1
 1013 925 l 1
 946 934 l 1
 916 1173 l 1
 413 1173 l 1
 413 668 l 1
 728 668 l 1
 768 797 l 1
 840 808 l 1x7d80
 807 419 l 1
 741 408 l 1
 716 594 l 1
 413 594 l 1
 413 75 l 1
 942 75 l 1xbe80
 1028 324 l 1
 1090 313 l 1
 1060 0 l 1
 90 0 l 1
 96 58 l 1x7e80
 265 96 l 1
 265 1151 l 1
 84 1185 l 1
EndSplineSet
Validated: 1
Colour: ffffff
EndChar

StartChar: emacron
Encoding: 275 275 274
Width: 812
VWidth: 0
Flags: W
HStem: -30 108<374.813 646.319> 445 62<237 455.78> 809 77<335.827 534.233> 990 76<255 686>
VStem: 94 141<243.457 445 507 639.406> 595 141<530.116 755.093>
LayerCount: 2
Fore
SplineSet
244 990 m 1
 255 1066 l 1
 696 1066 l 1
 686 990 l 1
 244 990 l 1
237 507 m 1
 588 530 l 1
 594 547 595 589 595 610 c 0
 595 730 535 809 437 809 c 0
 332 809 242 709 237 507 c 1
94 420 m 0
 94 720 293 886 486 886 c 0
 632 886 736 793 736 582 c 0
 736 551 728 486 719 451 c 1
 235 445 l 1
 239 257 324 78 522 78 c 2
 527 78 l 2
 607 78 670 98 743 148 c 1
 762 104 l 1
 694 25 586 -30 453 -30 c 0
 264 -30 94 117 94 420 c 0
EndSplineSet
Validated: 1
Colour: ffffff
EndChar

StartChar: Edotaccent
Encoding: 278 278 275
Width: 1107
VWidth: 0
Flags: W
HStem: 0 75<413 942> 0 58<96 159.757> 594 74<413 716> 1173 71<93 103.219 413 916> 1373 208<543.654 687.027>
VStem: 265 148<96 594 668 1151> 530 170<1383.95 1569.83> 741 66<419 514.66> 768 72<750.766 797> 946 67<934 1048.21>
LayerCount: 2
Fore
SplineSet
530 1479 m 0x3e40
 530 1540 563 1581 614 1581 c 0
 665 1581 700 1541 700 1479 c 0
 700 1415 668 1373 614 1373 c 0
 561 1373 530 1417 530 1479 c 0x3e40
84 1185 m 1
 93 1244 l 1
 1044 1244 l 1
 1013 925 l 1
 946 934 l 1
 916 1173 l 1
 413 1173 l 1
 413 668 l 1
 728 668 l 1
 768 797 l 1
 840 808 l 1x7ec0
 807 419 l 1
 741 408 l 1
 716 594 l 1
 413 594 l 1
 413 75 l 1
 942 75 l 1xbf40
 1028 324 l 1
 1090 313 l 1
 1060 0 l 1
 90 0 l 1
 96 58 l 1x7f40
 265 96 l 1
 265 1151 l 1
 84 1185 l 1
EndSplineSet
Validated: 1
Colour: ffffff
EndChar

StartChar: edotaccent
Encoding: 279 279 276
Width: 812
VWidth: 0
Flags: W
HStem: -30 108<374.813 646.319> 445 62<237 455.78> 809 77<335.827 534.233> 988 208<393.654 537.027>
VStem: 94 141<243.457 445 507 639.406> 380 170<998.953 1184.83> 595 141<530.116 755.093>
LayerCount: 2
Fore
SplineSet
380 1094 m 0
 380 1155 413 1196 464 1196 c 0
 515 1196 550 1156 550 1094 c 0
 550 1030 518 988 464 988 c 0
 411 988 380 1032 380 1094 c 0
237 507 m 1
 588 530 l 1
 594 547 595 589 595 610 c 0
 595 730 535 809 437 809 c 0
 332 809 242 709 237 507 c 1
94 420 m 0
 94 720 293 886 486 886 c 0
 632 886 736 793 736 582 c 0
 736 551 728 486 719 451 c 1
 235 445 l 1
 239 257 324 78 522 78 c 2
 527 78 l 2
 607 78 670 98 743 148 c 1
 762 104 l 1
 694 25 586 -30 453 -30 c 0
 264 -30 94 117 94 420 c 0
EndSplineSet
Validated: 1
Colour: ffffff
EndChar

StartChar: Eogonek
Encoding: 280 280 277
Width: 1107
VWidth: 0
Flags: W
HStem: -377 43<1088.45 1097.34> 0 75<413 942> 0 58<96 159.757> 594 74<413 716> 1173 71<93 103.219 413 916>
VStem: 265 148<96 594 668 1151> 741 66<419 514.66> 768 72<750.766 797> 864 123<-261.513 -80.9668> 946 67<934 1048.21>
LayerCount: 2
Fore
SplineSet
84 1185 m 1xbe80
 93 1244 l 1
 1044 1244 l 1
 1013 925 l 1
 946 934 l 1
 916 1173 l 1
 413 1173 l 1
 413 668 l 1
 728 668 l 1
 768 797 l 1
 840 808 l 1xbd40
 807 419 l 1
 741 408 l 1
 716 594 l 1
 413 594 l 1
 413 75 l 1
 942 75 l 1xde
 1028 324 l 1
 1090 313 l 1
 1060 0 l 1
 1048 -0 l 1
 994 -79 987 -117 987 -147 c 0
 987 -219 1030 -281 1120 -334 c 1
 1086 -377 l 1
 942 -362 864 -285 864 -199 c 0
 864 -148 882 -95 984 0 c 1
 90 0 l 1
 96 58 l 1
 265 96 l 1
 265 1151 l 1
 84 1185 l 1xbe80
EndSplineSet
Validated: 1
Colour: ffffff
EndChar

StartChar: eogonek
Encoding: 281 281 278
Width: 812
VWidth: 0
Flags: W
HStem: -407 43<554.445 563.335> -30 108<374.697 450> 445 62<237 455.78> 809 77<335.827 534.233>
VStem: 94 141<244.482 445 507 639.406> 330 123<-291.513 -111.41> 595 141<530.116 755.093>
LayerCount: 2
Fore
SplineSet
237 507 m 1
 588 530 l 1
 594 547 595 589 595 610 c 0
 595 730 535 809 437 809 c 0
 332 809 242 709 237 507 c 1
94 420 m 0
 94 720 293 886 486 886 c 0
 632 886 736 793 736 582 c 0
 736 551 728 486 719 451 c 1
 235 445 l 1
 239 257 324 78 522 78 c 2
 527 78 l 2
 607 78 670 98 743 148 c 1
 762 104 l 1
 705 38 621 -12 517 -26 c 1
 460 -108 453 -146 453 -177 c 0
 453 -249 496 -311 586 -364 c 1
 552 -407 l 1
 408 -392 330 -315 330 -229 c 0
 330 -178 348 -125 450 -30 c 1
 262 -28 94 119 94 420 c 0
EndSplineSet
Validated: 1
Colour: ffffff
EndChar

